<svg id="Layer_1" data-name="Layer 1" xmlns="http://www.w3.org/2000/svg" viewBox="0 0 476.1 580.17"><defs><style>.cls-1{fill:#07af4f;}.cls-2{fill:#020202;}.cls-3{fill:#040404;}.cls-4{fill:#050505;}.cls-5{fill:#070707;}.cls-6{fill:#060606;}.cls-7{fill:#080808;}.cls-8{fill:#0c0c0c;}.cls-9{fill:#090909;}.cls-10{fill:#0b0b0b;}.cls-11{fill:#0d0d0d;}.cls-12{fill:#0e0e0e;}.cls-13{fill:#0a0a0a;}.cls-14{fill:#151515;}.cls-15{fill:#1e1e1e;}.cls-16{fill:#171717;}.cls-17{fill:#282828;}.cls-18{fill:#474747;}.cls-19{fill:#121212;}.cls-20{fill:#323232;}.cls-21{fill:#3b3b3b;}.cls-22{fill:#141414;}.cls-23{fill:#181818;}.cls-24{fill:#232323;}.cls-25{fill:#252525;}.cls-26{fill:#2e2e2e;}.cls-27{fill:#333;}.cls-28{fill:#535353;}.cls-29{fill:#656565;}.cls-30{fill:#3d3d3d;}.cls-31{fill:#444;}.cls-32{fill:#262626;}.cls-33{fill:#4f4f4f;}.cls-34{fill:#2d2d2d;}.cls-35{fill:#3f3f3f;}.cls-36{fill:#575757;}.cls-37{fill:#696969;}.cls-38{fill:#4c4c4c;}.cls-39{fill:#3c3c3c;}.cls-40{fill:#111;}.cls-41{fill:#131313;}.cls-42{fill:#292929;}.cls-43{fill:#2f2f2f;}.cls-44{fill:#313131;}.cls-45{fill:#1c1c1c;}.cls-46{fill:#030303;}.cls-47{fill:#242424;}.cls-48{fill:#161616;}.cls-49{fill:#0f0f0f;}.cls-50{fill:#383838;}.cls-51{fill:#343434;}.cls-52{fill:#272727;}</style></defs><path class="cls-1" d="M178,539.61c1.71-4.27,27.43-87.95,28.85-92.39,1.91-6,14.69-47.17,15.29-53.29s-.29-8,3.15-13.42c1.69-2.64,2.81-16.38,5.42-18.74.17-.16,5.07.06,3.91-1.26,2-1.63,53.92,19.32,56.75,17.06-2.27-.15,25.86,10.65,24.47,10.56-1.06.44,16.29,2.36,16.26.46,3.93-.3,19.87,16.33,24.7,13.76-6.8,13.34-16.57,31.91-18.34,45.15a334.3,334.3,0,0,0-2.52,35.35c0,1.53-3.81,87.12-4,88.65C222.11,600.38,180.37,543,178,539.61Z"/><path class="cls-2" d="M245.16,121.44c10.78-6.86,28-7.9,39.38.53a94.4,94.4,0,0,1,13.7,12.09c1.1,1.21,1.79,2.2,3.83,1.24,14.88-7,27.41-1.44,39.11,7.74a72.17,72.17,0,0,1,11.94,11.69c2.19,2.73,4.13,3.49,7.91,2.57,13.43-3.28,25.66-.83,35.25,9.95,5.74,6.45,8.33,14.09,7.07,22.71-.47,3.24.67,4.17,3.65,4.69,20.23,3.55,32.59,20.51,30.18,41.18-.22,1.91-.29,3.84-.61,5.73-1.73,10.25-1.73,10.22,7.26,14.94,5.86,3.07,11.73,6.13,17.5,9.37,12.37,7,17.89,20.76,13,34a71.27,71.27,0,0,1-14.63,24c-10.49,11.25-22.22,12.51-35.21,4.44-2.77-1.73-5.44-3.62-8.53-5.68-4,15.07-10.6,28.4-21.08,39.54-10.9,11.58-20.5,24.22-30,36.91-13.72,18.34-20.66,39.31-22.34,62.08-2.1,28.39-1.71,56.87-3.22,85.27-.36,6.61-1.41,13.18-1.88,19.79-.27,3.67-2,5.83-5.54,5.27-3.84-.6-3.58-3.84-2.78-6.65,7.18-25.39,6-51.46,6.22-77.41a32.72,32.72,0,0,0-.12-11.88c-1.39-6.8.33-13.54.85-20.27a146.61,146.61,0,0,1,3.34-22.22c1.71-7.27,3.47-14.53,7.32-21.45-3.47.13-6.32,1.77-9.43,1.51a9.94,9.94,0,0,1-5.23-1.27,105.39,105.39,0,0,1-17.45-3.07c-9.69-2.73-19.64-2.13-30.54-2.27,5.83-4.25,11.62-4.17,17.4-4.13a83.24,83.24,0,0,1,14.8,2.26c10.36,2.44,20.35,2.06,29.58-4,1.29-.85,2.81-1.3,4.14-2.36-14.41,11.32-29.82,6.72-45.17,3.11l-12.18-3.58c9.79-.76,19.38,1.55,29.06.1-.34-1.61-2.41-1.08-3.15-2.82,2.94-1.17,6.38.57,9.5-1.27a20.13,20.13,0,0,0-12.25-5.7c-22-2.41-42-11.82-63.1-17.55a9.07,9.07,0,0,1-5.29-2.09c1.36,1.34,3.32,1.63,4,3.42,12.69,8.8,27.52,11.36,42.13,14.67,5.27,1.2,10.84,1.95,15.1,6-15.25-1.9-31,.87-45.68-5.26-2.49.49-4.32-1.43-6.58-1.81a2.14,2.14,0,0,1-1.5-1.35l-12.34-10.79c-.61,2.44,2,5.23,2.08,8.44-1.26,1.24-2.15-1-3.72.09l3.3,8.73-4.15-1.73c.19,3.81,3.2,6.47,3.83,10.41l-5.55-2.1c.73,4,3.94,6.33,4.85,9.6-2,2.09-3.57-1.31-5.57,0,1.52,3.86,5.08,6.3,7.26,9.95-3.23.26-5.52-2.93-9-1.59l2.69,4.58c-1.68,1.05-2.87-1.28-5-.28l10.29,12.07c-4.2-.47-7-3.48-11.77-4.74,3.75,6.09,8.86,9.32,13.11,14.54l-8.66-2.73-.44.57,11.53,10.43c-5,.9-8.39-3.11-12.77-2.05l8.94,8.48-.42.94-12.51-4.75c2.86,3.25,4.95,5.61,7.38,8.36-4.08.89-6-3.6-9.82-2.46L238,470.75c-4.26-.27-6.45-4.11-10.46-3.48.47,2.81,3.67,4,4.1,7.46-3.94-1.75-5.57-6.13-10.15-7,.6,4.67,4.73,7.07,5.7,11.77l-9.35-5.86c-.42,3.22,3.69,5.32,1.64,8-1.22,1.58-2.6-1.7-4.64-1.4.4,3.93,4.61,6.46,4.2,11.08l-5.87-4-.69.47a75.7,75.7,0,0,1,4,6.92c.74,1.64,3.65,3.62-.16,5.38-1,.45-.38,1.35.45,1.93a12.18,12.18,0,0,1,3.89,4.92c-4-.44-6.65-4-10.9-3.67,2.25,2.64,5.38,4.22,6.3,7.52-2.31,1.7-4-1.47-6.28-.17a126.5,126.5,0,0,1,12.67,13.34c-4.67.76-7.44-3.5-11.72-3.12l9.53,10.47c-5.8-1.12-9-5.14-14.15-6.53,3.14,4.78,7.69,7.62,9.23,13l-12.28-7.14-.66.53,6.42,9.09c-3.35,1.38-5.1-3.17-8.12-1.32l7.26,9.5c-3,.33-4.8-2.47-7.67-1.11l8.87,9.59c-7.59-1.13-14.5-3.32-19.53-9.31a9.22,9.22,0,0,1-1.83-9.35c6-16.22,7.72-33.56,13.13-50,4.42-13.4,9.71-26.43,15.11-39.43a80.86,80.86,0,0,0,4.42-16c1.41-7.57,4.66-14.5,6.28-22,1.25-5.78,4-11.38,5.3-17.35,1.33-6.19,1.67-12.56,3.61-18.64.42-1.32,0-3.09-1.42-3.6-2.09-.75-1.51,1.35-1.73,2.27C222,417.56,205,459.7,192.36,503.18c-3.36,11.55-6.33,23.2-8.82,35-.46,2.22-.61,4.1-3.66,3.83-2.72-.25-3.54-1.91-3.71-4.18-.41-5.16,1.58-9.9,2.83-14.73,7.36-28.36,17.95-55.68,27-83.51,7.53-23.19,15.59-46.25,18.84-70.59,1.12-8.41,0-15.74-6-22.78-9.86-11.54-16.46-25.42-24.6-38.21-2-3.09-3.61-6.48-6-9.18-12.8-14.36-13.1-30.74-8.49-48.18,2.4-9.09,5.08-18.13,6.28-27.5a45.32,45.32,0,0,0-.48-16.08c-2.41-10.58,2.69-18.52,9.91-25.47,1.48-1.43,3.21-2.61,4.82-3.89-13.06-9.63-26.79-14.56-42.63-7.93-.32.14-.7.12-1,.26-21,9.05-38.34,2.17-54.79-11.61C69.84,131.62,36.53,106.54,3.73,80.82.62,78.38-1.22,76.09.94,72.08c2.39-4.46,4.78-5.22,9.82-2.38,14.13,8,28.16,16.07,42.31,24C68,102,83,110.2,97.92,118.42c1.77,1,3.43,2.43,5.81,2-.34-1.88-2-2.26-3.2-3.1Q63.08,90.55,25.59,63.81c-3.25-2.33-6.18-5.1-9.25-7.68s-3.6-5.76-1.07-9.17,5.57-3.1,8.77-1.25Q47.37,59.15,70.65,72.66c14.16,8.25,28.25,16.59,42.4,24.86,1.57.92,3.09,2.19,5.79,2-1.9-3-4.38-4.54-6.65-6.21Q73.9,65.08,35.51,37c-1.12-.83-2.28-1.61-3.36-2.49-2.74-2.21-5-4.59-2.46-8.36s5.66-2.78,8.72-1C51,32.6,63.49,40.22,76.11,47.65q24.08,14.19,48.31,28.14c2.32,1.33,4.62,3.13,8.15,2.76-1.51-3.16-4.25-4.61-6.58-6.38q-39.58-30-79.23-60C41.75,8.4,41.38,5.83,44.82,2c2.56-2.87,5-2.16,7.88-.59q42.39,23.25,84.87,46.37c10.71,5.81,21.64,11.23,32.36,17.05,13.25,7.2,22.45,17.5,24.4,33.13.3,2.4,1.11,4.75,1.55,7.14,2.7,14.55,9.4,26.05,23.57,32.31,4.41,1.95,8.41,4.82,12.74,7.35,2.12-5.47,1.87-11.44,5.78-15.86,1.3-.2,1.54.77,1.84,1.65,4.39.92,4.71,1.4,2.49,5.63-3.55,6.78-6.93,13.62-9.16,21-1.42,4.59-2.89,9.17-4.1,13.82,1.1-4.16,2.56-8.21,3.65-12.38,3.12-10.62,8.59-20.15,13.79-29.81,2-3.63,4.17-5.33,8.8-3.75s9.42,2.49,14.12,3.8c.8.22,1.79.5,1.84,1.55s-.94,1.39-1.72,1.69a23.11,23.11,0,0,1-11.86.93c-2.23-.3-4.46-1-6.78.58,8,6.28-2.59,6.65-3.18,10.6.67,2.13,5.37,1.37,4.46,4.4-.7,2.35-4.27,1.72-6.33,3,.6,1.49,2,1.46,3,2,1.43.83,3.92,1.17,3.51,3.19s-2.86,1.36-4.5,1.71c.93,1.14,3.35,1.9,2.41,3.53-1.44,2.48-4.31,1.59-6.65,1.58-.66-.34-.26,1-.2.31,0-.13.13,0,.4,0,1.44.34,2.77.94,2.79,2.61s-1.56,2.1-2.8,2.71-2.71.64-3.83,1.72c1,2,4.71,1.19,4.46,4.24-.11,1.34-1.33,1.57-2.56,1.26,11.16,1.64,22.33,4.28,33.07-1.52,5-.86,5-.86,4.08,3,1.38-2.79,1.49-6,2.89-8.81,4.17-7.89,4.39-16.94,7.39-25.17,4.41-3.35,1.63-6.53-.24-9.73-8.92-12.62-20-16.38-34.55-11.62a17.85,17.85,0,0,1-8.23.71C245.47,122.9,244.84,122.45,245.16,121.44Z"/><path class="cls-2" d="M304.77,423.2c-4.14-3-9.07-2.66-13.76-3.34-2.06-.3-4.11-.69-7-1.17a30.76,30.76,0,0,1,25.23-.23,24.12,24.12,0,0,0,15.82,1.11c-13.33-2-25.43-9.55-39.58-7.82,9.12-2.13,18-3.58,26.93.36,6.52,2.86,13.68,2.06,20.64,1.54,1.93-1.54,4.39-.43,6.45-1.3.86-.1,1.72-.25,2.58-.38,1.1-.16,2.23.08,2.56,1.23.23.83-.41,1.65-1,2.29a7.5,7.5,0,0,1-4.66,2.6c3.27.35,3.21,2.33,2.88,4.69-.84,6.06-3.59,11.57-5,17.48-.75,3.26-1.56,6.45-1.26,9.76.72,8-2.31,15.84-.47,23.82a2.69,2.69,0,0,1-1.08,2.78c-3.53,15.38-1.89,31-2.4,46.56-.24,7.12-3,13.76-3.5,20.78a56,56,0,0,0-.1,7.77c.85,13.6-13.24,21.23-23.38,21.71,2-3.56,5.73-4.52,8.53-6.67,1.35-2.29-2.86-.87-1.92-2.89a14.87,14.87,0,0,0,5.62-3.54c-1.23-1.76-3-.24-4.29-1,.89-1.87,3-2.66,3.42-4.69-1.79-1.23-3.19.93-5.73.38l6.66-7.79-3.9-.58,4.79-7.22-5.71,1.1,4.61-6.83c-1.47-1.25-2.85.37-4.44-.46.56-.67,1.45-1.24,1.51-1.9.12-1.17,5.81-2.09.22-3.68-.87-.25.54-1.18,1-1.62,2-2,4.11-3.78,6-5.84.45-.49,4.86-2.46-.42-2.7-1.19-.06.26-1.28.61-1.81,1.12-1.74,2.4-3.37,3.62-5.05-1.81-1.45-3.4.79-5.26-.13.63-3.54,4.29-5.3,5.23-8.5-.94-1.33-2.47.74-3.26-.85,1.07-1.88,2.15-3.78,3.23-5.66-1.37-1-2.52.94-3.73-.51,4.7-5.87,0-14,5-19.75-1.7-1.7-2.71.88-4,.1-1-1.69,5.23-5.29-1.68-5.56.72-2.3,3.21-3.79,3.5-6.69-2.51-.63-3.48,3-5.91,2.2-1.36.4-3,.62-2.75-1.34s2.11-1.44,3.52-1a14.37,14.37,0,0,0,5.68-6.62c-1.31-1.25-2.4,1.17-4,0l4.62-7.23c-1.74-1.66-3.29,1.2-5-.13l3.89-4.25-5-1.61,5.14-4.16c-.55-1.65-2.3-.6-3.05-1.77,3.46-3.1,8.91-4.52,9.35-10.81-6.05.54-12-.8-18-1C309.52,425.7,306.88,425.38,304.77,423.2Z"/><path class="cls-2" d="M278.42,572.12c-6.78-.33-13.3-2-21-3.8,8.25-1.75,15.51-1.34,22.89-2.77L273.21,563l11.73-3-9.81-3c1-2.26,3.35-1.16,5.09-2.82l-12.07-4.57-.2-1.41c7.93.86,14.72-2.2,21.9-5.39-5.88-1-11.57-1.83-17.21-3a38.31,38.31,0,0,1-16.69-8c10.28,2.52,19,5.56,29.58,5.37-2.4-1.77-3.91-2.58-5-3.78s.26-1.31,1.08-1.5c5-1.73,10-2.21,15,.1,3.37.44,7,.77,2.18,5l3.53,2c-1,2.83-4,2.29-5.55,4,1.09,1.74,6.92,2.11,1.73,5.76-2,1.39,4,1.27.76,3-1.49.81-3.31,1-4.95,1.57-.65.23-.85.66-.6,1.57.89,3.33.8,3.35-2,5.16,5.85,3.52,5.85,3.52,1,6.61.62,1.47,2.07.82,3.1,1.21l3.26,1.19c-2,1.94-4,3.13-6.55,2.94C287.82,574.65,283.12,573.74,278.42,572.12Z"/><path class="cls-3" d="M315.35,473.26c1.3,2.89,1.21,3-4.2,5.41l5.1.26c-.08,3.05-3.34,3.09-4.6,4.93,1.08,1.66,3.11.58,4.31,1.87-.76,2.71-4.2,2-5.58,4,1.47,1.52,5,.64,5,3.38-.06,1.91-2.76,2.69-4.48,3.09-7.74,1.8-26.12,1.4-32.54-3.9,4.36,0,7.82.15,11.26,0a83.54,83.54,0,0,0,10.84-1.41c-7.34-.79-14.68-1.35-21.67-3.86,1.72-2.86,4.25-1,6.43-1.09,4.05-.91.81-1.53-.14-1.81-4.46-1.33-8.8-2.85-13-6.4l17,2.25c4.71.2,9.44,0,15.33.84-4.85-.91-8.86,0-12.34-1.84a45.43,45.43,0,0,1-17.39-6.06c6.6-1.19,12.2,0,17.76,1a26.4,26.4,0,0,0,9.24.53C306,471.44,310.63,471.79,315.35,473.26Z"/><path class="cls-4" d="M254.91,384.15l1.19.29c2.43,1.18,4.94,2.23,6.74,4.37,5.34,4.06,10.45,8.45,16.46,11.85l-5.4-.29-.61.81,4.89,3.1c-5.39.22-9.34-3.65-14.81-2.8a60,60,0,0,1,12.4,10.39l-13-4.44c3.68,4.25,8.86,6.71,12.41,12-4.9-1-8.58-3.83-13.06-3.43-3.59.79-4.88-2.16-6.75-4.17-2.17-1-3.33-3-4.65-4.77-2.28-3.12-1.44-4.4,2.82-3.41a44.52,44.52,0,0,1-2.78-4.84c-.44-1.08-1.51-2.86,1.2-2.83.83,0,2.3-.31,1.38-1.24-3.43-3.45-2.23-7.7-2.56-11.87A5.5,5.5,0,0,1,254.91,384.15Z"/><path class="cls-3" d="M271.73,503.39l9.47.66c-4.67-3-9.69-5.27-13.72-9.47,15.25,4.82,30.77,5.78,46.76,3.64.21,2.41-4.89,4.66.36,6.21,1.41.42,0,2.13-.87,2.86a12.69,12.69,0,0,1-7.22,2.67,75.74,75.74,0,0,1-33.68-5.29C272.42,504.51,272.17,503.91,271.73,503.39Z"/><path class="cls-3" d="M296.32,459.05c-5.73-.78-11.54-1-17.95-2.86l14.34-5.06-12.92-2.82c7.23-2.46,13.36-3.9,19.85-3,2.34.17,5-.74,6.6,1.94,2.84.31,5,1.93,7.65,3.27-2,2.75-4.94,1.71-7.5,2.71,2.52,2.66,6.27,2.51,8.69,4.8-.77,1.73-2.36,1.75-3.81,2C306.08,462.91,301.2,461.07,296.32,459.05Z"/><path class="cls-5" d="M306.24,447.22c-2-1.2-4.72-.22-6.6-1.94-5.74-3.88-12.27-3.7-19.78-3.37,3.79-3.19,7.59-4,12.47-5.39l-11-2.18c11.48-6.46,26.74-4.38,32.63,3.08-1.92,1.39-4.27,1.09-6.66,1.75,1.75,2.38,5.14,2.79,6.37,5.47C311.52,446.84,308.06,444.58,306.24,447.22Z"/><path class="cls-6" d="M311,510.79c-1.64,2.83-4.08,3.65-6.12,5.4l5,1.9c-8,6-38.7,4.39-47.77-2.68,9.27-.94,18,3.14,27.79,1-4.38-2.49-9.07-1.59-12.67-5.4C288.87,511.24,299.75,511.92,311,510.79Z"/><path class="cls-7" d="M259.87,439.18l9.38,7.82c-8,.38-15.31-2-18.32-6.18-1-1.38-3.51-2.94-.19-4.91,1.72-1-.45-1.86-.86-2.77-.55-1.22-2.13-2.41-1.26-3.71,1.07-1.63,2.83-.44,4.27-.13,7,1.53,13.16,5.62,18.48,12.46C267.42,441.13,264.1,439.19,259.87,439.18Z"/><path class="cls-7" d="M255.34,411.8c2.85.42,4.09,3.46,6.75,4.17,3.65,2.89,8.2,4.76,11,9.87-4.3-1.3-7.72-3-12.28-3.38L270.4,431l-.42.89c-3.77-.87-7.61-1.53-11.31-2.65-5.71-1.74-6.53-3.54-5.05-9.42.09-.33-.35-.86-.65-1.2C249.68,414.88,249.77,412.39,255.34,411.8Z"/><path class="cls-5" d="M282.62,530.29a42.89,42.89,0,0,1-19.21-6.12c3.27.18,6.54.45,9.81.5,7.65.12,15.3.57,22.93-.7a40.09,40.09,0,0,1,8.34,0c1.17,0,2.68.29,2.93,1.65.28,1.52-1.33,1.81-2.34,2.36a16,16,0,0,1-7.42,2.21A27.27,27.27,0,0,1,282.62,530.29Z"/><path class="cls-5" d="M304.77,423.2c2.58.56,5.37.38,7.58,2.2,4.21,2.2,8.43,4.38,14.64,5.09-4.72,3-8.56,2.45-12.28,1.69-10.39-2.12-20.52-5.52-31.65-5.66C287.76,423.58,289.07,423.39,304.77,423.2Z"/><path class="cls-8" d="M278.42,572.12l14.09,0c-.55.77-1,1.54.45,1.78,1.82.32,3.81.18,5.41,2.53-11.6,7.37-22.63,2.16-33.71-1,4.62-.47,9.25-.77,13.83-1.45C281.53,573.47,278.81,572.72,278.42,572.12Z"/><path class="cls-2" d="M293.18,465.31c-4.66-.88-9.3-1.88-13.6-4.52H298.4a29.57,29.57,0,0,1,11.85.38c4.68,2.74,2,6.9,2,10.54a3.34,3.34,0,0,1-2.12.72c-4.42,1.45-5.69-2.36-7.87-4.67C299.13,467.35,295.78,467.71,293.18,465.31Z"/><path class="cls-5" d="M224.14,564.89c-4.25-3-8.33-6.17-11-12.2l6.75,3.78c3.57,1,7,2.35,9.61,5.07,6.77,3.53,14.23,4.74,21.94,6.49-2,1.6-4.18,1.67-6.21,2.05C237.5,571.07,230,571.17,224.14,564.89Z"/><path class="cls-9" d="M238.93,571.91c4.53,1.56,9.3,2,14.4,2.68-10.2,6.7-29.15,1.08-36.46-10.56,2.16-.4,3.44,1.53,5.24,1.71A130.74,130.74,0,0,1,238.93,571.91Z"/><path class="cls-1" d="M304.83,401.4c8.05,1.31,16.27.92,24.29,2.88,5.63,1.38,10.67-1.14,15-4.51,2.82-2.19,5.75-2.55,9.66-2.45-11.06,8.18-22.64,11.83-35.7,9.26-5.6-1.1-11.08-2.78-16.62-4.19C302.58,402,303.93,402.47,304.83,401.4Z"/><path class="cls-9" d="M262.75,474.46c-1.21,2-3.51.84-5.52,2l7.81,5.3c-7.05,0-12.94.28-17.53-4.06-1.07-1-6-3.26.33-5.47C253.11,470.41,257.3,470,262.75,474.46Z"/><path class="cls-10" d="M235.79,548.84c2.16,1.1,4.28,2.3,6.5,3.26,2.05.89,4.21,1.53,6.46,2.33-9.68,4.75-26.48-3.14-28.32-13.32l6.74,3.81A13.94,13.94,0,0,1,235.79,548.84Z"/><path class="cls-11" d="M228.49,543.62c-2.76-2.53-5.51-5.06-7-10.21,9.27,6,17.9,10.6,27.92,13.1-4.92,2.61-5.19,2.63-13.66,1A8.65,8.65,0,0,1,228.49,543.62Z"/><path class="cls-8" d="M221,555.33c-1.34-2.13-3.33-4-3.16-7.37a149.16,149.16,0,0,0,22.58,10.93c-3.48,2.48-6.72,1.35-9.77,1.43C226.82,559.9,223.26,558.89,221,555.33Z"/><path class="cls-2" d="M293.85,471.55c-7.15-.1-13.73-2.57-21.26-4.87,7.14-1.69,13.39-.79,19.63-.34,1.7.23,3.54-.36,5.09.82,1.64.75,2.53,2.14,1.61,3.66C297.71,472.83,295.63,471.83,293.85,471.55Z"/><path class="cls-11" d="M237.78,485c5.38,2.91,10.95,4,15.42,7.39,1.2.91,2.6,1.72,3,3.38C248.79,497.58,239.14,492.28,237.78,485Z"/><path class="cls-10" d="M230.51,512.29c-1-1.79-2.4-3.44-2.19-6.28l18.34,9.23c-3.44,2.39-6.63,1.27-9.71,1.06C233.88,516.46,231.54,515.43,230.51,512.29Z"/><path class="cls-12" d="M245.51,539.14c-11.14,1.94-17.71-2.15-18.83-10.85C232.22,532.57,238.49,535.31,245.51,539.14Z"/><path class="cls-12" d="M247.73,507.08c-9.4,4.32-15.81.6-16-9.24C236.33,502.24,241.47,504.57,247.73,507.08Z"/><path class="cls-13" d="M235.84,517.4l7.36,4.15c-7.6,2.83-14.15.11-15.6-5.95-.3-1.23-1.27-3.58,1.84-2.24A16.68,16.68,0,0,1,235.84,517.4Z"/><path class="cls-12" d="M228.44,520.84l12.63,7.71C233.53,532.1,228.52,529.13,228.44,520.84Z"/><path class="cls-14" d="M241.23,500.84a5.48,5.48,0,0,1-5.21-2.77c-.79-1.44-1.92-3.43-.62-4.8s2.61.63,3.86,1.22a16.69,16.69,0,0,1,3.49,2.2c1,.81,3.23,1,2.61,2.63C244.82,500.77,242.82,500.84,241.23,500.84Z"/><path class="cls-3" d="M293.85,471.55c1.5-.43,3.59.69,4.45-1.35.62-1.47-1.08-1.82-1.82-2.62,2-2.06,4.8.07,6.95-1.25.89.15,2.1.6,1.95,1.38-.85,4.68,2.59,3.54,5,3.84-3.36,2.5-7,2.17-10.74,1.08C297.73,472.09,295.59,472.86,293.85,471.55Z"/><path class="cls-15" d="M261.81,465.53a7.28,7.28,0,0,1-6.73,1.44c-2.49-.69-5-2.55-4.18-4.92.77-2.13,3.22.11,4.69.74C257.56,463.62,260,463.52,261.81,465.53Z"/><path class="cls-3" d="M312.19,471.29c-2.9-2.75,1.29-6.32-1.05-9.13.65-.82,1.45-.68,2.27-.36,1.79.27,3.7,0,5.27,1.17-1,.32-2.59-.47-2.69,1.25-.06,1,1.18.86,1.92,1.07-3.72.47-2,5-4.63,6.25A.74.74,0,0,1,312.19,471.29Z"/><path class="cls-1" d="M238.93,571.91a48.73,48.73,0,0,1-16.82-6.17l2-.85a43,43,0,0,0,21.05,5.19C243.52,572.11,240.58,569.79,238.93,571.91Z"/><path class="cls-12" d="M253,484.38c-6.6,2.25-9.88.26-9.87-6.12Z"/><path class="cls-1" d="M282.62,530.29l15-.08c-.49.56-1.28.95-1.05,1.9l-15-.1Z"/><path class="cls-16" d="M262.88,456.2c-5.92,3-7.66,2.39-10.32-4Z"/><path class="cls-1" d="M312.19,471.29l1.09.25,2.07,1.72c-4.64-.61-9.1,1-13.67,1.19l-2.06-1.82c3.54-.79,7.32.82,10.74-1.08Z"/><path class="cls-1" d="M313.41,461.8l-2.27.36c-4.11-1.72-8.53-.63-12.74-1.37l-2.08-1.74,14.95,1Z"/><path class="cls-1" d="M221,555.33a37.31,37.31,0,0,0,9.65,5l-1.22,1.22a24.34,24.34,0,0,1-9.61-5.07Z"/><path class="cls-1" d="M292.07,479c4-.36,7.72,1.49,11.7,1.23-4.92.5-9.82,1.55-14.69-.23Z"/><path class="cls-17" d="M245.16,121.44l1.13,1.11c-1.78,3.4-3.76,6.62-7.39,8.37l-.93-2.06A15.91,15.91,0,0,1,245.16,121.44Z"/><path class="cls-1" d="M228.49,543.62l7.29,3.87v1.35a22.22,22.22,0,0,1-8.62-3.92Z"/><path class="cls-1" d="M303.43,466.33c-2.1,1.64-4.61.94-6.95,1.25-1.41-.45-3.12.14-4.26-1.24l1-1Z"/><path class="cls-1" d="M311.31,563.88c-.09,1.45,5.26-.72,1.92,2.89-2.43-3-5.07,2.21-7.56-.62C307.06,564.6,309.26,564.39,311.31,563.88Z"/><path class="cls-1" d="M251.44,371.91c-2.68-.82-4.48-2.92-7.62-5.12,3.92.94,6.58,1.93,8.89,3.79Z"/><path class="cls-18" d="M285.18,485.93c-2,1.05-4.5-.55-6.43,1.09l-3.67-1.09A19.65,19.65,0,0,1,285.18,485.93Z"/><path class="cls-1" d="M235.84,517.4a16.68,16.68,0,0,1-6.4-4l1.07-1.07,6.44,4Z"/><path class="cls-1" d="M337.38,411.87l2.17.95c-2,1.2-4.24,1.08-6.46.83l-1-1.79Z"/><path class="cls-1" d="M262.84,388.81l-6.74-4.37c2.81-.29,4.84,1.31,6.89,2.87Z"/><path class="cls-1" d="M231.4,351.05c-6.4-5.3-10.75-12.21-15-19.15-5.63-9.14-11.06-18.4-18.24-28.29,11.33,1.7,21.84,5.09,31.32-1.94.21-.59.73-1.08.6-1.78-.89.33-2,0-2.74.72-4.28,1.48-8.53,3.19-13.18,2.83-1.15-.09-2.82-.44-3.26-1.22-.86-1.54,1.21-2.08,2.49-3.48-2,0-3.48-.1-4.91,0-12,1-20.61-5-23.92-16.54-3-10.48-2.44-21-.5-31.6,2.06-11.22,4.64-22.39,5.15-33.92,2.72,5.41,2.09,11.11,1.13,16.67-1.57,9.1-3.73,18.09-5.31,27.19-1.3,7.49-.9,15,2.25,22.06,4,9.1,12.7,14,23.48,12.49-8.38-2.38-15.4-5.1-18.52-13.18,7.8,1.24,15.5,3,23.52,1.37-7.31-1.88-14.75-3.36-21.35-7.46,6,0,12,.17,18.24-1-10.14-2.83-19.88-6.22-24.88-16.56,5.73,3.36,10.64,8.57,19.32,7.47-4.09-3-7.38-5.42-10.37-9.28,5.51.57,10.07,3.51,15.63,1.85-9.43-6.14-17.45-12.83-18.61-25.87,3.38,4.83,5.34,9.33,9.44,12.66-4.24-12.09-4.64-25.08-12.43-35.66-2.71-3.67-2.94-8.13-1-12.47.94-.25,1.41.32,1.81,1,2.33,10.82,7.73,20,15.72,29.16-1.12-6.39-3.24-11.52-.85-16.78a10.87,10.87,0,0,0,.25-1.48c-.2.13-.12.66-.31.78-2.63,1.73-2.65,1.71-3-2.67-.4,1.39.12,4.2-2.13,3.42-4.5-1.57-4.1-5.91-4.22-9.59,0,.29,0,.74,0,1.19-.11,1.52.44,3.8-1.29,4.15-2.18.44-2.5-1.85-2.88-3.55-.41-4.28-.65-8.52,2.13-12.26.41-.55.48-1,.14-.42-.05.1-.63-.06-1-.06-.16-.12-.32-.24-.47-.37,9.3-14.14,21.6-16.31,37.14-11.81,11.41,3.31,22.87,4.16,34.39,5.59,7.74,1,15.63,1.14,23.24,2.69,28.1,5.73,27.35,31.15,14.38,45.55-1,.26-1.38-.34-1.61-1.14.2-3.78,2.7-6.73,3.66-10.27,2.26-8.36,2.46-10.18.58-19.39-.15-.68-.6.45,0,0,.15-.11.24,0,.31.38,2.19,12.61-1.6,23.35-10.11,32.65-.56.62-2.13,1.1-.73,2.39.54.43,1,.89.6,1.63-15,10.18-31.43,13.34-49.17,10.31-.15-1.42.95-1.64,1.92-2,11.89,0,23.64-1,34.08-5.2-6.16.87-12.92.24-18.8-3.86-2.61-1.83-1.16.2-1.44,1-.71,2.12-2.45,1.65-3.9,1.13a20.91,20.91,0,0,1-9.37-6.1c.26,1.46,2.25,3.39.42,4.57-2.94,1.91-4.95-1.21-7.34-2.25-.26-.65-.55.67.07.33.06,0,.13.13.27.44a4.22,4.22,0,0,1,.39,1.51,2.16,2.16,0,0,1-1.31,1.73c-4.85.27-7.14-3.58-10.14-6.29a48.21,48.21,0,0,1-4.36-5.11c-.45-.53-.74.43-.29-.11.05-.06.19,0,.4.32a53.28,53.28,0,0,0,4,4.75c1.26,1.3,3.36,2.75,1.57,4.74-1.43,1.6-3.29.28-4.64-.73-3.31-2.48-6.91-4.62-9.68-7.76-.84-.45-.37-2.17-1.71-2-3.36.43-.74,2.74-1.21,4.09.61,1.42,2,2.57,1.65,4.34-1.52-.06-4-1-2.11,2.18,4,5.59,10.15,8.65,16.37,13.23-10.8.7-18.36-3.78-25.12-10.37,4.52,11.06,13.23,15.48,24.76,16.34-3,3.11-6.78,2.42-10.23,3.05,1.16,3,4.61,2,6.77,4.18-3.7,2.56-8,3-12.05,4.19,6.7,3.15,13.29,1,24.2-8.45-3.14,9.92-10.94,13.1-18.29,17,4.24.91,4.94.88,9-.92,2.62-1.17,5.17-2.52,8.5-4.16-1.72,10.75-9.86,12.84-18.35,15.69,13.15,2,19.59-5,24.29-15,.32,3.39.4,3.43-.51,5.36-.42.89-1.68,1.78-.46,2.61s2.3.08,3.13-1c2.29-3,4.6-6,7.36-9.53.66,8.88-4.5,15.43-7.24,24.21,10.11-10.47,16-20.7,11.37-34.43,3.45,2,3.45,2,5.7,9,1.49-2.93,1.49-2.93,1.68-7.06,3.17,4.45,3.6,9.35,5.06,14,2.42-1.16,1.05-4.07,2.86-5.95,2.15,3.84,1.91,8,3.46,12,.94-2.56,1.87-5.12,3.13-8.56,1.11,5,2,9,3,13.65,2.56-3.59,1.92-7.43,3.25-11.17,8.3,10.2,9.87,21.67,7.81,35.39,5.81-9,4.86-17.59,4.27-26.11-.3-1-.93-2.22,1.06-2.09,2.51,6.47,2.11,13.3,2.4,21.4,4.14-7.39,4.47-14,3.44-20.95,4.08,8.88,3.43,18.42,3.84,29.08,2.93-7,2-13.31,3.17-19.51,7.29,12.74,6.89,34.42-1,44.37-.88-2.07.89-4.2-.81-6.17-6.06,17-18.61,25.37-36,27.22a3.24,3.24,0,0,1-1.82.85c-1.12.08-2.24.19-2.29.18a8.36,8.36,0,0,1,5.15.81l5.45.34c-12.53,4.44-24.78,3.44-36.85-1.48-.11-1,.56-1.37,1.33-1.65,4-.58,7.4,1.82,11.86,2-2.46-.33-4.83-.55-4.74-2.81.08-1.8,2.41-1.62,3.92-1.7,3.83-.19,7.68-.08,11.52-.08,20,0,30.32-7.51,36.31-25.21-6.53,9.64-14.86,19.12-28.83,21.37a2.75,2.75,0,0,1-2.43-1.62c.14-1.69,1.46-2.29,2.75-2.79a33.71,33.71,0,0,0,20.47-21.4c-6.1,10.81-16.15,16.54-27.59,20.53-2.38.82-5.73.37-6.63,3.85.42,1,1.77,1.81.4,3-3,1.28-6.16.79-9.26.6-1.38-.08-4.9-3.71-7.56-6.51-.7-.73-2.81-.27-4.2-.76s-3.49-.88-3.49-2.63c0-2,2.17-1.85,3.59-2.12a244.68,244.68,0,0,0,24.22-6.29c11.12-3.26,15.43-12.11,19.27-21.6-5.14,12.66-21.66,23.32-35.88,23.12-1.05-.27-2-.64-2.26-1.89,1.08-2.21,3.34-2.31,5.29-2.91a50.72,50.72,0,0,0,12.06-4.95,25.27,25.27,0,0,0,11.92-17.75c-1.27,4.91-5.5,9.12-10.62,12.6-1,.67-2.33,1.12-3.42.18a1.62,1.62,0,0,1,.12-2.35c7.16-7.58,8.05-17.54,10.39-27a4.05,4.05,0,0,0,.12-.5c-.81,2.21-1.29,4.52-1.91,6.79a31.62,31.62,0,0,1-3.35,7.08c-1.11,1.94-2,4.13-4.44,4.89a3,3,0,0,1-3-2.1c-.76-2.43,1.2-4.44,1.38-6.74-1.42,3.93-3,7.49-7.26,9.1A2.23,2.23,0,0,1,252,309.3c0-3.21,2.93-4.58,4.34-6.91a37.54,37.54,0,0,0,3.22-7.66c-5.78,10.2-14.49,15.57-25.22,18.06a13.19,13.19,0,0,1-4.14.48c-1.06-.09-2.25-.21-2.7-1.26s.55-1.91,1.33-2.54c2.56-2.06,5.4-3.8,7.28-6.81-8.22,5-16.73,7.85-26.08,6.12.68.56,2,.53,3,1.21a9.83,9.83,0,0,1,2.85,3.68,32.73,32.73,0,0,0,2.59,3.28c1.06,1.41-.24,2.61-.19,3.75.07,2,.49,4.41,1.9,5.75,3,2.82,5.65,6.62,6.6,9.77,1.65,5.52,5.8,7.67,9.21,11,2.13,2.1.67,3.34-1.64,3.93A4.85,4.85,0,0,1,231.4,351.05Z"/><path class="cls-1" d="M137.23,58.74l11,8.57c10.18,7.9,12.24,18.27,9.16,30.2-.43,1.67-.89,3.34-1.33,5a1.64,1.64,0,0,0-.4,1.42c.21.72-.43,1.34-.11,2a5.53,5.53,0,0,1,1.54-1.31c2-3.06,3.95-6.16,6-9.16.83-1.18,1.48-3.3,3.36-2.57,1.71.67,1.24,2.73,1.19,4.24-.08,2.15-.4,4.3-.66,6.83,3.17-1,3.31-4.24,6.4-6.62-1.28,13.66-8.17,24.39-11.65,36.27,9.29-8.59,14.06-19.83,18.44-31.44,2.23,9.29.13,17.88-4.13,26.18S165.73,143.46,160,151.62c5.67-.54,9.17-3.23,12.43-6.34,1.62-1.54,2.88-3.79,5.57-3.14s2,3.55,2.74,5.6c2.56-1.08,3.22-3.44,4.65-5.09,3-3.53,5.63-3.15,7.25,1.11a4.47,4.47,0,0,1,.25,1c.61,4.25.71,9.26,6.44,3.05,1.55-1.68,3.57-1,4.91.86s2.75,4,4.18,6c1.29,1.78,2.52,2.83,5.21,1.91,4-1.38,7.78,1.06,11.62,2a2.07,2.07,0,0,1,1.19.94c1.13,2.21-5.43,13.58-8,13.93a9.31,9.31,0,0,1-6.43-1.4c-5.64-3.45-11.56-6.44-17.17-9.93-9.71-6-20-6.59-30.67-3.61-3.52,1-7.13,1.73-10.52,3.05-15,5.86-28.36,2.48-40.59-7.17Q83.3,130.92,52.52,108.77c-14-10-28.1-20-42.16-30-1-.71-2-1.33-3-2.1-1.46-1.18-3.56-2.52-2.23-4.58s3.18,0,4.48.7q37,21,74,42.19c5.74,3.28,11.64,6.3,17.38,9.58,4,2.31,6.92,1.87,9.5-2.41s2.32-7.49-1.76-10.32c-5.87-4.07-11.73-8.16-17.67-12.12C68.31,84.51,45.5,69.41,22.82,54.12,21.13,53,17.16,52,18.88,49.28c1.54-2.45,4.32.27,6.18,1.34q44.07,25.55,88,51.3c5.81,3.4,8,2.89,11.41-2.74,2.68-4.38,1.37-7.51-2.54-10.17-14-9.52-27.86-19.14-41.86-28.6-8.36-5.65-16.88-11.07-25.32-16.59-6.66-2.06-11.26-7.46-17.24-10.63-1.76-1.55-4.16-2.49-4.9-5,1.73-3.83,3.74-.74,5.17.07,10.89,6.2,21.67,12.6,32.48,19,18.93,11.13,37.81,22.32,56.78,33.37,6.67,3.89,9.65,2.81,12.73-4,2.14-4.73-.4-7.66-3.86-10.16-12.16-8.76-24.29-17.57-36.57-26.17C84,29.42,68,19.45,51.82,9.79c-2-1.17-6.29-2.19-4.89-4.83,1.66-3.11,5-.34,7.27.93C74.63,17.2,95,28.68,115.42,39.92c15.27,8.38,30.69,16.47,46,24.7,2.31,1.24,4.56,2.56,6.84,3.83,12.51,7,20.31,17.22,22.3,31.65.5,3.61,1.38,7.19,2.24,10.74,2.91,12,8.68,21.92,20.15,27.83,4.94,2.56,9.64,5.6,14.37,8.55,1.3.8,4.08,1.05,2.93,3.44-1.31,2.72-3,.14-4.23-.48-5.13-2.57-10.09-5.49-15.19-8.12-15-7.77-22.56-20.16-23.18-37a77.36,77.36,0,0,0-1.08-9.35c-1.15-7.22-4.38-13-10.89-17C163.53,71.32,151.3,64,138.62,57.39c-4-.49-6.63-3.77-9.82-4.87C131.32,54.47,135.27,55.25,137.23,58.74Z"/><path class="cls-1" d="M362.55,257.89a61.46,61.46,0,0,1-9.36,10.49c-4.41,4.21-10.14,2.74-15.48,3.17-.33,1.43,2.18,1,1.69,2.71-6.12-.36-12-1.48-17-5.44-1.26-1-2.75-2.54-1.9-3.93,1.28-2.1,2.61.25,3.8.78,4.36,2,8.6,4.37,14.83,2-6.22-1.5-11.21-2.8-15.3-6.56,3.22-1.31,5.9,1.36,9.21.47-3.42-2.91-5.91-6.23-6.31-11h8.12c-3.69-3.71-6.18-7.36-6.71-12.52,4.36,1.63,8.7,1.24,13.46.51-2.6-4.16-5.67-7.92-7.49-13.15a25.28,25.28,0,0,0,9.69,3c-3.08-5-5.72-9.77-5.94-15.74l7,2.36c-1.53-5.25-4.28-9.57-4.38-14.9a34.45,34.45,0,0,0,11,2.44c-1.8-3-4.28-5.45-4.67-8.81-.12-1.11-3.62-4.37,1.67-3.69,1.51.2,0-1.93.19-3,1.52-7.74-.22-16.74,6.84-22.46s15.36-5.8,23.65-2.19c.41,1.31-.66,1.71-1.39,2.3,4.12,3.56,9,6.2,12.41,10.56,1.06,1.36,2.62,3,1.43,4.63-1.3,1.79-3.2.35-4.72-.3-2.57-1.1-5.16-2.13-6.78-3a22.08,22.08,0,0,1,8.26,6.15c1.38,1.64,2.81,3.32,1.64,5.61s-3.34,2.15-5.49,1.73c-6.32-1.23-12.62-2.52-18.92-5.34,3.52,3.55,7.7,5.12,11.83,6.77a31.56,31.56,0,0,1,4.37,1.74c1.06.61,2.2,1.29,1.95,2.77s-1.58,1.75-2.79,1.92c-4.72.64-8.89-1.09-13.31-3.07a59.88,59.88,0,0,0,13,5.24c1.57.4,4,.65,3.72,2.87s-2.75,2.34-4.68,2.41c-4.48.19-8.52-1.63-12.68-2.88-2-.6-3.88-1.55-6.29-2.2,4,3.35,7.94,6,12.82,7.18,1.66.4,4.69.26,4.29,2.66-.36,2.17-3.16,1.31-5,1.37a2.72,2.72,0,0,1,.74.15c2.5,1,6.74-.52,7.44,2.37.78,3.18-3.76,3.95-5.59,6.31.63,1.74,4,1.1,3.71,3.55-.26,2.16-2.46,2.75-4.1,3.69-2.12,1.2-4.43,2-7.09,3.5,4.77,2.68,2.86,5-.13,7.32-1.5,1.16-3.87,1.66-2.38,4.76.9,1.86-1.4,3-2.94,3.68-3.44,1.57-6.87,3.24-10.69,4,1.61.77,4.43,1,4.27,2.92-.34,3.91-4.54,4.33-7.2,6.45.92,1.25,4.15,2,1.48,4.38a15.88,15.88,0,0,1-5.45,2.81,31.61,31.61,0,0,0,13-8.76c1.05-1.12,1.89-2.59,3.75-2.55C362.43,256.51,363,256.93,362.55,257.89Z"/><path class="cls-1" d="M313.29,260.83c-5.06,7.07-12.21,6.59-19.36,5-4-.91-7.69-2.91-12.23-5.9h11.62c-4.69-3.21-10.06-4.67-15.51-9,7.28-.7,13.58,0,19.57-1.94-1-1.88-3.74-1.3-5-3.19,2.37-3,8.58-2.8,8.81-4.55.56-4.2,3.92-5.24,5.71-7.84,3.9-.42,7.88-.19,10.76-1.61-1.87-.07-4.39,1.7-7.19,1.29-1-.14-2.7.75-2.39-1.5a7.06,7.06,0,0,1,6.48-3.37,10.2,10.2,0,0,0,7.09-2.58c-2.33-.87-4.28-.06-6.19-.12-1,0-2.69,1.24-3-.69-.24-1.68,1.18-2.06,2.72-2.37a24.14,24.14,0,0,0,12.16-6.53c-3.8-1.23-7.09.38-10.38.23-1.14-.05-2.53.6-2.77-1.32-.26-2.15,1.16-2.13,2.63-2.1,4.35.09,8.53-.36,12.29-3.79-3.74-1.31-6.62.35-9.55.91-3.6.67-6.2.69-5.86-4.08a8.39,8.39,0,0,0-.62-2.51c-.64-3.92,2.1-2.22,3.47-1.86,4.07,1,7.95,1.42,11.91-1.42-5.65-.55-11.17,2.45-16.16-1.25-3-7.89-9.59-11.94-16.59-16.11h7.66l-8-7.31c3.3-1.7,6.51-1.09,10-1.7-2.3-2.23-5.87-1.47-7.2-3.37-2-2.89,2.67-3.24,3.06-5.5-1.3-1.51-4.09.9-4.82-1.69-.64-2.33,1.07-4,2.48-5.46,2.27-2.39,4.75-4.57,7.56-7.24-8.08.92-13,6.05-13.55,13.62-.39,5.56-.29,11.16-2.07,16.54-.53,1.59-.72,3.4-3.29,3-3.08-.5-1.69-2.57-1.43-4,1.39-7.55,4.05-14.74,6.33-22.05.21-.65.68-1.22.91-1.87,1.26-3.59,6.41-4.87,5.73-9.61,5.74-2.32,9.3-8.67,16.24-8.76,14-.19,23.94,6.71,31.43,17.92l.11-.12c-.28.19-.79.38-.8.57-.34,23.16-10.94,43.56-17.65,65-3.48,11.1-8,21.87-12.09,32.79a33.92,33.92,0,0,1-14.42,6.56c2.94-.34,5.75-1.36,8.68-1.68C312.27,258,314.38,257.88,313.29,260.83Z"/><path class="cls-1" d="M353.6,345.58l-3.68-5.16c-.24-1.12.25-1.47,1.3-1.22,3.73,2.51,6.89,5.82,11,7.74a7.83,7.83,0,0,1,3.31,1.43c.54.44.67-.76.32-.16-.07.13-.58-.19-.89-.38a4.67,4.67,0,0,1-1.54-2.05c-4-3.74-8.21-7.2-11.43-11.67a1.83,1.83,0,0,1,.06-2.59c5.55,4.62,11.25,9,18.51,10.77-9.42-7.94-18.94-15.69-25.87-26-.26-1.09.2-1.41,1.22-1.13,9.48,8.4,19.37,16.15,31.81,19.85-7.33-9.1-19.8-11.76-26.41-21.87,8.82,4.78,16.84,11.19,26.75,13.77,1.89.91,4.19-.34,5.57,1a9.87,9.87,0,0,1-3.42-2c-7.51-4.14-14.94-8.4-21-14.65-.19-1.07.2-1.55,1.31-1.3a92.65,92.65,0,0,0,30.54,11.48c-7.91-4.69-16.34-8.5-23.33-14.59-.1-.93.16-1.48,1.24-1.17a95.3,95.3,0,0,0,23.45,7.7c-.66-2.23-3-1.76-3.89-3.14,2-3.85,5.07-.86,7.61-1.28,1,.64,2.07,1.24,3.07,1.92,4.25,2.87,4.15,4.64-.77,7.94,2.75,2.67,5.69,3.65,9.32,2.4,1.44-.5,2.59-3.16,4.38-1.07,1.39,1.62-.67,3.17-.87,4.82a7.69,7.69,0,0,1-.82,1.9,1.29,1.29,0,0,1-1.31.26c-2.87-1.85-5.73.3-8.85-.22.8.9,1.68,1,2.25,1.64a2.51,2.51,0,0,1,.87,2.65c-1.76,1.55-4.12,1.39-6.34,2.25,2.85,2.53,5.71-.27,8.45.23.74.31,1.36.69.89,1.65C403.68,340.62,401,346,396,349.78c-2.34-1.89-5-.76-7.49-.7a19.41,19.41,0,0,1-5.75-.29c4,2.51,8.77.84,13.38.83-.07,3.1-3.33,4-4.42,6.36-3.51-1.26-7.15-.55-10.67-.83,2.37,2.84,6.69-.07,8.94,3.16l-2.39,3c-3.59,1-7.18.19-10.81,0,2.09,2.34,5.67,1.06,7.87,3.12-4.94,6.49-9.55,13.27-14.91,19.39-8.79,10.05-21.35,12.74-31.51,7.24,7.68.52,15.18,1.16,22.15-2.54.24-2.51,3.15-3.12,3.93-5.3-16.54-4.33-21.39-7.65-24.6-17.14a19.47,19.47,0,0,0,1.69,6.54c2,4.85,1.95,4.85-3.17,5.78a36.21,36.21,0,0,0,14.35,5.93c2.91.53,2.86.78,1,3.06-6,.71-11.5-1-17.15-2.58s-11-3.94-17.59-6.41l3.15,5.22c-7.62-2.32-15-.53-22.4-2.91l7.67-2.73c-7-1.36-14.27-.9-21.42-3.31,10.29-2.56,35.12-3.53,44-1.75.82-1.47-2-3.46.74-4.77,9.75-4.56,9.73-13.47,9.68-22.34-.05-1.86-1.68-4,1.05-5.34,1.93,5,3.14,10.35,6.1,14.95,2,3.17,4.41,5.95,8.37,6.78-4.74-5.71-8.65-11.7-10.15-19.29,2.8.64,4.09,3,6.24,4,5,2,8.25,6.58,12.49,8.54C361.27,352.37,355.6,351,353.6,345.58Z"/><path class="cls-1" d="M394.07,278.62l-2.29,3.15c-4-1-8,1-12-.09a55.76,55.76,0,0,0-6.24-1.82c-4-1.22-6.53-4.4-11-7.74,6.95.63,12.15,3.24,18,3-4.41-2.76-9.2-4.67-12.3-9.53,3.81.68,7,2.95,11.13,2.46-2.37-3.46-5.9-5.63-7.81-9.92,4.35,1.35,7.75,3.8,12.13,4.22-2.76-3.05-5.57-5.78-7.58-9.83l13.08,3.39c-2.89-3.45-6.2-6.2-8.82-10.57a60.09,60.09,0,0,0,15.32.6c-4.28-3.65-7.92-7-10.57-12.08,3.86.77,6.19,3.83,10.18,4.13-2.91-3.95-7.25-6.3-7.67-11.86,4,3,7.66,5.06,12.41,5.2a17.76,17.76,0,0,1-8.19-11.19c3-.28,5.26,2,8.88,2.25l-5.42-6c4.83-2.14,9.69-1.36,14.95-2-3.13-3.45-7.44-3.32-10.88-5.09,1.42-1.67,3.3-1.81,5.3-2-1.29-1.44-2.9-.82-4.32-1.43,1.28-2.88,4.47-2,6.71-3.49-1.58-2.05-4.34.11-6.7-2.26,9.21-1,17-.15,23.4,5.95a27.61,27.61,0,0,1,5.74,8c4.38,8.9,6.51,17.54-1.11,26.09-3,3.32-5,7.45-7.49,11.21-1,.18-1.3-.43-1.55-1.19a5.7,5.7,0,0,1,.92-3.52c.72-1.34,1.47-2.67,2.21-4.12-.8.76-1.06,2.18-2.53,1.82-1.59-1.45-2.83-1.82-3.77.74-.83,2.28-1.4,4.72-2.7,6.77-1.15,1.8-2.63,3.13-3.31.83C405.28,260.91,399.35,269.57,394.07,278.62Z"/><path class="cls-1" d="M391.65,284.88c2-1.91,4-2.49,6.09,0a14.25,14.25,0,0,0,3.28,2.56c4.58,2.93,5.86,2.26,7.49-3,2.09-6.68,7.16-10.53,13.46-12.87,2.44-.91,4.41.77,6.18,2.08,2.51,1.86,4.74,4.1,7.16,6.1,1,.85,2,2.29,3.54,1.75,1.71-.61,1-2.32,1.16-3.64.12-1.11-.73-2.67.79-3.21s2.62.74,3.45,1.82c3.21,4.16,2.67,8.88,1.59,13.52s-3.52,8.64-5.49,13.49c1.5-.8,3-1.7,4.5-2.4,2.84-1.29,6-3.2,8.84-1.06s.27,5.09-.37,7.92c11.59-7.7,11.8-26.48.27-33.76-9.26-5.84-19.14-10.7-28.66-16.15-1.27-.73-4.45-.57-2.88-3.69,1.47-2.9,3.16-.86,4.66-.06,10.46,5.56,21,11,31.3,16.8,11.56,6.48,15,19.42,8.55,31-3.8,6.79-8.32,12.89-15.86,16-5.54,2.31-10.73,2.16-15.87-1.26-14.64-9.74-29.36-19.35-44.05-29C389.52,286.48,390.76,285.73,391.65,284.88Z"/><path class="cls-1" d="M238.9,130.92a29.16,29.16,0,0,1,7.39-8.37c5.86.47,10.77-3.45,16.52-3.57,12.07-.27,21.32,4.55,27.48,15a2,2,0,0,1-1.31.54,24,24,0,0,0-8.42-2.42c4.21,2.23,5.65,5.47,6.15,9.18.2,1.45.6,2.25,2.2,1.59a1.65,1.65,0,0,1,1.21.58c-.75,2.72,3.83,7.29-2.78,8a4.69,4.69,0,0,0-.1,1.93c1,6.07-1.5,11.18-4.34,16.21-1.38.37-1.67-.66-2-1.58-.58-1.87.66-4.11-1.13-5.76,0-3,3.34-4.77,2.74-7.94.23-1.42,2.1-4-1.6-3-5.94,1.6-11.6-.55-16.85-.67a43.31,43.31,0,0,1,5.69,1.76c1.08.39,2.76.54,2.56,2.08s-1.77,1.38-3,1.39c-.84,0-1.73.23-2.22-.14.86.54,2.21,0,3.42.37.49.13,1,.23,1.49.37,1.95.52,5.49-.45,5.25,2.3-.19,2.26-3.67,1.41-5.75,1.6,2.5.73,5.3-.08,7.72,1.32,1.74,2.26-.54,2.73-1.7,3.22a16.69,16.69,0,0,1-9.29,1.44c1.64,1.2,3.1,2.13,1.15,4.26-1.6,1.74.76,1.62,1.51,2.23,1.56,1,4.41,0,4.69,3-12.14,6.6-24.39,3.51-37.63.5l7.88-1.6-10.43-3.59c3.5-2.48,7.45-2.73,11-4.35-1.33-2.88-4.18-1.77-5.94-3,2.74-1.85,5.92-1.49,9.09-2-1-2.93-4.74-1.73-6.38-4.57l8.14-.54c-2.49-2.8-6.49-2.42-9.09-5.33,3-2.29,6.68-1.74,9.91-3-2.19-2.4-5.34-1.95-8.32-3,2.36-3.74,6.07-5.64,9.84-8.44l-6.88-2.4c7.08-7.29,16.43.81,23.3-4.29a102.4,102.4,0,0,1-16.32-3.94c-4.61-1.59-4.71,1-5.83,2.78a155.41,155.41,0,0,0-14.49,30c-1.88,0-1.31-1.1-.87-2.1.89-9.32,7.09-16.58,10.69-26.34l-4.94,4.49C237.34,133.5,239.22,132.33,238.9,130.92Z"/><path class="cls-1" d="M320.75,342.65a41.28,41.28,0,0,1-14,9.41c11.41-11.07,14.56-25.05,15-40.15,1.61,4.85,1.75,9.85,2.3,15.35,1.88-3.9,1.23-7.67,2.07-11.28,2.31,4.31,1.36,9.19,3.44,13.53.27-2.07.53-4.14.94-7.32,5.13,8.13,5.57,16.08,4.31,24.2a56.1,56.1,0,0,1-3,10.52c-2.61,7.17-4,8.15-12.52,9.38,3.6-4.77,7-9.38,7.69-15.28,1.3-2.47-.48-5.09.27-7,.22-1.28-1.08-.81-.38-.79.29,0,.36.13.38.34a4.27,4.27,0,0,1-1.29,3.24C321,359.36,311.51,366,298.43,368c-12.72,2-25.41,3.31-38-1,3.65,0,7.31-.1,10.95,0,10.72.35,21.26-.65,31.26-4.75,8.42-3.45,15.63-8.43,19.17-17.36a29,29,0,0,1,1.17-5.74A5.39,5.39,0,0,1,320.75,342.65Z"/><path class="cls-1" d="M362.55,257.89l-.95-1.2c-.11-.14-.34-.36-.31-.4,2.41-3.67,3.18-8.21,5.48-11.76a181.64,181.64,0,0,1,13.92-19.25c1.83-2.15,3.85-4.48,2.72-8-.49-1.53,1.13-2.81,2.21-3.93,4-4.16,6.09-9.23,7.16-14.83a42.6,42.6,0,0,1,1.66-7.64c2.86-7.38.71-13.23-5.06-18.18-1.29-1.11-2.88-2-3.34-3.9-.16-1.2,1-1.68,1.42-2.54-1.52-3.46.41-1.85,1.47-.94,6.56,5.64,9.71,13,10.17,21.49.39,7.2-2.76,13.53-5.27,20C386.44,225.67,377.37,243.55,362.55,257.89Z"/><path class="cls-1" d="M448.68,324c-7.06,5.56-14,3.84-20.65-.62-13-8.72-26-17.56-39-26.34l-8.72-5.92c4-2.43,6.8-.88,9.77,1.14,13.4,9.11,27,18,40.33,27.14C436,323.25,441.76,325.47,448.68,324Z"/><path class="cls-13" d="M353.6,387.46c2-1.93,0-1.68-1-1.85-7-1.14-13.31-3.68-18.95-9.71l8.49,1.48c-2.06-4.62-4.92-8.66-2.33-14,4.29,14.18,14.93,17.9,28.46,17.88-2.33,3.45-5.29,5.2-7.9,7.31C358.35,386.76,355.8,388.16,353.6,387.46Z"/><path class="cls-5" d="M421.12,247.22l-1.17,3a7.49,7.49,0,0,1-2.22,4.58c-6,6.72-11.59,13.81-18.58,19.58.32,3.83-3.1,3.18-5.08,4.25.12-.95-1.59-1.57-.42-2.75,4.54-4.57,6.16-11.24,10.26-15.72,3.2-3.48,4.35-7.21,6-11.15,1-.16.86.69,1,1.21s.21,1.37.36,2.46c3.13-3.85,3.38-8.77,5.94-12.54a5.52,5.52,0,0,1,3,3.64C421.1,244.76,422.18,245.7,421.12,247.22Z"/><path class="cls-1" d="M143.52,168.55c-12.47,2.89-22.94-1.9-32.51-9s-18.78-14.89-28.15-22.37c-.16-1,.09-1.47,1.17-1.09,9.36,7.17,18.69,14.38,28.1,21.5s19.54,11.16,31.46,10c.26.24.33.48.23.7S143.61,168.55,143.52,168.55Z"/><path class="cls-1" d="M373.52,279.86c2-.38,4-1.4,5.71.67.11,1.75,2.58,1.23,2.74,2.62.33,2.69,1.35,1.33,2.64.81,1.7-.69,3.57-3.53,5.39-.1l-.66.93c-.58,1.44-2,1.65-3.21,2-9.73,1.08-18.85-.22-27-7.18,4.78-.06,8.63,2.78,13.05,2.11C373.57,281.56,374.64,281.64,373.52,279.86Z"/><path class="cls-1" d="M102.93,47C114.8,55.21,127,63,137.86,72.56l-1.33,1.75-34.8-26.25C101.58,47.08,101.75,46.47,102.93,47Z"/><path class="cls-1" d="M248.52,247.07l-2.24,1A44.28,44.28,0,0,1,219,234.57c-1.13-1.19-1.67-3.17-3.78-3.24-2.21-2.9-2.21-2.9-2.23-7l1.39,1.92.92,1.26c1.09-1.33-1.15-2.54,0-4,1.82,1.12,2.65,3,3.73,4.66.4,3.86,3.88,5.32,6.2,7.52,5.18,4.93,11.59,7.61,18.59,9C245.57,245,247.91,244.44,248.52,247.07Z"/><path class="cls-19" d="M312.33,198.67a61.54,61.54,0,0,0,20-1.17c-3.53,6-10.16,7.66-16.68,4.86-1.24-.53-2.47-1.84-2.53.84C311.68,201.89,312.15,200.25,312.33,198.67Z"/><path class="cls-1" d="M84,136.07l-1.17,1.09-26.13-20c-.23-.9-.1-1.43,1-1Z"/><path class="cls-1" d="M399.15,274.37c6.52-8.41,14.94-15.18,20.8-24.16l1,1.09C414.91,260.17,408.47,268.63,399.15,274.37Z"/><path class="cls-1" d="M105.89,83.76,80.52,65.7l.82-1.2,25.87,18C107.07,83.25,106.36,83.37,105.89,83.76Z"/><path class="cls-1" d="M396.2,308.89c-2.18,2.57-5.28-.34-7.61,1.28a2.08,2.08,0,0,1-2.18-.88,1,1,0,0,1,.16-1.44h3.69l-10.76-6.47C386.31,301.18,391.43,304.66,396.2,308.89Z"/><path class="cls-20" d="M313.29,260.83c.23-1.7.12-2.46-2.1-1.72-3.53,1.17-7.22,2.74-12.11-.42,7.13.23,11.35-4.74,17.21-5.37C315.51,255.91,315.23,258.7,313.29,260.83Z"/><path class="cls-21" d="M390,358.31c-2.8-1.1-6,.54-8.68-1.17-1.51-.95-3.69-1.12-4.18-3.71,4,0,7.85,1.34,11.69-.1,2.42-.91,1.79,1.9,2.9,2.65C391.87,357.32,391,357.88,390,358.31Z"/><path class="cls-1" d="M105.89,83.76l1.32-1.24c5.5,4,12.18,6.61,15.77,12.71l-.94,1.1Z"/><path class="cls-22" d="M390,283.86c-.44-2.3-1.47-.78-2.23-.29-2.33,1.49-4.66,2.94-7.82,2.24,3.52-2,1-2.43-.64-3.28-.78-.4-4.1-1.21-.08-2a14,14,0,0,0,7.59-.4c2.35-.93,3.55.39,5,1.64A2.88,2.88,0,0,1,390,283.86Z"/><path class="cls-23" d="M384.63,364.5c-7,.3-7.67,0-11.7-5.54,5.34,1.78,10.14.5,14.64,2.38A4.92,4.92,0,0,1,384.63,364.5Z"/><path class="cls-1" d="M85,99.87l22.69,15.22L106.43,117,85,101.46A1.12,1.12,0,0,1,85,99.87Z"/><path class="cls-24" d="M38,32.31A163.43,163.43,0,0,1,54.79,43.82l-1.18.94c-.36.72-.76.75-1.21.08C46.91,42.41,43.12,37.59,38,34.61c-.66-.48-1.5-.91-1.27-1.9C36.89,32.14,37.46,32.17,38,32.31Z"/><path class="cls-25" d="M353.6,345.58c4.58,4.08,9.41,7.84,14.31,11.56-6.5-1.55-11.4-5.61-16-10.19Z"/><path class="cls-1" d="M281.61,167.29c.37.83.17,2,1.29,2.39-1.26,3.7-2.54,7.39-3.77,11.1-.28.86-.61,1.81-1.64,1.44-1.58-.57-.49-1.52-.16-2.4.56-1.51,1.88-2.78,1.61-4.8l-3.38,1c-1.35-1.74-4-.2-5.29-2,.2-.28.43-.67.72-.7A14,14,0,0,0,281.61,167.29Z"/><path class="cls-1" d="M102.93,47l-1.2,1.1L84,35.36c-.22-.87-.15-1.43.94-.88Z"/><path class="cls-1" d="M232.55,157l.87,2.1c-1.11,4.32-2.2,8.64-3.34,13-.28,1.07-.19,2.74-2,2.34s-1-1.86-.66-2.89C229.09,166.65,230.83,161.83,232.55,157Z"/><path class="cls-1" d="M57.73,116.23l-1,1-17-12.64.86-1.22Z"/><path class="cls-1" d="M386.57,307.85l-.16,1.44A50.61,50.61,0,0,1,369,298.77C374.73,302.05,380.66,305,386.57,307.85Z"/><path class="cls-1" d="M231.4,351.05l2.37-1.1c3.84,2.77,8.91,3.78,11.61,8.17l-1.14,1A29.29,29.29,0,0,1,231.4,351.05Z"/><path class="cls-1" d="M289.05,134.09l1.24-.07c2.13,1.75,2.37,4.39,3.11,6.76,1,3.36-.55,3.78-3.28,2.71l-1.12-.1C288.42,140.29,287.69,137.18,289.05,134.09Z"/><path class="cls-1" d="M361.87,301.75c-4.83-2.83-8-7.3-11-12.06l11.69,11.43C362.89,301.93,362.66,302.14,361.87,301.75Z"/><path class="cls-1" d="M406.47,335.26l-1-1.07a12.09,12.09,0,0,0-2.18-3.41l-1-1.65a8.76,8.76,0,0,1,7.1-2.35l1.19,0A28,28,0,0,1,406.47,335.26Z"/><path class="cls-1" d="M60.05,49.79l13.53,9.07-.91,1.37L59.43,50.5C59.38,50.05,59.6,49.82,60.05,49.79Z"/><path class="cls-26" d="M137.23,58.74l-11.2-7c5,.23,8.68,3.14,12.59,5.64Z"/><path class="cls-1" d="M197.06,168.54l-12-6.65c4.86.79,9,3.06,13.07,5.6C198.08,168.15,197.47,168.25,197.06,168.54Z"/><path class="cls-27" d="M308.08,231.52c3.87,2.68,7.24-1.48,11.72-.76-4.12,4-8.5,3.35-12.9,2.58A1.57,1.57,0,0,1,308.08,231.52Z"/><path class="cls-1" d="M301.72,230.43l1.06,1.07a17.09,17.09,0,0,1-7.33,6.29l-1.11-1.11A10.18,10.18,0,0,1,301.72,230.43Z"/><path class="cls-28" d="M38,32.31c-1.56.82.2,1.53.07,2.3-2.73-1.37-7.22-1.27-5.38-6.46Z"/><path class="cls-1" d="M387.46,166.28l-.91,2.34c-3.81,0-6.61-2.28-9.48-4.37l2.09-1.8C382.39,162.71,384.18,166.11,387.46,166.28Z"/><path class="cls-1" d="M346.72,155.09c3.1,2,5.24,4.34,3.13,8.12-1.16-2.69-3.1-5.14-3-8.24Z"/><path class="cls-1" d="M85,99.87v1.59l-9.85-7a.56.56,0,0,1,.59-.68A45.51,45.51,0,0,1,85,99.87Z"/><path class="cls-29" d="M143.52,168.55l.07-1c3-2,6.64-1.29,9.9-2.33C150.39,167,147.21,168.49,143.52,168.55Z"/><path class="cls-30" d="M21.81,90.75c3.35.33,5.17,2.61,7.19,4.65C25.75,95.07,23.93,92.62,21.81,90.75Z"/><path class="cls-31" d="M320.75,342.65c1.65-2.45,1.8-5.42,2.84-8.12.57,3.67.34,7.17-1.78,10.36C321.46,344.14,321.1,343.39,320.75,342.65Z"/><path class="cls-32" d="M214.76,237.85a8.59,8.59,0,0,1-3.13-6.77l5.24,4.59C217.6,237.78,214.66,236.35,214.76,237.85Z"/><path class="cls-1" d="M202.23,170.14l6.36,3.8c-3.07,2.2-4.57-.11-6.35-1.13A2,2,0,0,1,202.23,170.14Z"/><path class="cls-1" d="M85,34.48l-.94.88-7.48-5.22C80.08,30.34,82.59,32.31,85,34.48Z"/><path class="cls-1" d="M275.64,360.22c-2.55.57-5.08.2-8.14-.12a8.64,8.64,0,0,1,7.1-1.72Z"/><path class="cls-33" d="M363.45,345.78l6.45,4.49a10.41,10.41,0,0,1-7.65-3.33Z"/><path class="cls-1" d="M352.08,331.52l-.06,2.59-7-7.72C349,327.26,350.33,329.66,352.08,331.52Z"/><path class="cls-34" d="M74.85,27.14c-4.35.09-6-2.26-7.58-4.66Z"/><path class="cls-1" d="M202.23,170.14c0,.89,0,1.78,0,2.67-2.35-.67-3.15-3.22-5.18-4.27l1.08-1Z"/><path class="cls-1" d="M190.86,198.16l-1.14-1.22a11.26,11.26,0,0,1,3.91-7.46l.2,0c1.67,2.26-1,3.77-1,5.75C192.65,196.55,192.69,198,190.86,198.16Z"/><path class="cls-35" d="M380.24,325.84l6.09,2.17c-3.07,1.17-5.71.34-8.24-1.12Z"/><path class="cls-36" d="M325.91,346.81c.4-1.57.8-3.13,1.19-4.7,1.06,3.14,1.44,6.09-.17,8.9C326.19,349.71,327.64,347.88,325.91,346.81Z"/><path class="cls-37" d="M52.4,44.84l1.21-.08,6.44,5a1.77,1.77,0,0,1-.62.71C56.9,48.85,53.91,47.76,52.4,44.84Z"/><path class="cls-1" d="M299.5,282.94,298.44,285c-1.51-2.45-1.22-5.27-2.1-8.7C298.38,278.74,299.34,280.66,299.5,282.94Z"/><path class="cls-22" d="M386.13,286.84a5.82,5.82,0,0,1,3.21-2l2.31.09c-.46,1-1.53,1.77-.87,3.06C388.87,289.11,387.88,286.37,386.13,286.84Z"/><path class="cls-1" d="M431.36,238.92a10,10,0,0,1-.93,6.76C431.36,243.62,428,241.14,431.36,238.92Z"/><path class="cls-38" d="M157.11,104.65c-.58,2-1.94,3.49-3.89,5.12,0-3.1,1.58-5.12,2.86-7.26C156.41,103.23,156.08,104.27,157.11,104.65Z"/><path class="cls-1" d="M369,305.61l-1.24,1.17a17.58,17.58,0,0,1-5.91-5,.59.59,0,0,0,.66-.63Z"/><path class="cls-1" d="M360.58,309.89c-.44.43-.88.86-1.31,1.3-2-1-3.24-2.69-5.1-5.5C357.2,307.24,359.12,308.19,360.58,309.89Z"/><path class="cls-1" d="M75.14,94.48a19.75,19.75,0,0,1-6.8-5.19,16.22,16.22,0,0,1,7.39,4.51A1.62,1.62,0,0,1,75.14,94.48Z"/><path class="cls-1" d="M345.94,315.14l-1.22,1.13-5.35-6.07C342.93,310.52,344.21,313.13,345.94,315.14Z"/><path class="cls-1" d="M351.22,339.2l-1.3,1.22a13.5,13.5,0,0,1-3.89-6Z"/><path class="cls-1" d="M341.37,340.54c-1.47,1.56-.15,3.67-1.05,5.34-1-2.74-.9-5.59-.91-9.63C340.73,338.11,341.38,339.12,341.37,340.54Z"/><path class="cls-39" d="M227.31,300.61l5-3.39c.21,2.5-.79,3.89-2.89,4.45C229.06,300.67,228.07,300.87,227.31,300.61Z"/><path class="cls-2" d="M245.38,358.12c-3.88-2.71-8.88-3.82-11.61-8.17h3.72c-4-3.13-7.34-5.62-10.53-8.26-.75-.62-3.72-1.68.16-2.58,1.6-.37,0-1.71-.63-2-4.56-2.22-3.87-8.68-8.68-10.64,2-3.56-1.81-4.38-3.07-6.6.9-1.61,2.8.12,4.1-1.27-4.17-3.4-6.3-8.86-12-10.86,11.8,1.6,22.17-1.1,32.16-8.56-1.91,6.77-6.83,9.59-11.86,12.65,11.95,1.34,22.78-5.35,33.23-20.2.81,5.48-1.49,10.57-7.86,17.39-2.4,4.25-7.13,5-10.54,6.93,4.23-1.18,8-4.35,12.47-5.94,3.52-2.39,5.29-6.29,8.26-9.82.62,3.21-1.6,5.15-1.92,7.57-.35,4.57-3.57,7.29-6.61,10-6,5.44-12.86,9.1-21.24,9a18.17,18.17,0,0,1-4.95-.39c.69-.18,2.2.66,3.76.4,11.64.61,19.78-5.9,27.32-13.54,1.21-1.23,2.19-2.68,3.95-3.22,5.19-5.59,7-12.92,10.21-20.45-.54,12.17-2.07,23.09-11.3,31.37,5.83-.68,8.69-3.86,15.06-16.48,1.45,9.17-3.17,18.05-12.1,23.46-5.44,3.29-11.53,4.68-17.56,6.29-1.94,1.38-4.28,1.16-5.52,1.34,1.93-1.05,5,.39,7.86-.23,16-3.05,30.23-8.47,36.15-26.57.58,11-7.41,23-17.06,26.41-4.92,1.72-9.93,3.22-15,4.53s-10.09,2.26-15.39,3.42c3,2.25,6.6,1.9,9.94,2.88L245.06,348c6.11,1.75,11.35,5.68,17.88,3.85,4-2.39,8.48-1.35,12.74-1.89,14.74-3.4,23.54-13.86,30.9-26.34.65,9.49-9,24.14-18.6,28.73-11.17,5.31-23.06,4.29-35.47,3.8,2.6,2.7,6.19,1.84,8.74,3.92C255.57,361.17,250.49,359.45,245.38,358.12Z"/><path class="cls-5" d="M302.65,202.19c1.9,11.07-5,26.83-14.38,32.86a7.1,7.1,0,0,1-5,.91,62,62,0,0,1-20-5.61c-9.87-4.65-12.21-9.88-9.3-21.19.56,2.42.9,4.44,1.51,6.37.66,2.08,1.59,4.08,3,7.51.76-5.85-1-9.91-1.29-14.08a36.61,36.61,0,0,1,.65-12.45c1-3.65,2.91-6.84,6.44-8.42,1.22-.55,3.25-3.58,4.66.19.12.34,1.57.22,2.41.24,3.13.07,6.26.11,9.39.17.16.94-.43,1.37-1.15,1.72a13.64,13.64,0,0,1-3.05.54c-12.65,1.82-18.15,10.94-14,23.52,3.27-1.93,3.15-6.07,5.65-8.34,1.31-.07,1.71.84,2,1.85.45,4.33-2.32,7.48-4,11-.86,1.81-3.27,4.39,1.58,4.11.52,0,.77.62,1.12,1,4.29,4.66,7.73,5.18,12.92,1.9a24.88,24.88,0,0,0,9.91-11.73c1.05-2.49,1.27-5.5,3.89-7.16,1.29.17,1.64,1.14,1.92,2.19.27,5.66-2.79,10.09-5.38,14.69a29.52,29.52,0,0,1-3.59,3.7,30.19,30.19,0,0,0,3.28-3.17,46.46,46.46,0,0,0,8-16.56C301,206.15,299.36,203,302.65,202.19Z"/><path class="cls-4" d="M248.52,247.07c-5.64-1.61-11.55-2.29-16.8-5.21-5.73-3.19-10.55-7.28-13.8-13.06,0-.08.11-.38.24-.44a6.23,6.23,0,0,1,.9-.21,41,41,0,0,0,14.31,10.33c-2.89-4.54-6.32-7.15-7.19-12.33,4.84,5.26,8.79,10.19,14.56,13a7.92,7.92,0,0,1,2.51.67c-.38-.07-.79-1.05-1.21-2l-5.46-6.86c5.36,2,8,5.91,12.8,6.7-.89-2.64-2.74-4.62-2.95-8.32,4.66,4.77,9.28,8.37,16,9.88l-4.36-6.83c5.34,3.18,9.16,6.08,14,6.91s9.64.45,14.53.38C274.76,246.51,261.77,247.47,248.52,247.07Z"/><path class="cls-7" d="M190.86,198.16,192,195c2.94,1.88.38,5,1.63,7.24l1.82,3.87c.39-3.85-.33-7.07,2.51-10.05-.17,5.28-.53,10.2,3.47,14.2,1.25-2.38.09-5.41,2.63-7.2.13,2.5.25,4.91.41,8,1.52-2.1,1.72-4.18,4.24-5.74-3.11,8.35-2.1,16,1.15,24.82C198.26,221.39,193.13,210.62,190.86,198.16Z"/><path class="cls-6" d="M260.87,350c-.92-.61-3.53-.83-.66-2.37a28.24,28.24,0,0,1,5.29-2.12c14-4.15,25.57-11.41,32.64-24.77-2.36,14.59-11,23.55-24.67,28.14A14.73,14.73,0,0,1,260.87,350Z"/><path class="cls-40" d="M301.72,230.43l-7.38,6.25-3.87,1c11.62-11.7,17.91-24.39,13-40.91C310.29,204.07,309.44,216.76,301.72,230.43Z"/><path class="cls-8" d="M285.24,327.11c-3.67,12.18-13.76,17.21-29.49,15,5.7-1.82,10.8-3.17,15.68-5.08C276.48,335.1,280.49,331.41,285.24,327.11Z"/><path class="cls-41" d="M247.17,200.75c-1.46,10.13.25,18.61,5.31,26.59C241.53,224,239.41,214.15,247.17,200.75Z"/><path class="cls-1" d="M232.65,326c12.75-.85,21.62-7.69,28.11-18.22a3.92,3.92,0,0,0,2.23,2.33c-8,10.21-17.23,18.27-31.35,17.62C231.3,326.73,231.86,326.28,232.65,326Z"/><path class="cls-42" d="M302.65,202.19c-1.89,1.72.18,4.57-1.77,6.28a3.43,3.43,0,0,1-1.48-3.15c-.07-7.49-4.93-10.35-11.23-12.26-2.9-.89-6.76.29-8.58-3.4l1.14-1c12.37-.21,18.83,3.31,21.88,12A4.92,4.92,0,0,1,302.65,202.19Z"/><path class="cls-1" d="M254.42,310c-4.87,4.62-8.66,6.35-16.39,7.21l14.46-8.2C252.86,309.87,253.66,309.9,254.42,310Z"/><path class="cls-43" d="M223,180.46c3-.43,6-.93,9.09.95l-13.79,3.14c.88-2.84,3.53-2.7,4.84-4.23Z"/><path class="cls-1" d="M260.87,350l12.6-1.12,2.21,1.06a26.09,26.09,0,0,1-12.74,1.89Z"/><path class="cls-44" d="M256.86,190c-1,4-1.94,8-3.08,12.7C251.92,197.16,252.46,194.56,256.86,190Z"/><path class="cls-17" d="M246.33,185.15c.42.37,2.31.71.93,1.13-4.1,1.24-8.45,1.7-13.07,2.54a3.57,3.57,0,0,1,2.44-2.57C239.51,182.76,243.1,185.54,246.33,185.15Z"/><path class="cls-15" d="M223.16,180.32c-3.75-.34-7,2.6-11.34,1.73A15.79,15.79,0,0,1,222,178c2.69-.12,1.57,1.24,1,2.43Z"/><path class="cls-1" d="M193.6,202.21c-2.33-2,.23-5.12-1.63-7.24l1.86-5.46,3.85-2.94C194.65,191.43,192.81,196.46,193.6,202.21Z"/><path class="cls-45" d="M235.64,185.23c-3,.26-5.95,1.6-9.45,1.17,1.68-2.41,4.14-2.58,6.32-3.29a14.71,14.71,0,0,1,6.6,0C238.43,185.42,236.75,184.78,235.64,185.23Z"/><path class="cls-1" d="M235.64,185.23l3-1.68c-2.23-1.18-4.22.11-6.1-.44,5.16-3.1,9.24,1.18,13.82,2a29.17,29.17,0,0,0-9.7,1.1Z"/><path class="cls-1" d="M249.64,335.38c-3.25,1.72-6.7.88-10.3,0l8-1.11Z"/><path class="cls-1" d="M242,237.77l4.73,3.39c-2.29-.12-4.51-.2-6-2C241.17,238.66,241.6,238.21,242,237.77Z"/><path class="cls-7" d="M105,141.21c17,6.86,31,18.5,50.17,14.16C143.82,167.59,119.72,156.21,105,141.21Z"/><path class="cls-46" d="M377.07,164.25c3.85,0,6.44,2.65,9.48,4.37,1.92,1.74,3.91,3.42,5.75,5.25,3.23,3.2,5.54,7.13,4.64,11.65-1.51,7.62-3,15.26-5.83,22.61-1.61,4.17-6.78,5.94-6.17,12,.35,3.43-3.41,7.5-6.48,10.33-5.69,5.27-7.39,13.38-13.93,17.88,1.51,1.46,2.67-.74,3.61.43l-6.54,7.95c-5.19,5.08-9.89,10.91-17.73,12.1-.84.13-1.69.16-3.31.3,3.07-3.28,7.41-3.12,9.89-6.09-1.61-1.94-4.12.14-5.92-1.79,3.71-2.26,7.73-3.93,11-7-1.56-2.16-4.64-1.32-6.27-3.45,5.59-2,11.13-3.82,16.38-7.22l-4.52-2,9.5-6.7c-1.68-1.83-4.35-1.89-5.46-4.12l14.32-6.62-7.44-3.31c3.2-2.12,6.35-3.58,8.82-6.91A19.6,19.6,0,0,1,369,210.8c3.24-.65,5.89.44,9.18-.89-8.74-1.49-15.68-5.06-21.61-12,9.81,1.52,17.86,8.7,27.78,5.16-7-2.72-14.72-3.87-19.78-10.36,6.05,2.05,11.76,5.47,20.11,3.72-7.93-4.92-17.7-5.05-22-14.29,7.37,3.15,14.43,5.7,21.92,6.73,1.72.24,3.55,1.19,4.74-.68,1.41-2.22-.54-3.5-1.83-4.84-3.13-3.28-7.09-5.38-11-7.82,5.49-.29,9.73,3.1,15.78,5.12-4.72-7.88-11.19-12-18.09-15.93Z"/><path class="cls-8" d="M364.91,163.18c-1.22,3.78-4.81,4-6.21,7.11,1.36.72,3.42.17,4.51,2.19-5.28.7-6.21,3.74-3.84,8.33-1.78.83-2.72-1.17-4.1-1.1-.57,3.64.61,7,1.19,10.58-4.39-2.72-5.52-5.87-4.58-12.55C352.93,170.34,357.09,165.65,364.91,163.18Z"/><path class="cls-13" d="M339.54,176.2c-1.23-11.27-.55-22.57-10.94-30.26,6.09.67,10.2,4.43,13.39,11.77C344.86,164.32,344.22,170,339.54,176.2Z"/><path class="cls-11" d="M318.44,169.68c3.63,2.6,8.05,2.73,12.37,3.67-7.64,5.9-16.68,2-23.22-10,4.06-.41,6.15,2.59,8.78,4.46A2.52,2.52,0,0,1,318.44,169.68Z"/><path class="cls-10" d="M313.31,182.8c8.47,2.12,15.68,1.25,23.22,1.16C332.19,190.29,321.14,190,313.31,182.8Z"/><path class="cls-47" d="M336.41,178.07c-6.65,5.36-16.7,5.11-24,0Z"/><path class="cls-48" d="M331.57,157.56c-8.08-2.28-15.14-2.86-22.51-3.8C317.28,150.09,325.18,151.3,331.57,157.56Z"/><path class="cls-16" d="M310,188.71l23.61,2.07C325.77,194,318.35,192.7,310,188.71Z"/><path class="cls-20" d="M318.44,169.68a2.67,2.67,0,0,1-2.07-1.83c.77-1.62,1.38-3.3,3.85-2.43,3.33,1.16,7.17.37,10.59,2.5a10.66,10.66,0,0,1-9.64,1.33C320.29,169,319,167.52,318.44,169.68Z"/><path class="cls-17" d="M331.93,162.78c-6.92.53-12-.34-18-3.62C320.71,158.44,325.84,159.23,331.93,162.78Z"/><path class="cls-17" d="M308.32,240.59c3.64-1.76,6.74-4.18,10.92-4.94C315.92,241.9,313.53,243,308.32,240.59Z"/><path class="cls-12" d="M357.85,374.1c3.93.25,5.51-4.2,9.34-3.58.16,0,.5-.37.6-.63.45-1.13-2.8-2.56-.27-3.1,3.15-.67,7.11-1.23,9.68.13s-.25,4.74-1.32,6.4c-2.92,4.51-12.48,5.58-17.05,2.5C358.58,375.65,358.49,375.25,357.85,374.1Z"/><path class="cls-11" d="M343.71,357c3.11,4.16,5.77,8.43,9.34,12.09,1.09,1.13,2.9,2.73,1.05,4.41-1.57,1.43-3.4.23-4.71-.86C344.45,368.52,343,363.11,343.71,357Z"/><path class="cls-15" d="M396.11,349.62c-5.74,3.68-11.05,2.34-17.38-1.72,5.83-.68,10.62.67,15.25-1.09,2.62-1,1.73,1.67,2,3Z"/><path class="cls-22" d="M403.26,330.78c.95-.11,2.34-.67,2.77-.25,1.28,1.24-.25,2.43-.59,3.66-4.21,2.55-8.06,2.41-12.14-1.84Z"/><path class="cls-40" d="M388,340.38c5.18,1.83,9-.5,13,.11C398.68,346.28,393.15,346.56,388,340.38Z"/><path class="cls-49" d="M409.32,326.78c-2,1.84-4.49,2.31-7.1,2.35-1.79-.76-3.85-1.07-5.29-3.17,3.63-.45,6.92-.91,10.23-1.24C408.53,324.58,409.49,325.16,409.32,326.78Z"/><path class="cls-25" d="M419.88,210.59c6.68,6.08,8.08,14.73,3.54,21.66C423.23,224.75,423,217.75,419.88,210.59Z"/><path class="cls-40" d="M415.53,223c-7.24,1.36-11.72-1.15-16.52-5.59C405.87,215.83,410,219.45,415.53,223Z"/><path class="cls-50" d="M412.25,228.24c-5.91,1.79-10.51-.65-14.73-4.32Z"/><path class="cls-51" d="M429.06,227.55c.25.43.39.57.41.72a9,9,0,0,1-2.45,8.09c-1.2,1.23-1.84-.17-.75-2.62.64-1.43,1.25-2.86,1.88-4.28C428.41,228.87,428.7,228.3,429.06,227.55Z"/><path class="cls-44" d="M421.12,247.22c-.31-1.15-.62-2.3-.92-3.45l2.79-4.61C423.83,242.52,422.75,244.93,421.12,247.22Z"/><path class="cls-9" d="M281.61,167.29c-2.33,7.08-2.33,7.08-11.34,6.68-1.7-.73-3.73-.67-5.63-2.52l5.23-2.24c-.95-2.35-4.26-1-5.41-3.54,5.16-.95,10.74.48,15.09-3.29l-.14.12C285.11,161.81,280.65,165.8,281.61,167.29Z"/><path class="cls-40" d="M269.9,157.25c-1.95.14-3.61-.53-6.09-2l8.2-.39-12.55-4.78c9.54-1.47,18.29,3,26.52-1.49-1,2.42-1.34,4.79-3.25,6.37-1,2.41-2.78,3.21-5.27,2.77S272.38,158,269.9,157.25Z"/><path class="cls-52" d="M289.05,134.09c.25,3.1,1.55,6.21-.05,9.3l-3.27,2.52c.54-6.83-2-11.54-7.5-14.84C282.23,131.32,286.42,130,289.05,134.09Z"/><path class="cls-25" d="M269.9,157.25c4.32-.54,8.94.67,12.83-2.28,2.71,4.19-1.87,5.17-3.32,7.53l.15-.13a50.31,50.31,0,0,1-14.32-1.73c4.31-1.79,8.1-.92,11.93-1.88C274.73,157.35,272,158.78,269.9,157.25Z"/><path class="cls-13" d="M261.5,144.09c1.33-.52,3-.75,3.06-1.25.52-2.92.51-3.09,3-2.18a27.08,27.08,0,0,1,7.82,4c.64.52,1.55,1,1.24,2.06s-1.32,1-2.16,1C270,148,265.89,146.74,261.5,144.09Z"/><path class="cls-15" d="M260.35,135.94c5.84-1.83,10.13.65,13.71,5Z"/><path class="cls-1" d="M232.65,326l-1,1.73c-2.1.35-3.76-.76-5.51-1.73Z"/><path class="cls-1" d="M279.59,189.66c2.5.59,5,1.15,7.5,1.79,11.61,3,13.53,5.38,13.79,17a33.13,33.13,0,0,1-8.6,16.72c-1,.19-1.47-.15-1.22-1.22,2.39-4.55,4.82-9.08,5.65-14.25.8-2.21-1.09-4.58,0-5.85-.24.55.12,2.35-1.21,3.55-2.07,7.91-5.56,14.88-12.61,19.65a13.31,13.31,0,0,1-8.28,2.48c-3.88-.18-7.35-.89-6.3-6.1-1.92-.19-1.45,3.8-4,1.83-2.06-1.6-1.29-3.31-.28-5.05,2.16-3.73,4.76-7.26,5.4-11.7.78-2.57-.71-5-.58-7.55.07,1.86,1,3.81-.49,5.5-1,4.46-3.25,8.11-6.41,11.83C256.19,200.26,262.55,190.31,279.59,189.66Z"/><path class="cls-1" d="M291.06,224c.41.41.82.81,1.22,1.22-1.74,2.43-3.59,4.72-7.3,4.62Z"/><path class="cls-1" d="M268.35,206.48v-7.3c1.71,3.52,2.89,6.28,1.07,9.35Z"/><path class="cls-1" d="M295.48,207.42c-.44-2,.63-3.53,1.54-5.19.47,2.54,1.21,5.05-.31,7.49C296.26,209,296.59,207.81,295.48,207.42Z"/></svg>