<svg id="Layer_1" data-name="Layer 1" xmlns="http://www.w3.org/2000/svg" viewBox="0 0 690.96 270.72"><defs><style>.cls-1,.cls-53,.cls-57{fill:#07af4f;}.cls-2{fill:#020202;}.cls-3{fill:#040404;}.cls-4{fill:#050505;}.cls-5{fill:#070707;}.cls-6{fill:#060606;}.cls-7{fill:#080808;}.cls-8{fill:#0c0c0c;}.cls-9{fill:#090909;}.cls-10{fill:#0b0b0b;}.cls-11{fill:#0d0d0d;}.cls-12{fill:#0e0e0e;}.cls-13{fill:#0a0a0a;}.cls-14{fill:#151515;}.cls-15{fill:#1e1e1e;}.cls-16{fill:#171717;}.cls-17{fill:#282828;}.cls-18{fill:#474747;}.cls-19{fill:#121212;}.cls-20{fill:#323232;}.cls-21{fill:#3b3b3b;}.cls-22{fill:#141414;}.cls-23{fill:#181818;}.cls-24{fill:#232323;}.cls-25{fill:#252525;}.cls-26{fill:#2e2e2e;}.cls-27{fill:#333;}.cls-28{fill:#535353;}.cls-29{fill:#656565;}.cls-30{fill:#3d3d3d;}.cls-31{fill:#444;}.cls-32{fill:#262626;}.cls-33{fill:#4f4f4f;}.cls-34{fill:#2d2d2d;}.cls-35{fill:#3f3f3f;}.cls-36{fill:#575757;}.cls-37{fill:#696969;}.cls-38{fill:#4c4c4c;}.cls-39{fill:#3c3c3c;}.cls-40{fill:#111;}.cls-41{fill:#131313;}.cls-42{fill:#292929;}.cls-43{fill:#2f2f2f;}.cls-44{fill:#313131;}.cls-45{fill:#1c1c1c;}.cls-46{fill:#030303;}.cls-47{fill:#242424;}.cls-48{fill:#161616;}.cls-49{fill:#0f0f0f;}.cls-50{fill:#383838;}.cls-51{fill:#343434;}.cls-52{fill:#272727;}.cls-53{font-size:80.6px;stroke:#07af4f;stroke-miterlimit:10;stroke-width:5px;letter-spacing:0.12em;}.cls-53,.cls-57{font-family:Agrandir-Narrow, Agrandir;}.cls-54{stroke:#000;letter-spacing:0.12em;fill:#000;}.cls-55{letter-spacing:0.04em;}.cls-56{letter-spacing:0.08em;}.cls-57{font-size:33.27px;letter-spacing:0.02em;}.cls-58{letter-spacing:0.1em;}.cls-59{letter-spacing:0.03em;}.cls-60{letter-spacing:0.09em;}.cls-61{letter-spacing:0.08em;}.cls-62{letter-spacing:0.06em;}.cls-63{letter-spacing:0.07em;}.cls-64{letter-spacing:0.1em;}</style></defs><circle class="cls-1" cx="166.57" cy="134.55" r="100.89"/><path class="cls-1" d="M135.93,253c.41-2.23,4.62-45.11,4.86-47.39.34-3.07,2.47-24.19,2.15-27.2s-.92-3.83.21-6.78c.55-1.44-.25-8.17.78-9.57.06-.09,2.45-.47,1.76-1,.83-1,27.9,4,29,2.67-1.11.15,13.52,2.6,12.84,2.69-.47.32,8.09-.45,7.89-1.37,1.86-.53,11.18,5.93,13.26,4.22-2,7.1-4.87,17-4.43,23.57a165.39,165.39,0,0,0,2.26,17.3c.13.74,6.69,42.39,6.75,43.14C163.17,278,137.42,254.42,135.93,253Z"/><path class="cls-2" d="M127.36,44.77c4.53-4.37,12.73-6.56,19-3.61a46,46,0,0,1,7.8,4.49c.65.48,1.08.88,2,.22,6.49-4.82,13.07-3.38,19.62-.1a35.9,35.9,0,0,1,6.9,4.47,3.21,3.21,0,0,0,4.07.46c6.15-2.89,12.29-2.91,18,1.35a13.33,13.33,0,0,1,5.64,10.26c.09,1.61.73,2,2.22,1.91,10.11-.27,17.72,6.69,18.59,16.9.08.94.23,1.88.27,2.82.17,5.12.16,5.1,5,6.49,3.13.91,6.26,1.81,9.36,2.81a13.55,13.55,0,0,1,9.61,15.14,35.31,35.31,0,0,1-4.71,13c-4,6.45-9.49,8.21-16.55,5.59-1.5-.56-3-1.21-4.67-1.91a44,44,0,0,1-6.29,21.14,208.51,208.51,0,0,0-10.85,20.74c-4.82,10.19-6.11,21-4.69,32.13,1.76,13.9,4.75,27.59,6.8,41.44.48,3.22.61,6.5,1,9.73.23,1.79-.38,3-2.15,3.08s-2.1-1.5-2-2.93c1-12.95-2.15-25.4-4.58-37.94a15.91,15.91,0,0,0-1.23-5.72c-1.33-3.15-1.16-6.56-1.57-9.86a71.53,71.53,0,0,1-.56-11.05,39.8,39.8,0,0,1,1.42-11.06c-1.66.41-2.87,1.48-4.4,1.65a4.93,4.93,0,0,1-2.64-.09,52.92,52.92,0,0,1-8.72.23c-4.94-.37-9.68.89-15,1.89,2.39-2.62,5.19-3.15,8-3.7a42,42,0,0,1,7.35-.36c5.24.16,10-1,13.88-4.82a22.46,22.46,0,0,0,1.76-1.55c-5.84,6.88-13.72,6.17-21.48,5.93l-6.22-.53c4.65-1.33,9.5-1.15,14-2.8-.32-.75-1.27-.29-1.79-1.06,1.3-.85,3.13-.34,4.45-1.54a9.94,9.94,0,0,0-6.46-1.55c-10.85,1-21.43-1.58-32.15-2.28a4.4,4.4,0,0,1-2.76-.49c.79.52,1.76.46,2.27,1.26,7,3,14.39,2.78,21.76,3,2.66.06,5.42-.13,7.87,1.4-7.54.58-14.85,3.46-22.55,1.94-1.15.48-2.22-.26-3.35-.22a1.06,1.06,0,0,1-.85-.51l-7-4c-.06,1.23,1.48,2.32,1.83,3.86-.49.72-1.14-.29-1.79.41l2.45,3.89-2.17-.43c.46,1.82,2.17,2.81,2.87,4.65l-2.89-.47c.74,1.84,2.52,2.66,3.29,4.15-.79,1.21-1.86-.28-2.7.53,1.12,1.71,3.07,2.54,4.48,4.08-1.53.45-2.95-.87-4.49.12l1.75,1.94c-.71.68-1.51-.33-2.42.36l6.14,4.81c-2.07.18-3.72-1-6.14-1.14,2.4,2.58,5.19,3.63,7.75,5.74l-4.45-.48-.15.33,6.58,3.89c-2.34.93-4.35-.67-6.36.27l5.14,3.21-.11.49-6.5-1.06,4.38,3.31c-1.88.83-3.26-1.15-5-.22,1.9,1.68,3.75,3.33,5.82,5.18-2.08.28-3.51-1.36-5.38-.66.5,1.31,2.16,1.57,2.71,3.2-2.08-.46-3.29-2.41-5.59-2.39.75,2.19,3,2.95,3.9,5.12l-5.08-1.91c.12,1.59,2.3,2.2,1.57,3.68-.43.88-1.42-.57-2.37-.22.58,1.85,2.85,2.66,3.11,4.93l-3.23-1.38-.29.29a36.22,36.22,0,0,1,2.61,3c.52.72,2.11,1.39.45,2.61-.42.31-.05.69.41.89a6.05,6.05,0,0,1,2.36,2c-2,.18-3.61-1.3-5.62-.7,1.34,1,3,1.5,3.78,3-.95,1-2.1-.32-3,.53a62.4,62.4,0,0,1,7.42,5.19c-2.18.82-3.93-1-6-.36l5.62,4.12c-2.9,0-4.86-1.59-7.46-1.76,2,2,4.45,2.92,5.72,5.35l-6.62-2.24-.27.32,4,3.76c-1.48,1-2.77-1-4.05.15l4.43,3.87c-1.41.46-2.55-.72-3.8.22l5.21,3.76c-3.77.19-7.32-.19-10.33-2.58a4.5,4.5,0,0,1-1.79-4.33c1.32-8.41.43-16.94,1.43-25.38.82-6.9,2.09-13.7,3.42-20.5a39.52,39.52,0,0,0,.57-8.16c-.07-3.79.82-7.45.87-11.22,0-2.91.82-5.88.86-8.89s-.43-6.22-.09-9.34a1.4,1.4,0,0,0-1-1.6c-1.08-.15-.59.8-.61,1.27-.73,22.32-4.8,44.31-6.65,66.52-.48,5.9-.78,11.8-.82,17.72,0,1.12.1,2-1.39,2.21-1.34.14-1.9-.57-2.2-1.65-.7-2.45-.21-4.94-.08-7.39.77-14.39,3.2-28.61,4.83-42.91,1.36-11.92,3-23.84,2.17-35.89-.29-4.17-1.54-7.6-5.14-10.4-5.89-4.6-10.43-10.65-15.61-16a33.63,33.63,0,0,0-3.8-3.84c-7.58-5.67-9.33-13.54-8.82-22.4a107.15,107.15,0,0,0,.34-13.88A22.49,22.49,0,0,0,107,91.89c-2.2-4.87-.52-9.19,2.28-13.25.58-.84,1.3-1.57,2-2.35-7.24-3.37-14.35-4.4-21.34.35-.14.1-.32.13-.46.23-9.25,6.42-18.28,4.8-27.56-.23C43.8,66.86,25.28,58,6.94,48.84c-1.74-.88-2.85-1.8-2.2-4,.72-2.38,1.79-3,4.51-2.11,7.59,2.45,15.15,5,22.75,7.42,8,2.56,16,5,24,7.54,1,.29,1.89.83,3,.37-.35-.87-1.2-.89-1.85-1.18Q36.51,47.71,15.82,38.49c-1.8-.81-3.48-1.86-5.21-2.8a3,3,0,0,1-1.42-4.32c.88-1.88,2.38-2,4.11-1.46q12.57,4.2,25.12,8.43c7.63,2.59,15.25,5.23,22.88,7.83a4.43,4.43,0,0,0,3,.4,11.5,11.5,0,0,0-3.81-2.34Q39.24,34.36,18,24.56c-.62-.29-1.26-.55-1.86-.87-1.54-.8-2.89-1.72-2-3.79s2.46-1.9,4.11-1.32C25,21,31.79,23.39,38.6,25.74q13,4.49,26.06,8.84c1.24.42,2.53,1.06,4.2.53-1-1.37-2.51-1.81-3.8-2.43Q43,22.08,21,11.52C18.18,10.18,17.75,9,19,6.77c1-1.63,2.2-1.53,3.74-1q22.74,7.07,45.48,14c5.74,1.76,11.54,3.3,17.28,5.06,7.09,2.17,12.54,6.23,15,13.58.38,1.13,1,2.18,1.45,3.3,2.73,6.75,7.09,11.63,14.53,13.27a65.17,65.17,0,0,1,6.87,2.3c.48-2.85-.22-5.71,1.23-8.22.61-.22.82.22,1,.62,2.21,0,2.41.21,1.75,2.47a59,59,0,0,0-2.36,11c-.24,2.35-.49,4.7-.62,7.06.12-2.11.43-4.21.54-6.32.47-5.43,2.17-10.56,3.73-15.73.59-1.94,1.49-3,3.88-2.67s4.79.27,7.18.44c.41,0,.91.07,1,.57s-.32.76-.66,1a11.51,11.51,0,0,1-5.63,1.61c-1.11.07-2.25-.06-3.22.94,4.48,2.25-.59,3.46-.49,5.42.53,1,2.73.14,2.59,1.69-.12,1.2-1.9,1.25-2.77,2.06.44.66,1.11.51,1.64.69.77.26,2,.18,2,1.19s-1.25.94-2,1.27c.56.46,1.8.59,1.51,1.47-.45,1.33-1.92,1.19-3.05,1.41-.35-.1,0,.51-.07.17,0-.06.06,0,.2,0,.73,0,1.43.18,1.6,1s-.55,1.17-1.09,1.58-1.24.58-1.67,1.21c.67.85,2.38.11,2.56,1.61.08.66-.48.88-1.11.86,5.54-.31,11.19-.13,15.8-4,2.32-.9,2.32-.9,2.26,1,.39-1.49.13-3,.53-4.53,1.24-4.22.45-8.61,1.09-12.87,1.8-2.05.15-3.31-1.06-4.67-5.54-5.21-11.26-5.94-17.81-2.22a8.65,8.65,0,0,1-3.89,1.15C127.65,45.44,127.31,45.29,127.36,44.77Z"/><path class="cls-2" d="M185.68,184.46c-2.29-1-4.63-.39-7-.26-1,.05-2.05.07-3.48.11a15.14,15.14,0,0,1,12.15-2.58,11.82,11.82,0,0,0,7.74-1c-6.62.36-13.2-2.11-19.86.11,4.19-1.92,8.31-3.48,13-2.46,3.42.74,6.8-.35,10.1-1.28.78-.93,2.08-.64,3-1.26.4-.13.8-.29,1.2-.43s1.08-.19,1.36.34c.19.37,0,.83-.27,1.2a3.76,3.76,0,0,1-2,1.71c1.61-.15,1.77.81,1.84,2,.19,3-.6,5.93-.68,8.92a15,15,0,0,0,.34,4.83c1.13,3.77.44,7.87,2.11,11.54a1.32,1.32,0,0,1-.25,1.44c-.19,7.76,2.13,15.15,3.41,22.69.58,3.46-.08,6.93.34,10.37a28.19,28.19,0,0,0,.72,3.75c1.74,6.48-4.31,11.54-9.15,12.76.6-1.9,2.32-2.74,3.46-4.05.43-1.23-1.47-.14-1.21-1.2a7.39,7.39,0,0,0,2.36-2.26c-.76-.73-1.46.18-2.17-.07.25-1,1.2-1.57,1.2-2.59-1-.42-1.45.75-2.73.74l2.45-4.41-1.94.1,1.6-4-2.64,1.09c.6-1.46,1.08-2.6,1.55-3.74-.83-.46-1.34.45-2.19.21.21-.38.58-.74.55-1.07-.06-.57,2.59-1.57-.26-1.79-.44,0,.14-.63.31-.88.75-1.15,1.61-2.22,2.31-3.4.17-.28,2.1-1.66-.47-1.26-.58.09,0-.64.12-.93.37-1,.82-1.86,1.25-2.79-1-.53-1.56.71-2.55.45,0-1.77,1.55-3,1.69-4.61-.58-.55-1.12.6-1.66-.1.34-1,.67-2,1-3-.76-.36-1.12.7-1.84.12,1.69-3.29-1.36-6.75.46-10-1-.65-1.22.7-1.92.45-.65-.72,2-3.07-1.36-2.52.12-1.18,1.18-2.14,1-3.57-1.28-.06-1.39,1.8-2.64,1.64-.61.33-1.4.6-1.46-.37s.88-.9,1.61-.82a7.17,7.17,0,0,0,2.09-3.75c-.76-.48-1,.8-1.93.37L198,195c-1-.64-1.46.89-2.42.42L197,193l-2.55-.29,2.07-2.51c-.43-.75-1.17-.07-1.65-.56,1.36-1.83,3.86-3,3.45-6.13-2.86.86-5.86.79-8.79,1.31A4.18,4.18,0,0,1,185.68,184.46Z"/><path class="cls-2" d="M187.56,258.86a59.06,59.06,0,0,1-10.5.23c3.81-1.65,7.35-2.17,10.77-3.58l-3.67-.54,5.36-2.6-5-.46c.27-1.19,1.5-.89,2.18-1.86l-6.27-1-.23-.66c3.9-.36,6.88-2.51,10-4.75-2.94.1-5.76.25-8.59.26a18.7,18.7,0,0,1-8.83-2.2c5.2.2,9.71.82,14.79-.31A19,19,0,0,1,184.8,240c-.58-.43,0-.66.38-.83a9.5,9.5,0,0,1,7.24-1.43c1.67-.11,3.44-.31,1.53,2.18l1.9.63c-.18,1.46-1.68,1.49-2.28,2.47.69.73,3.54.34,1.4,2.61-.82.86,2,.22.66,1.38a17.75,17.75,0,0,1-2.23,1.24c-.3.17-.35.4-.14.82.76,1.51.72,1.53-.45,2.67,3.17,1.13,3.17,1.13,1.12,3.1.44.65,1.08.19,1.61.28l1.69.25a4.06,4.06,0,0,1-2.87,2.06C192.34,259.16,190,259.18,187.56,258.86Z"/><path class="cls-3" d="M195.69,207.57c.91,1.26.88,1.33-1.5,3l2.49-.38c.26,1.48-1.31,1.82-1.74,2.83.69.69,1.56,0,2.27.48-.11,1.38-1.84,1.37-2.3,2.49.86.59,2.49-.18,2.72,1.15.16.92-1.07,1.56-1.86,1.92-3.55,1.63-12.46,3.24-16.07,1.31,2.1-.43,3.78-.69,5.42-1.12a40.73,40.73,0,0,0,5.09-1.74c-3.61.34-7.21.78-10.82.26.54-1.55,2-.9,3-1.16,1.87-.83.24-.81-.24-.86a16.14,16.14,0,0,1-6.88-1.82l8.42-.57a67.74,67.74,0,0,1,7.47-1.1c-2.43,0-4.27.87-6.13.32a22.19,22.19,0,0,1-9-1.22c3.06-1.22,5.88-1.2,8.66-1.25a12.94,12.94,0,0,0,4.51-.65C191,207.6,193.27,207.32,195.69,207.57Z"/><path class="cls-4" d="M157.81,170.51l.6,0a9.4,9.4,0,0,1,3.68,1.45,71.9,71.9,0,0,0,9.1,4.1l-2.64.39-.21.46,2.66,1c-2.58.64-4.86-.85-7.41.1a29.28,29.28,0,0,1,7,3.8l-6.71-.87c2.19,1.69,4.92,2.37,7.15,4.56-2.45,0-4.51-1-6.63-.38-1.66.74-2.57-.56-3.66-1.34A6.39,6.39,0,0,1,158,182c-1.4-1.28-1.12-2,1-1.92a20.79,20.79,0,0,1-1.81-2.06c-.32-.48-1-1.24.3-1.48.4-.08,1.08-.38.54-.74-2-1.33-1.83-3.49-2.4-5.47A2.71,2.71,0,0,1,157.81,170.51Z"/><path class="cls-3" d="M177.61,226.37l4.63-.61c-2.55-1-5.19-1.59-7.55-3.22a52.21,52.21,0,0,0,22.91-2.83c.34,1.14-1.9,2.73.78,3,.72.07.22,1-.14,1.46a6.24,6.24,0,0,1-3.22,2,37.23,37.23,0,0,1-16.76.75C178,226.84,177.87,226.58,177.61,226.37Z"/><path class="cls-3" d="M185.12,202.58a58.36,58.36,0,0,1-8.94.37l6.42-3.84-6.51-.09c3.25-1.9,6.06-3.19,9.28-3.41,1.14-.15,2.34-.85,3.37.29a11,11,0,0,1,4,.82c-.71,1.53-2.21,1.32-3.35,2.05,1.48,1,3.27.6,4.66,1.46-.2.91-1,1.08-1.64,1.35C190.2,203.48,187.67,203.07,185.12,202.58Z"/><path class="cls-5" d="M188.74,195.9c-1.1-.38-2.29.35-3.37-.29-3.15-1.31-6.28-.58-9.87.32,1.52-1.92,3.27-2.69,5.48-3.83l-5.52,0c4.9-4.24,12.46-4.73,16-1.71-.79.86-2,.94-3,1.5,1.07,1,2.75.84,3.6,2C191.25,195.2,189.36,194.45,188.74,195.9Z"/><path class="cls-6" d="M197.28,226.09c-.51,1.52-1.61,2.16-2.42,3.2l2.62.43c-3.28,3.68-18.24,5.91-23.3,3.38,4.37-1.36,9-.25,13.49-2.26-2.35-.77-4.53.13-6.64-1.36C186.64,228.48,192,227.74,197.28,226.09Z"/><path class="cls-7" d="M165.59,196.56l5.29,2.86c-3.81,1-7.58.52-9.44-1.19-.62-.56-2-1.07-.57-2.35.73-.66-.4-.85-.69-1.25s-1.26-.95-1-1.66c.36-.89,1.32-.49,2-.48a15.68,15.68,0,0,1,10.13,4.19C169.42,196.76,167.63,196.16,165.59,196.56Z"/><path class="cls-7" d="M160.73,183.81c1.41-.08,2.3,1.26,3.66,1.34,2,1,4.42,1.5,6.28,3.69-2.2-.21-4-.72-6.25-.43l5.45,3.15-.12.47c-1.91,0-3.82,0-5.72-.17-2.92-.27-3.49-1.06-3.35-4,0-.17-.26-.38-.43-.52C158.3,185.84,158.1,184.63,160.73,183.81Z"/><path class="cls-5" d="M185.49,238.28a21.1,21.1,0,0,1-9.86-1.07c1.59-.24,3.2-.42,4.78-.72a62.23,62.23,0,0,0,11-2.59,19.88,19.88,0,0,1,4-.8c.57-.09,1.32-.13,1.58.51s-.47,1-.9,1.36a7.83,7.83,0,0,1-3.36,1.79A13.41,13.41,0,0,1,185.49,238.28Z"/><path class="cls-5" d="M185.68,184.46c1.3,0,2.63-.34,3.87.32a19.5,19.5,0,0,0,7.56,1,7.3,7.3,0,0,1-5.76,2c-5.21,0-10.43-.64-15.81.38C177.51,186.31,178.13,186.09,185.68,184.46Z"/><path class="cls-8" d="M187.56,258.86l6.8-1.39c-.19.43-.32.84.39.82.91,0,1.85-.29,2.86.69-4.88,4.69-10.71,3.26-16.36,2.8,2.18-.67,4.38-1.28,6.53-2C189.2,259.21,187.81,259.12,187.56,258.86Z"/><path class="cls-2" d="M184.22,205.9a19,19,0,0,1-7-.84l9.08-1.85a14.51,14.51,0,0,1,5.75-1c2.53.86,1.66,3.12,2,4.88a1.69,1.69,0,0,1-1,.56c-2,1.13-3-.59-4.26-1.49C187.28,206.31,185.71,206.81,184.22,205.9Z"/><path class="cls-5" d="M160.68,260.69a14.16,14.16,0,0,1-6.52-4.8l3.62,1.16a10.16,10.16,0,0,1,5.14,1.51c3.6,1,7.32.89,11.21,1a6.22,6.22,0,0,1-2.79,1.6C167.73,262.37,164.14,263.15,160.68,260.69Z"/><path class="cls-9" d="M168.5,262.63a38,38,0,0,0,7.21-.11c-4.27,4.22-14,3.37-18.62-1.53,1-.4,1.81.4,2.69.32A64.18,64.18,0,0,1,168.5,262.63Z"/><path class="cls-1" d="M183.57,173.94c4-.16,7.94-1.15,12-1,2.85.11,5-1.6,6.8-3.65a6.83,6.83,0,0,1,4.42-2.13c-4.53,5-9.76,7.93-16.31,8-2.81,0-5.62-.26-8.42-.4C182.54,174.44,183.24,174.54,183.57,173.94Z"/><path class="cls-9" d="M170.44,213.3c-.39,1.07-1.61.75-2.47,1.51l4.29,1.8c-3.4.68-6.21,1.4-8.85-.24-.62-.39-3.23-1-.38-2.68C165.39,212.29,167.37,211.67,170.44,213.3Z"/><path class="cls-10" d="M164.72,251.81c1.15.32,2.29.69,3.46.94s2.18.32,3.34.49c-4.2,3.24-13.08,1.08-15-3.65l3.62,1.18A6.84,6.84,0,0,1,164.72,251.81Z"/><path class="cls-11" d="M160.69,250a10,10,0,0,1-4.36-4.24,44.58,44.58,0,0,0,14.75,3.58c-2.12,1.74-2.25,1.78-6.49,1.81A4.24,4.24,0,0,1,160.69,250Z"/><path class="cls-8" d="M158.24,256.39c-.86-.9-2-1.59-2.24-3.24a73.76,73.76,0,0,0,12,3.06c-1.44,1.53-3.11,1.3-4.58,1.64C161.48,258,159.67,257.89,158.24,256.39Z"/><path class="cls-2" d="M185.15,208.85c-3.46.65-6.87.1-10.73-.27,3.28-1.51,6.38-1.69,9.44-2.08.84-.06,1.67-.52,2.53-.11.86.2,1.43.79,1.14,1.61C187.14,209.09,186,208.81,185.15,208.85Z"/><path class="cls-11" d="M159.43,220.85c2.88.87,5.67.86,8.16,2.05a3.28,3.28,0,0,1,1.8,1.33C166,225.82,160.8,224.21,159.43,220.85Z"/><path class="cls-10" d="M158.6,234.71a5,5,0,0,1-1.68-2.82l9.75,2.65c-1.42,1.49-3.07,1.26-4.58,1.47A2.8,2.8,0,0,1,158.6,234.71Z"/><path class="cls-12" d="M168.46,246.18c-5.18,2-8.75.7-10.14-3.39C161.41,244.32,164.7,245,168.46,246.18Z"/><path class="cls-12" d="M166.39,230.51c-4.11,3-7.56,1.83-8.64-2.89C160.42,229.29,163.13,229.9,166.39,230.51Z"/><path class="cls-13" d="M161.67,236.65l4,1.27c-3.38,2.12-6.81,1.44-8.11-1.33-.26-.57-1-1.61.68-1.27A8.27,8.27,0,0,1,161.67,236.65Z"/><path class="cls-12" d="M158.44,239l6.84,2.48C162,244,159.28,243,158.44,239Z"/><path class="cls-14" d="M162.65,228.13a2.71,2.71,0,0,1-2.79-.82c-.52-.62-1.26-1.47-.77-2.26s1.32,0,2,.21a8.37,8.37,0,0,1,1.9.72c.55.29,1.65.16,1.52,1S163.41,228,162.65,228.13Z"/><path class="cls-3" d="M185.15,208.85c.68-.36,1.8,0,2-1.09.16-.77-.69-.77-1.13-1.08.78-1.19,2.32-.44,3.23-1.29.45,0,1.07.09,1.08.47,0,2.35,1.59,1.46,2.78,1.37-1.38,1.53-3.18,1.74-5.08,1.58C187.08,208.73,186.12,209.31,185.15,208.85Z"/><path class="cls-15" d="M169.11,209.08a3.61,3.61,0,0,1-3.11,1.36c-1.26-.09-2.67-.74-2.49-2s1.56-.27,2.33-.11C166.87,208.58,168,208.3,169.11,209.08Z"/><path class="cls-3" d="M194,206.92c-1.67-1,0-3.17-1.4-4.3.23-.46.63-.46,1.06-.39.89,0,1.78-.38,2.66.05-.44.24-1.3,0-1.18.86.07.48.65.3,1,.33-1.75.59-.47,2.6-1.62,3.47A.36.36,0,0,1,194,206.92Z"/><path class="cls-1" d="M168.5,262.63a24.17,24.17,0,0,1-8.72-1.32l.9-.62a21.18,21.18,0,0,0,10.66.45C170.73,262.28,169.09,261.45,168.5,262.63Z"/><path class="cls-12" d="M166.72,219c-3,1.73-4.74,1.09-5.36-2Z"/><path class="cls-1" d="M185.49,238.28l7.25-1.52c-.18.32-.53.59-.32,1l-7.24,1.43Z"/><path class="cls-16" d="M168.71,204.48c-2.56,2-3.46,1.9-5.37-.93Z"/><path class="cls-1" d="M194,206.92l.55,0,1.17.63c-2.3.16-4.29,1.36-6.48,1.91l-1.17-.67c1.63-.74,3.61-.33,5.08-1.58Z"/><path class="cls-1" d="M193.63,202.23l-1.06.39c-2.15-.42-4.17.54-6.28.59l-1.17-.63,7.3-1Z"/><path class="cls-1" d="M158.24,256.39a18.43,18.43,0,0,0,5.14,1.46l-.46.71a11.92,11.92,0,0,1-5.14-1.51Z"/><path class="cls-1" d="M185,212.6c1.88-.56,3.87,0,5.76-.55-2.32.72-4.58,1.71-7.1,1.33Z"/><path class="cls-17" d="M127.36,44.77l.65.42A8.45,8.45,0,0,1,125.27,50l-.65-.9A7.84,7.84,0,0,1,127.36,44.77Z"/><path class="cls-1" d="M160.69,250l3.9,1.15.13.65a11,11,0,0,1-4.54-1Z"/><path class="cls-1" d="M189.26,205.39c-.85,1-2.13.91-3.23,1.29-.72-.08-1.49.37-2.17-.18l.36-.6Z"/><path class="cls-1" d="M202.62,251.67c.1.7,2.47-.87,1.21,1.2-1.47-1.22-2.23,1.56-3.71.44A5.09,5.09,0,0,1,202.62,251.67Z"/><path class="cls-1" d="M154.93,165c-1.37-.14-2.44-1-4.17-1.72a10.48,10.48,0,0,1,4.66,1Z"/><path class="cls-18" d="M182.38,216.63c-.87.71-2.22.18-3,1.16l-1.88-.17A9.66,9.66,0,0,1,182.38,216.63Z"/><path class="cls-1" d="M161.67,236.65a8.27,8.27,0,0,1-3.48-1.33l.41-.61,3.49,1.3Z"/><path class="cls-1" d="M200.3,175.8l1.14.25a5,5,0,0,1-3,1l-.66-.76Z"/><path class="cls-1" d="M162.09,172l-3.68-1.45c1.33-.41,2.46.16,3.6.71Z"/><path class="cls-1" d="M143.22,156.85c-3.6-1.93-6.38-4.83-9.12-7.76-3.61-3.86-7.14-7.79-11.57-11.86,5.63-.29,11,.32,14.92-4,0-.31.24-.59.11-.92-.4.25-.94.19-1.25.61-1.92,1.14-3.8,2.38-6.08,2.66-.56.07-1.4.07-1.69-.27-.57-.66.38-1.12.86-1.92-1,.2-1.69.29-2.37.49-5.67,1.64-10.43-.38-13.16-5.64-2.47-4.76-3.23-9.88-3.33-15.19-.11-5.61,0-11.25-.84-16.86,1.84,2.34,2.09,5.15,2.17,7.93.14,4.54,0,9.09.11,13.63a18.47,18.47,0,0,0,3.25,10.42c2.84,4,7.5,5.52,12.54,3.73-4.27-.34-7.92-1-10.22-4.55,3.89-.16,7.76-.09,11.48-1.64-3.71-.19-7.44-.18-11-1.51a44,44,0,0,0,8.69-2.28c-5.16-.37-10.19-1-13.62-5.55,3.1,1.06,6,3.09,10.06,1.71a22.73,22.73,0,0,1-5.92-3.46c2.72-.27,5.2.71,7.72-.64-5.15-2-9.67-4.48-11.51-10.65,2.1,2,3.49,4,5.8,5.18-3.24-5.42-4.7-11.65-9.5-16a5.93,5.93,0,0,1-1.7-5.92c.43-.21.71,0,1,.32,2.18,5,5.68,8.86,10.44,12.52-1.17-3-2.7-5.24-2.06-8,.05-.23,0-.49,0-.74-.09.08,0,.33-.08.41-1.1,1.09-1.11,1.08-1.71-1,0,.71.47,2-.69,1.86-2.32-.31-2.56-2.45-3-4.21,0,.14.08.35.11.57.1.75.59,1.79-.21,2.13-1,.43-1.39-.65-1.74-1.43-.62-2-1.15-4-.17-6.12.14-.3.13-.54,0-.22,0,.06-.31,0-.48.07a2.1,2.1,0,0,1-.26-.13c3.1-7.73,8.82-10,16.75-9.33,5.83.47,11.44-.24,17.14-.68,3.82-.29,7.65-1,11.47-1,14.11,0,16.24,12.34,11.4,20.56-.46.23-.7,0-.89-.39-.28-1.84.64-3.51.76-5.31.27-4.26.18-5.16-1.62-9.41-.14-.32-.25.28,0,0,.07-.07.12,0,.19.15,2.29,5.87,1.52,11.42-1.67,16.74-.21.35-.92.74-.12,1.23.3.15.55.33.44.72a31.89,31.89,0,0,1-22.7,9.79c-.21-.67.3-.88.73-1.14,5.74-1.17,11.31-2.78,15.93-5.85a12.67,12.67,0,0,1-9.44,0c-1.44-.62-.55.21-.6.63-.14,1.09-1,1-1.77.93a10.27,10.27,0,0,1-5.12-2c.27.68,1.42,1.42.66,2.17-1.23,1.21-2.51-.1-3.77-.37-.18-.29-.19.38.07.16,0,0,.07,0,.18.18a2.2,2.2,0,0,1,.33.69,1.07,1.07,0,0,1-.46,1c-2.31.61-3.8-1-5.51-2a24.49,24.49,0,0,1-2.6-2c-.27-.22-.32.27-.16,0,0,0,.1,0,.23.11a25.65,25.65,0,0,0,2.4,1.9c.73.51,1.89,1,1.22,2.13-.53.92-1.56.46-2.31.11a29.37,29.37,0,0,1-5.43-2.8c-.45-.13-.39-1-1-.79-1.57.53-.09,1.39-.18,2.09.43.62,1.2,1,1.22,1.93-.74.12-2-.11-.8,1.26,2.48,2.3,5.74,3.17,9.19,4.78-5.14,1.39-9.23,0-13.13-2.55,3.26,4.9,7.89,6.17,13.54,5.46-1.15,1.8-3,1.83-4.64,2.47.86,1.33,2.43.53,3.68,1.36-1.54,1.59-3.56,2.22-5.4,3.19,3.54.87,6.5-.83,10.84-6.44-.54,5.09-4,7.39-7.15,10a5.13,5.13,0,0,0,4.22-1.32c1.16-.82,2.25-1.72,3.7-2.84.22,5.35-3.5,7.16-7.32,9.36,6.54-.31,9-4.32,10.25-9.63.48,1.6.52,1.62.27,2.64-.11.47-.63,1,0,1.3s1.11-.19,1.41-.79l2.61-5.32c1.19,4.22-.65,7.89-1.11,12.39,3.85-6,5.7-11.55,2.11-17.72,1.85.63,1.85.63,3.62,3.77a5.59,5.59,0,0,0,.12-3.57c2,1.84,2.66,4.16,3.82,6.27,1.05-.79.1-2.06.79-3.14,1.42,1.64,1.71,3.68,2.85,5.44l.67-4.43c1,2.32,1.85,4.16,2.79,6.29.88-2,.2-3.77.47-5.71,5,4.11,6.89,9.49,7.24,16.3,1.92-4.91.62-8.95-.5-13-.24-.46-.67-1,.3-1.11,1.85,2.87,2.32,6.21,3.26,10.08a15.1,15.1,0,0,0-.4-10.43c2.84,3.88,3.47,8.54,4.71,13.65.73-3.65-.34-6.62-.39-9.73,4.77,5.43,6.7,15.93,3.88,21.5-.63-.91,0-2.12-1-2.9-1.26,8.81-6.49,14.06-14.68,16.66a1.51,1.51,0,0,1-.8.58l-1.09.31a4.22,4.22,0,0,1,2.57-.11l2.66-.37a24.67,24.67,0,0,1-17.92,2.9c-.15-.48.14-.72.48-.93,1.85-.67,3.75.15,5.92-.2-1.22.08-2.39.2-2.56-.89-.14-.88,1-1,1.72-1.21,1.83-.47,3.7-.79,5.55-1.16,9.63-2,13.89-6.6,15-15.72-2.2,5.29-5.29,10.68-11.81,13.13a1.36,1.36,0,0,1-1.33-.54c-.1-.83.48-1.25,1-1.62A16.57,16.57,0,0,0,172,138c-1.88,5.81-6.17,9.55-11.3,12.6-1.06.63-2.72.74-2.82,2.51.3.42,1,.69.49,1.4a9.86,9.86,0,0,1-4.41,1.2c-.67.09-2.72-1.31-4.28-2.4-.41-.29-1.38.14-2.1,0s-1.77-.08-1.94-.92.86-1.11,1.52-1.38a118.94,118.94,0,0,0,11.06-5.4c5.05-2.67,6.26-7.36,7.18-12.31-1.24,6.61-8.16,13.37-15,14.67-.54,0-1-.12-1.28-.7.3-1.17,1.38-1.44,2.26-1.92a24.86,24.86,0,0,0,5.34-3.56,12.51,12.51,0,0,0,4-9.74c-.13,2.5-1.76,4.94-3.89,7.12a1.34,1.34,0,0,1-1.63.43.8.8,0,0,1-.17-1.15c2.7-4.35,2.16-9.25,2.36-14a1,1,0,0,0,0-.25c-.17,1.14-.18,2.3-.25,3.46a15.76,15.76,0,0,1-.93,3.74c-.34,1-.56,2.19-1.66,2.8a1.48,1.48,0,0,1-1.63-.73c-.6-1.09.14-2.26,0-3.38-.29,2-.73,3.91-2.6,5.09a1.08,1.08,0,0,1-1.27-.51c-.33-1.55,1-2.5,1.41-3.76a18.61,18.61,0,0,0,.8-4c-1.79,5.48-5.46,8.93-10.39,11.18a6.77,6.77,0,0,1-2,.64c-.52.06-1.11.12-1.43-.34s.08-1,.4-1.36a14.22,14.22,0,0,0,2.84-4c-3.48,3.2-7.3,5.43-12,5.51.38.2,1,.06,1.55.29a4.74,4.74,0,0,1,1.73,1.5,18.08,18.08,0,0,0,1.57,1.33c.65.57.14,1.28.28,1.82a4.27,4.27,0,0,0,1.48,2.59,12.41,12.41,0,0,1,4.14,4.07c1.34,2.49,3.55,3.12,5.52,4.42,1.23.8.65,1.54-.4,2.06A2.43,2.43,0,0,1,143.22,156.85Z"/><path class="cls-1" d="M69.16,25.1l6.16,3.06C81,31,83,35.77,82.7,41.82c0,.85-.1,1.7-.16,2.55a.83.83,0,0,0-.05.72c.17.33-.07.69.15,1a2.46,2.46,0,0,1,.61-.78c.67-1.68,1.3-3.36,2-5,.28-.65.39-1.73,1.37-1.56s.86,1.19,1,1.92c.17,1,.23,2.12.35,3.36,1.43-.81,1.18-2.36,2.44-3.82.72,6.72-1.55,12.57-2.06,18.64,3.63-5.06,4.83-10.94,5.8-17,2,4.26,1.82,8.61.58,13s-3.53,8.29-5.51,12.79a9.78,9.78,0,0,0,5.38-4.28c.63-.9,1-2.11,2.38-2.06s1.32,1.52,1.86,2.43c1.13-.77,1.22-2,1.75-2.91,1.12-2,2.41-2.07,3.61-.17a2.26,2.26,0,0,1,.22.47c.7,2,1.24,4.39,3.4.84.58-1,1.63-.83,2.45-.07s1.72,1.67,2.61,2.49a2,2,0,0,0,2.7.4c1.8-1.05,3.85-.25,5.8-.17a1,1,0,0,1,.66.34c.76,1-1.29,7.08-2.48,7.5a4.53,4.53,0,0,1-3.24,0c-3-1.11-6.2-2-9.25-3.1-5.27-2-10.27-1.23-15.14,1.26-1.6.82-3.27,1.53-4.78,2.5-6.67,4.3-13.44,4-20.28.52Q50.23,65.19,33.21,57.53,21.6,52.33,9.94,47.19c-.55-.24-1.12-.44-1.65-.72-.82-.43-2-.87-1.52-2s1.53-.33,2.22-.1c13.29,4.34,26.55,8.74,39.83,13.1,3.09,1,6.23,1.89,9.32,2.91,2.18.72,3.52.22,4.34-2.09s.39-3.84-1.86-4.81c-3.23-1.38-6.45-2.78-9.71-4.11C38.45,44.28,26,39.24,13.53,34.09c-.92-.39-2.93-.46-2.37-2,.5-1.33,2.11-.3,3.11,0q23.76,8,47.49,16.11c3.13,1.07,4.12.62,5.23-2.44.87-2.37-.07-3.75-2.22-4.65-7.67-3.23-15.31-6.5-23-9.69C37.19,29.6,32.56,27.82,27.94,26c-3.41-.33-6.16-2.49-9.35-3.43-1-.58-2.26-.8-2.86-1.95.46-2,1.73-.73,2.5-.48,5.86,1.93,11.69,4,17.52,6C46,29.6,56.17,33.14,66.4,36.62c3.61,1.22,4.94.4,5.75-3.18.57-2.49-.94-3.66-2.85-4.52-6.73-3-13.44-6.1-20.21-9-8.49-3.7-17.17-6.94-25.91-10-1.06-.37-3.25-.44-2.83-1.85.49-1.66,2.36-.65,3.59-.26,11,3.45,21.89,7,32.86,10.41C65,20.71,73.22,23.1,81.42,25.57c1.23.37,2.45.78,3.68,1.17C91.81,28.88,96.58,33.06,99,39.82c.6,1.69,1.37,3.33,2.14,5,2.58,5.51,6.33,9.72,12.44,11.45,2.63.75,5.2,1.76,7.77,2.71.7.27,2.07.11,1.75,1.37-.37,1.45-1.44.37-2.09.19-2.73-.74-5.4-1.66-8.12-2.43-8-2.27-12.86-7.51-14.8-15.56A40.54,40.54,0,0,0,96.6,38.1,11.19,11.19,0,0,0,89.69,31c-6.61-2.41-13.23-4.75-20-6.69-2,.16-3.56-1.16-5.21-1.38C65.89,23.62,67.88,23.61,69.16,25.1Z"/><path class="cls-1" d="M197.35,99.07a30.55,30.55,0,0,1-3.49,6c-1.71,2.46-4.62,2.31-7.15,3,0,.73,1.15.28,1.07,1.14-3,.43-5.93.47-8.72-1-.71-.36-1.57-1-1.3-1.71.41-1.14,1.28-.14,1.91,0,2.29.52,4.57,1.27,7.35-.49-3.15-.11-5.68-.25-8-1.66,1.42-1,3,.08,4.48-.68a7.75,7.75,0,0,1-4.12-4.68l3.92-.79a9.81,9.81,0,0,1-4.46-5.38,12.83,12.83,0,0,0,6.54-1.08c-1.67-1.75-3.51-3.26-4.9-5.6a12.56,12.56,0,0,0,5,.48c-2-2.13-3.72-4.15-4.4-7l3.59.46c-1.25-2.39-3-4.2-3.58-6.76a17.32,17.32,0,0,0,5.56.1c-1.16-1.26-2.6-2.21-3.12-3.8-.17-.52-2.17-1.75.44-1.94.76,0-.19-.93-.19-1.45,0-3.88-1.75-8.05,1.09-11.5s6.84-4.31,11.2-3.38c.32.59-.16.89-.45,1.25,2.34,1.31,4.95,2.11,7,3.87.65.56,1.56,1.19,1.15,2.1s-1.51.48-2.31.32c-1.35-.28-2.7-.53-3.56-.77a11,11,0,0,1,4.59,2.15c.82.66,1.67,1.33,1.34,2.55s-1.41,1.36-2.48,1.37a40.81,40.81,0,0,1-9.65-.72A15.88,15.88,0,0,0,198,65.64a15.89,15.89,0,0,1,2.27.41c.58.19,1.19.41,1.22,1.15s-.59,1-1.16,1.19c-2.21.77-4.39.35-6.72-.18a29.26,29.26,0,0,0,6.79,1.26c.79,0,2-.09,2.07,1s-1.09,1.39-2,1.62c-2.14.53-4.27,0-6.39-.15-1-.09-2-.37-3.25-.44a15.43,15.43,0,0,0,6.88,2.21c.84,0,2.29-.34,2.33.86s-1.39.94-2.27,1.14a2,2,0,0,1,.37,0c1.31.25,3.2-.91,3.82.42s-1.42,2.27-2.08,3.59c.48.78,2,.14,2.14,1.35s-.91,1.57-1.62,2.18c-.9.79-1.93,1.41-3.07,2.38,2.56.83,1.87,2.14.65,3.55-.6.7-1.7,1.18-.68,2.53.62.81-.38,1.57-1.06,2.06a23.53,23.53,0,0,1-4.76,3c.86.22,2.23,0,2.35,1,.22,1.91-1.77,2.53-2.84,3.81.56.52,2.2.57,1.14,2a8,8,0,0,1-2.35,1.89,15.55,15.55,0,0,0,5.4-5.5c.4-.64.66-1.43,1.56-1.6C197.15,98.42,197.47,98.56,197.35,99.07Z"/><path class="cls-1" d="M173.88,105.32c-1.75,3.9-5.25,4.37-8.85,4.28a18.75,18.75,0,0,1-6.48-1.64l5.61-1.14c-2.58-1.09-5.31-1.27-8.37-2.83,3.44-1.06,6.55-1.34,9.25-2.86-.68-.8-1.93-.26-2.72-1,.85-1.66,3.86-2.19,3.8-3-.14-2.09,1.37-2.92,2-4.35,1.84-.58,3.79-.86,5-1.83-.91.15-1.95,1.25-3.34,1.33-.48,0-1.23.63-1.31-.49a3.5,3.5,0,0,1,2.8-2.26,5.05,5.05,0,0,0,3.17-1.94c-1.21-.19-2.07.39-3,.55-.5.08-1.18.86-1.5,0s.36-1.11,1.08-1.41a11.87,11.87,0,0,0,5.22-4.34c-1.95-.22-3.38.88-5,1.13-.56.08-1.16.53-1.47-.37s.35-1.14,1.07-1.27c2.1-.38,4.08-1,5.55-3-1.93-.27-3.15.82-4.51,1.37-1.67.68-2.93.94-3.23-1.39a4,4,0,0,0-.55-1.15c-.69-1.83.8-1.28,1.5-1.24,2.06.11,4-.09,5.6-1.85-2.78.29-5.15,2.28-7.91,1-2.21-3.52-5.8-4.82-9.59-6.14l3.7-.76-4.59-2.73c1.43-1.15,3-1.17,4.64-1.8-1.33-.85-3-.13-3.8-.92-1.27-1.19,1-1.82.94-2.95-.78-.6-1.89.84-2.49-.34s.12-2,.66-2.88c.86-1.37,1.84-2.67,2.93-4.24-3.81,1.24-5.69,4.2-5.2,7.9.36,2.72,1,5.41.63,8.18-.1.82,0,1.71-1.3,1.76-1.54.06-1.07-1.07-1.08-1.77a92,92,0,0,1,.9-11.25c0-.34.2-.66.25-1,.26-1.86,2.61-3,1.82-5.2,2.54-1.67,3.64-5.09,7-5.81,6.73-1.46,12.2.89,16.91,5.56l0-.07c-.11.12-.34.26-.33.36,2.11,11.2-1,22.08-2.14,33.07-.59,5.69-1.73,11.33-2.62,17a16.57,16.57,0,0,1-6.31,4.57c1.39-.44,2.64-1.21,4-1.65C173.11,104.06,174.11,103.79,173.88,105.32Z"/><path class="cls-1" d="M201.63,142.24l-2.29-2.13c-.22-.52,0-.73.51-.71,2.05.84,3.9,2.13,6.08,2.65a3.88,3.88,0,0,1,1.74.36c.3.16.25-.43.14-.11,0,.07-.3,0-.47-.09a2.25,2.25,0,0,1-.94-.84,42.35,42.35,0,0,1-6.66-4.51.9.9,0,0,1-.22-1.26c3.12,1.69,6.3,3.23,10,3.39-5.32-2.91-10.68-5.71-15-10-.23-.5,0-.69.47-.66,5.4,3.12,10.93,5.89,17.3,6.45-4.43-3.67-10.71-3.73-14.89-7.95,4.73,1.44,9.22,3.74,14.26,4,1,.26,2-.57,2.78-.06a5,5,0,0,1-1.85-.65c-4-1.26-8-2.59-11.55-5-.2-.5-.06-.77.5-.76a45.65,45.65,0,0,0,15.86,2.54c-4.28-1.48-8.71-2.49-12.68-4.75-.14-.43-.07-.72.48-.68a46.91,46.91,0,0,0,12.06,1.42c-.53-1-1.61-.56-2.18-1.14.57-2,2.36-.91,3.54-1.36.56.21,1.12.4,1.67.62,2.34,1,2.46,1.83.41,3.91a4.15,4.15,0,0,0,4.73.24c.65-.38.94-1.77,2-.94.83.65,0,1.59.05,2.41a3.73,3.73,0,0,1-.21,1,.65.65,0,0,1-.61.25c-1.56-.61-2.73.7-4.28.76.47.35.91.34,1.24.57a1.22,1.22,0,0,1,.68,1.19c-.7.92-1.85,1.08-2.84,1.71,1.62.94,2.73-.69,4.1-.72.39.08.72.2.59.71-.82,2.86-1.61,5.73-3.64,8-1.32-.68-2.47.12-3.68.4a9.47,9.47,0,0,1-2.8.42c2.19.82,4.31-.45,6.53-.91.27,1.5-1.21,2.25-1.51,3.5-1.81-.26-3.5.44-5.22.65,1.42,1.14,3.21-.69,4.62.65l-.86,1.69c-1.64.82-3.44.8-5.21,1.08,1.24.92,2.84,0,4.1.73-1.74,3.62-3.3,7.34-5.28,10.82-3.26,5.7-9,8.23-14.5,6.58,3.76-.51,7.44-.93,10.44-3.4-.13-1.23,1.21-1.81,1.37-2.94-8.4-.47-11.06-1.59-13.54-5.86a9.37,9.37,0,0,0,1.46,3c1.42,2.15,1.41,2.15-1,3.1a17.7,17.7,0,0,0,7.5,1.45c1.45,0,1.45.1.8,1.37-2.8.93-5.65.63-8.52.44s-5.71-.82-9.12-1.37l2,2.21c-3.9-.37-7.28,1.22-11.08.79l3.43-2.06c-3.53,0-7,1-10.66.5,4.71-2.24,16.59-5.14,21.07-5.16.25-.79-1.33-1.47-.11-2.37,4.26-3.16,3.37-7.45,2.48-11.73-.21-.89-1.21-1.77,0-2.67,1.43,2.23,2.53,4.68,4.41,6.61,1.3,1.33,2.71,2.44,4.7,2.45a21.18,21.18,0,0,1-6.78-8.31c1.41,0,2.26,1,3.4,1.31,2.62.46,4.62,2.36,6.85,2.89C206,144.76,203.12,144.63,201.63,142.24Z"/><path class="cls-1" d="M214.58,106l-.79,1.74c-2-.07-3.78,1.26-5.81,1.14a28.2,28.2,0,0,0-3.19-.27c-2-.2-3.58-1.48-6.07-2.65,3.42-.38,6.18.37,9-.34-2.4-.9-4.9-1.35-6.87-3.39,1.91,0,3.65.74,5.61.09-1.48-1.43-3.39-2.13-4.74-4,2.24.23,4.11,1.08,6.27.85a20.85,20.85,0,0,1-4.62-4l6.64.35c-1.73-1.38-3.6-2.38-5.29-4.23A29.34,29.34,0,0,0,212.16,90a19.63,19.63,0,0,1-6.28-4.79c1.93,0,3.35,1.24,5.31,1-1.79-1.62-4.11-2.34-4.86-5,2.2,1,4.19,1.69,6.49,1.29a8.71,8.71,0,0,1-5-4.6c1.43-.43,2.73.47,4.5.22l-3.2-2.36c2.12-1.51,4.54-1.61,7-2.46-1.85-1.35-3.91-.87-5.75-1.39a3.49,3.49,0,0,1,2.36-1.48c-.76-.57-1.48-.12-2.22-.27.33-1.52,2-1.43,2.89-2.34-1-.83-2.08.47-3.45-.44,4.34-1.4,8.16-1.73,11.86.58a13.52,13.52,0,0,1,3.56,3.31c3,3.86,4.86,7.82,2,12.69a45.93,45.93,0,0,0-2.51,6.14c-.45.18-.67-.08-.87-.42a2.82,2.82,0,0,1,.1-1.79c.22-.71.45-1.43.67-2.2-.32.45-.3,1.15-1.05,1.12-.91-.54-1.54-.6-1.74.73a16.76,16.76,0,0,1-.64,3.53c-.38,1-1,1.77-1.52.72C218.25,96.34,216.24,101.1,214.58,106Z"/><path class="cls-1" d="M214,109.23c.79-1.11,1.67-1.59,2.94-.57a7,7,0,0,0,1.83.91c2.5,1,3,.52,3.32-2.17.35-3.42,2.43-5.77,5.23-7.52,1.09-.68,2.21-.06,3.19.4,1.39.65,2.69,1.51,4.05,2.24.58.31,1.19.9,1.88.49s.26-1.22.2-1.86-.61-1.22.07-1.63,1.33.1,1.84.54c1.95,1.69,2.16,4,2.09,6.36s-.85,4.51-1.33,7c.65-.54,1.26-1.11,1.94-1.6,1.24-.9,2.59-2.13,4.16-1.38s.63,2.43.59,3.86c4.84-4.85,3.1-13.93-3.17-16.31-5-1.91-10.28-3.29-15.41-5-.68-.23-2.2.16-1.74-1.5s1.44-.72,2.24-.49c5.58,1.66,11.19,3.26,16.73,5,6.22,2,9.16,7.9,7.17,14.13-1.17,3.64-2.75,7-6.08,9.28a7.75,7.75,0,0,1-7.78,1c-8-3.26-16.05-6.45-24.08-9.67C213.16,110.22,213.68,109.73,214,109.23Z"/><path class="cls-1" d="M125.27,50A14.43,14.43,0,0,1,128,45.19c2.88-.35,4.86-2.72,7.62-3.34,5.8-1.31,10.73.1,14.73,4.56a1,1,0,0,1-.58.39,11.71,11.71,0,0,0-4.3-.34,5.46,5.46,0,0,1,3.87,3.82c.24.68.51,1,1.22.55a.81.81,0,0,1,.64.16c-.1,1.39,2.56,3.15-.56,4.16a2.47,2.47,0,0,0,.14.94c1.08,2.83.38,5.54-.5,8.24-.63.32-.87-.15-1.14-.56-.47-.84-.09-2.05-1.12-2.67-.3-1.43,1.15-2.62.55-4.09,0-.71.63-2.11-1.06-1.27-2.71,1.35-5.65.87-8.19,1.32a25.22,25.22,0,0,1,2.91.29c.56.09,1.39,0,1.44.76s-.72.84-1.29,1c-.41.09-.82.28-1.09.15.47.17,1.07-.21,1.68-.16l.76,0c1,.07,2.61-.75,2.76.6.13,1.11-1.63,1-2.62,1.34,1.28.1,2.55-.56,3.85-.13,1.07.92,0,1.37-.5,1.72a8.16,8.16,0,0,1-4.34,1.61c.91.42,1.7.72,1,1.94-.6,1,.53.71.95.93.85.34,2.13-.42,2.56,1-5.21,4.37-11.42,4.08-18.1,3.93l3.64-1.55-5.38-.71c1.44-1.54,3.32-2,4.89-3.18-.93-1.25-2.2-.44-3.17-.89,1.14-1.15,2.71-1.29,4.19-1.85-.77-1.32-2.46-.37-3.53-1.58l3.87-1.06c-1.47-1.1-3.36-.53-4.9-1.68,1.23-1.4,3.05-1.49,4.48-2.43-1.29-1-2.77-.42-4.31-.63.78-2,2.38-3.32,3.93-5L129.42,51c2.7-4.21,8-1.22,10.82-4.36a49.55,49.55,0,0,1-8.26-.3c-2.38-.31-2.18.92-2.54,1.91a77,77,0,0,0-4,15.88c-.91.16-.74-.4-.63-.93-.48-4.58,1.8-8.69,2.58-13.75l-2,2.65C124.77,51.35,125.56,50.6,125.27,50Z"/><path class="cls-1" d="M185.49,144a20.18,20.18,0,0,1-5.83,5.92c4.42-6.46,4.57-13.51,3.3-20.84a34.43,34.43,0,0,1,2.61,7.18c.53-2.07-.16-3.82-.1-5.64,1.53,1.85,1.55,4.3,3,6.18l-.26-3.61c3.27,3.41,4.26,7.2,4.45,11.24a27.74,27.74,0,0,1-.44,5.37c-.55,3.72-1.14,4.33-5.12,5.75,1.27-2.65,2.46-5.21,2.21-8.12.39-1.32-.73-2.41-.55-3.4,0-.64-.6-.28-.26-.34.14,0,.19,0,.22.13a2.11,2.11,0,0,1-.31,1.69c-1.15,6.53-5.06,10.65-11.17,12.91-5.95,2.2-11.94,4.09-18.43,3.23,1.76-.36,3.51-.76,5.28-1.06a36.85,36.85,0,0,0,14.61-5.36c3.72-2.49,6.71-5.59,7.54-10.25a14.12,14.12,0,0,1,0-2.88A2.64,2.64,0,0,1,185.49,144Z"/><path class="cls-1" d="M197.35,99.07l-.58-.49c-.06,0-.19-.13-.18-.16.79-2,.72-4.27,1.49-6.21a89.88,89.88,0,0,1,4.82-10.64c.67-1.22,1.42-2.54.53-4.12-.39-.69.27-1.47.68-2.11a13.81,13.81,0,0,0,2-7.85,21.49,21.49,0,0,1,0-3.85c.66-3.84-.95-6.45-4.22-8.27-.73-.41-1.59-.71-2-1.56-.2-.56.3-.9.43-1.36-1.07-1.52,0-.94.62-.6a14.33,14.33,0,0,1,7,9.37c.9,3.43,0,6.79-.59,10.14C205.71,81.19,203.09,90.7,197.35,99.07Z"/><path class="cls-1" d="M245.37,122.53c-2.86,3.37-6.37,3.22-10,1.72-7.14-2.93-14.25-5.92-21.38-8.88l-4.78-2c1.69-1.57,3.19-1.09,4.82-.41,7.36,3.08,14.77,6,22.11,9.14C239.18,123.39,242.17,123.9,245.37,122.53Z"/><path class="cls-13" d="M205.73,162.43c.8-1.12-.15-.8-.67-.78A15.45,15.45,0,0,1,195,158.82l4.24-.12c-1.45-2-3.22-3.69-2.5-6.51,3.46,6.41,9,7.16,15.48,5.83a16.16,16.16,0,0,1-3.09,4.3C208,161.63,206.86,162.56,205.73,162.43Z"/><path class="cls-5" d="M224.55,88.19l-.27,1.55a3.71,3.71,0,0,1-.62,2.43c-2.24,3.82-4.24,7.8-7,11.26.53,1.82-1.18,1.84-2,2.55,0-.47-.92-.6-.47-1.28,1.74-2.65,1.87-6,3.41-8.59,1.2-2,1.39-3.91,1.78-6,.46-.17.49.25.6.49a12.18,12.18,0,0,1,.42,1.15c1.13-2.16.77-4.56,1.63-6.63a2.73,2.73,0,0,1,1.82,1.46C224.3,87,224.91,87.35,224.55,88.19Z"/><path class="cls-1" d="M83,77.44c-5.73,2.62-11.25,1.34-16.56-1.16s-10.52-5.34-15.77-8c-.17-.45-.1-.72.46-.64,5.21,2.54,10.42,5.11,15.65,7.61S77.26,78.69,82.89,77c.15.09.21.19.18.31S83,77.44,83,77.44Z"/><path class="cls-1" d="M204.79,108.59c.92-.38,1.8-1.07,2.82-.24.23.84,1.37.35,1.58,1,.42,1.27.78.51,1.35.13.76-.5,1.38-2,2.59-.57l-.23.51c-.14.75-.78,1-1.34,1.3-4.59,1.48-9.12,1.74-13.74-.81,2.3-.5,4.44.49,6.5-.26C205,109.4,205.51,109.34,204.79,108.59Z"/><path class="cls-1" d="M51.47,22.78C58,25.6,64.65,28.17,70.82,31.7l-.47,1L51,23.43C50.83,23,50.85,22.66,51.47,22.78Z"/><path class="cls-1" d="M141.29,105l-1,.71a21.77,21.77,0,0,1-14.48-3.85c-.66-.46-1.12-1.36-2.14-1.19-1.35-1.18-1.35-1.18-1.76-3.14l.86.78.57.52c.39-.75-.8-1.11-.38-2a6.54,6.54,0,0,1,2.25,1.89c.57,1.82,2.39,2.18,3.73,3a18,18,0,0,0,9.85,2.52C139.67,104.32,140.74,103.82,141.29,105Z"/><path class="cls-19" d="M167.33,75.43a30.33,30.33,0,0,0,9.52-2.52c-1.11,3.25-4.15,4.69-7.57,4-.65-.14-1.37-.65-1.14.65C167.33,77.05,167.39,76.21,167.33,75.43Z"/><path class="cls-1" d="M51.09,67.61l-.46.64L36.06,61.18c-.19-.42-.18-.69.39-.56Z"/><path class="cls-1" d="M216.61,103.43c2.32-4.69,5.72-8.78,7.67-13.69l.57.43C222.83,95,220.55,99.75,216.61,103.43Z"/><path class="cls-1" d="M56.5,40.24,42.5,34l.27-.66L57,39.51C57,39.88,56.69,40,56.5,40.24Z"/><path class="cls-1" d="M218.57,120.37c-.8,1.45-2.57.35-3.54,1.36a1,1,0,0,1-1.14-.21.5.5,0,0,1-.06-.71l1.78-.36-5.82-2.06C213.05,117.62,215.86,118.8,218.57,120.37Z"/><path class="cls-20" d="M173.88,105.32c-.06-.85-.19-1.2-1.18-.63-1.59.91-3.22,2-5.88,1,3.46-.59,5-3.4,7.77-4.28C174.47,102.72,174.6,104.1,173.88,105.32Z"/><path class="cls-21" d="M220.41,144.82c-1.46-.26-2.83.84-4.3.28-.82-.31-1.89-.18-2.38-1.38,1.92-.39,3.92-.12,5.63-1.19,1.07-.67,1,.74,1.65,1C221.23,144.15,220.86,144.51,220.41,144.82Z"/><path class="cls-1" d="M56.5,40.24l.51-.73c3.05,1.37,6.53,2,8.86,4.59l-.35.62Z"/><path class="cls-22" d="M213.13,108.91c-.44-1.07-.78-.24-1.1.07-1,1-2,1.88-3.55,1.85,1.49-1.33.24-1.27-.64-1.52-.41-.12-2.09-.18-.23-1a6.84,6.84,0,0,0,3.62-.93c1.05-.68,1.75-.16,2.56.3A1.46,1.46,0,0,1,213.13,108.91Z"/><path class="cls-23" d="M218.44,148.32c-3.35.83-3.69.77-6.18-1.52,2.75.33,4.94-.75,7.29-.29A2.37,2.37,0,0,1,218.44,148.32Z"/><path class="cls-1" d="M48,50.06l12.43,5.11-.41,1L48.15,50.83A.56.56,0,0,1,48,50.06Z"/><path class="cls-24" d="M18.7,22.08A80.64,80.64,0,0,1,27.94,26l-.47.57c-.11.39-.3.44-.58.16C24,26.08,21.7,24.13,19,23.18c-.37-.16-.82-.28-.8-.79C18.16,22.1,18.44,22.06,18.7,22.08Z"/><path class="cls-25" d="M201.63,142.24c2.6,1.52,5.3,2.86,8,4.17-3.29-.11-6-1.59-8.7-3.34Z"/><path class="cls-1" d="M149.43,63.31c.26.36.28.93.86,1-.25,1.91-.5,3.82-.73,5.72-.05.45-.12.94-.65.86-.82-.12-.39-.69-.31-1.14.12-.78.63-1.52.3-2.47l-1.53.8c-.83-.71-1.93.29-2.75-.46.07-.16.14-.37.28-.41A6.88,6.88,0,0,0,149.43,63.31Z"/><path class="cls-1" d="M51.47,22.78l-.47.65L41.21,19c-.18-.4-.21-.67.37-.52Z"/><path class="cls-1" d="M124.76,63.15l.63.93c-.11,2.19-.21,4.38-.34,6.57,0,.55.18,1.34-.74,1.33s-.67-.8-.6-1.33C124,68.15,124.41,65.65,124.76,63.15Z"/><path class="cls-1" d="M36.45,60.62l-.39.56-9.44-4.43.3-.68Z"/><path class="cls-1" d="M213.83,120.81l.06.71a24.84,24.84,0,0,1-9.43-3.37C207.55,119.18,210.69,120,213.83,120.81Z"/><path class="cls-1" d="M143.22,156.85l1-.76c2.12,1,4.67.95,6.4,2.8l-.46.58A14.39,14.39,0,0,1,143.22,156.85Z"/><path class="cls-1" d="M149.77,46.57l.59-.16c1.2.64,1.57,1.89,2.16,3,.83,1.51.11,1.87-1.31,1.62l-.56.07C150.07,49.62,149.42,48.19,149.77,46.57Z"/><path class="cls-1" d="M201.32,120.29c-2.61-.89-4.59-2.73-6.5-4.73l6.76,4.36C201.83,120.28,201.74,120.4,201.32,120.29Z"/><path class="cls-1" d="M226.11,132.08l-.6-.41a6.13,6.13,0,0,0-1.39-1.44l-.66-.69a4.33,4.33,0,0,1,3.19-1.83l.58-.1A13.86,13.86,0,0,1,226.11,132.08Z"/><path class="cls-1" d="M31.06,28.35l7.42,3-.31.75-7.33-3.4A.28.28,0,0,1,31.06,28.35Z"/><path class="cls-26" d="M69.16,25.1l-6.08-2.27c2.41-.38,4.49.66,6.62,1.48Z"/><path class="cls-1" d="M108.78,72.2l-6.44-2a17.44,17.44,0,0,1,6.86,1.42C109.23,71.91,109,72,108.78,72.2Z"/><path class="cls-27" d="M168.49,91.69c2.13.91,3.35-1.42,5.58-1.51-1.59,2.34-3.77,2.45-6,2.5A.78.78,0,0,1,168.49,91.69Z"/><path class="cls-1" d="M165.32,91.79l.62.41A8.45,8.45,0,0,1,163,96l-.64-.42A5,5,0,0,1,165.32,91.79Z"/><path class="cls-28" d="M18.7,22.08c-.67.55.24.72.26,1.1-1.46-.39-3.61.1-3.23-2.58Z"/><path class="cls-1" d="M200.38,52.45l-.2,1.21c-1.85.36-3.42-.45-5-1.17l.83-1.08C197.59,51.22,198.79,52.69,200.38,52.45Z"/><path class="cls-1" d="M179.64,51c1.69.67,3,1.58,2.31,3.61-.83-1.18-2-2.17-2.27-3.68Z"/><path class="cls-1" d="M48,50.06l.15.77-5.43-2.41a.27.27,0,0,1,.22-.38A21.92,21.92,0,0,1,48,50.06Z"/><path class="cls-29" d="M83,77.44,82.89,77c1.24-1.26,3.08-1.27,4.55-2.09A10.06,10.06,0,0,1,83,77.44Z"/><path class="cls-30" d="M16.63,51.85c1.65-.17,2.75.75,3.93,1.54C19,53.55,17.84,52.55,16.63,51.85Z"/><path class="cls-31" d="M185.49,144c.56-1.34.34-2.78.58-4.19a6.9,6.9,0,0,1,.15,5.17Z"/><path class="cls-32" d="M124.11,103.89a4.27,4.27,0,0,1-2.18-3l3,1.7C125.47,103.58,123.91,103.17,124.11,103.89Z"/><path class="cls-1" d="M111.43,72.46l3.44,1.21c-1.27,1.36-2.22.4-3.18.08A1,1,0,0,1,111.43,72.46Z"/><path class="cls-1" d="M41.58,18.52l-.37.52L37.1,17.25A6.67,6.67,0,0,1,41.58,18.52Z"/><path class="cls-1" d="M165.46,156.94a12.61,12.61,0,0,1-3.94.74,4.23,4.23,0,0,1,3.26-1.52Z"/><path class="cls-33" d="M206.4,141.37,210,142.9a5.12,5.12,0,0,1-4-.85C206.08,141.82,206.24,141.6,206.4,141.37Z"/><path class="cls-1" d="M199.52,135.6l.22,1.26-4.15-3C197.61,133.85,198.49,134.88,199.52,135.6Z"/><path class="cls-34" d="M36,16c-2.09.47-3.1-.5-4.11-1.5Z"/><path class="cls-1" d="M111.43,72.46l.26,1.29c-1.19-.1-1.83-1.25-2.91-1.55l.42-.62Z"/><path class="cls-1" d="M108.69,87.09l-.67-.48a5.5,5.5,0,0,1,1.16-4h.1c1,.92-.11,1.91.08,2.86C109.4,86.13,109.56,86.83,108.69,87.09Z"/><path class="cls-35" d="M212.54,130.11l3.15.45a4.48,4.48,0,0,1-4.08.26Z"/><path class="cls-36" d="M188.39,145.55l.12-2.39a5.1,5.1,0,0,1,.78,4.31C188.81,146.92,189.33,145.89,188.39,145.55Z"/><path class="cls-37" d="M26.89,26.71l.58-.16,3.59,1.8a.88.88,0,0,1-.22.4C29.45,28.21,27.9,28,26.89,26.71Z"/><path class="cls-1" d="M169.39,117.33l-.3,1.11c-1-1-1.11-2.42-1.87-4A5.39,5.39,0,0,1,169.39,117.33Z"/><path class="cls-22" d="M211.56,110.72a2.86,2.86,0,0,1,1.34-1.3l1.13-.19c-.13.52-.57,1-.12,1.57C213.1,111.55,212.36,110.33,211.56,110.72Z"/><path class="cls-1" d="M228.68,83.18a5,5,0,0,1,.21,3.35C229.14,85.45,227.25,84.58,228.68,83.18Z"/><path class="cls-38" d="M83.25,45.3a5.21,5.21,0,0,1-1.37,2.85,6.67,6.67,0,0,1,.66-3.78C82.78,44.68,82.72,45.21,83.25,45.3Z"/><path class="cls-1" d="M205.15,121.45l-.48.68a8.68,8.68,0,0,1-3.35-1.84.29.29,0,0,0,.26-.37Z"/><path class="cls-1" d="M201.49,124.34l-.5.76a6.85,6.85,0,0,1-3-2.15A9.77,9.77,0,0,1,201.49,124.34Z"/><path class="cls-1" d="M42.72,48.42a9.67,9.67,0,0,1-3.79-1.83,8,8,0,0,1,4,1.45A.77.77,0,0,1,42.72,48.42Z"/><path class="cls-1" d="M194.94,128.31l-.47.66-3.18-2.4C193,126.37,193.92,127.51,194.94,128.31Z"/><path class="cls-1" d="M199.85,139.4l-.51.71a6.74,6.74,0,0,1-2.46-2.51Z"/><path class="cls-1" d="M195.23,141c-.56.89.29,1.78,0,2.67a13.76,13.76,0,0,1-1.38-4.55C194.68,139.9,195.1,140.32,195.23,141Z"/><path class="cls-39" d="M136.31,132.92c.7-.7,1.4-1.41,2.09-2.12a1.82,1.82,0,0,1-1,2.43C137.16,132.79,136.7,133,136.31,132.92Z"/><path class="cls-2" d="M150.66,158.89c-2.14-.93-4.66-1-6.4-2.8l1.79-.36c-2.25-1.12-4.09-2-5.88-3-.43-.22-2-.44-.18-1.26.73-.33-.17-.82-.5-.91-2.42-.62-2.72-3.8-5.23-4.28.63-1.91-1.3-1.93-2.13-2.88.28-.86,1.37-.22,1.86-1-2.35-1.23-3.91-3.66-6.87-4.06a20.6,20.6,0,0,0,14.68-7.28c-.26,3.45-2.36,5.29-4.48,7.26,5.89-.53,10.46-4.81,14-13,.93,2.57.32,5.25-2.08,9.16-.75,2.29-2.95,3.11-4.41,4.37,1.93-1,3.42-2.87,5.44-4.08,1.46-1.5,1.93-3.55,3-5.55.62,1.49-.26,2.65-.18,3.84.28,2.24-1,3.87-2.2,5.49-2.38,3.22-5.31,5.65-9.36,6.44a8.9,8.9,0,0,1-2.42.3c.31-.16,1.12.1,1.85-.18,5.67-.84,9-4.78,11.85-9.2a4.9,4.9,0,0,1,1.58-1.94c2-3.21,2.12-6.92,2.93-10.87.93,5.93,1.26,11.34-2.38,16.24,2.74-.9,3.81-2.71,5.65-9.42,1.59,4.28.24,9-3.54,12.5-2.3,2.12-5.1,3.39-7.85,4.75a5.28,5.28,0,0,1-2.53,1.19c.83-.7,2.43-.3,3.77-.88,7.39-3,13.74-7,14.83-16.36,1.35,5.24-1.32,11.83-5.64,14.41-2.21,1.31-4.47,2.52-6.78,3.65s-4.65,2.08-7.09,3.16c1.65.79,3.37.27,5.08.41L149.51,154c3.12.25,6,1.63,9,.11,1.69-1.55,4-1.48,6-2.16,6.77-3.09,10-9,12.32-15.73,1.24,4.51-2,12.52-6.16,15.67-4.87,3.66-10.7,4.33-16.73,5.31,1.51,1,3.16.28,4.59,1C155.87,159.37,153.26,159,150.66,158.89Z"/><path class="cls-5" d="M163,78.07c2,5.16.2,13.44-3.71,17.27a3.56,3.56,0,0,1-2.31.92,30.64,30.64,0,0,1-10.19-.74c-5.22-1.28-6.86-3.57-6.56-9.32.5,1.11.86,2.06,1.35,2.93s1.16,1.81,2.16,3.33c-.21-2.9-1.43-4.68-2-6.66a17.76,17.76,0,0,1-.91-6.07A5.9,5.9,0,0,1,143.11,75c.53-.39,1.21-2.05,2.26-.37.1.15.78,0,1.19-.12,1.52-.27,3-.56,4.55-.84.16.44-.08.71-.39,1a6.43,6.43,0,0,1-1.42.55c-5.92,2.12-7.68,7.06-4.42,12.71,1.38-1.25.92-3.23,1.9-4.57.63-.16.91.24,1.16.69.64,2-.38,3.84-.85,5.72-.24.95-1.15,2.44,1.16,1.83.25-.07.44.22.64.37,2.53,1.82,4.24,1.74,6.42-.35A12.31,12.31,0,0,0,158.94,85c.26-1.3.07-2.78,1.17-3.84.64,0,.91.39,1.15.87.68,2.7-.36,5.14-1.16,7.61a14.73,14.73,0,0,1-1.37,2.14A14.94,14.94,0,0,0,160,89.91a22.76,22.76,0,0,0,2.22-8.76C162.58,80.15,161.49,78.77,163,78.07Z"/><path class="cls-4" d="M141.29,105c-2.88-.23-5.79,0-8.61-.87a16.94,16.94,0,0,1-7.94-5s0-.19.08-.23a2.57,2.57,0,0,1,.41-.19,20.23,20.23,0,0,0,7.91,3.58c-1.84-1.91-3.75-2.83-4.67-5.24,2.85,2.06,5.24,4.05,8.29,4.82A3.88,3.88,0,0,1,138,102c-.19,0-.49-.43-.79-.86L134,98.4c2.79.46,4.46,2.07,6.83,2-.69-1.19-1.77-2-2.24-3.72,2.72,1.84,5.3,3.12,8.69,3.19L144.45,97c2.89,1,5,2,7.42,2a39.29,39.29,0,0,0,7-1.24C153.89,102.18,147.72,103.92,141.29,105Z"/><path class="cls-7" d="M108.69,87.09l.23-1.65c1.59.62.67,2.37,1.49,3.33l1.26,1.69c-.19-1.89-.86-3.38.22-5.09.44,2.56.74,5,3.07,6.51.37-1.27-.49-2.62.56-3.73l1,3.79c.53-1.16.42-2.18,1.48-3.18-.68,4.33.56,7.92,3,11.86C114.54,97.57,111,92.88,108.69,87.09Z"/><path class="cls-6" d="M157.34,153.47c-.5-.21-1.79-.06-.55-1.08a14.12,14.12,0,0,1,2.34-1.54c6.33-3.37,11.21-8,13.31-15.15.29,7.27-3,12.44-9.14,16A7.22,7.22,0,0,1,157.34,153.47Z"/><path class="cls-40" d="M165.32,91.79l-2.95,3.74-1.76.86c4.45-6.79,6.24-13.52,2.26-21C166.87,78.23,167.71,84.44,165.32,91.79Z"/><path class="cls-8" d="M166.84,140c-.57,6.24-4.94,9.65-12.75,10.14,2.58-1.43,4.91-2.58,7.07-4S165,142.57,166.84,140Z"/><path class="cls-41" d="M136.11,82.82a18.29,18.29,0,0,0,5.16,12.3C135.66,94.56,133.67,90,136.11,82.82Z"/><path class="cls-1" d="M141.37,144.64c6.07-1.66,9.67-5.83,11.77-11.55a2,2,0,0,0,1.3.91c-2.86,5.71-6.51,10.5-13.39,11.56C140.79,145.13,141,144.86,141.37,144.64Z"/><path class="cls-42" d="M163,78.07c-.74,1,.53,2.19-.24,3.21a1.7,1.7,0,0,1-1-1.37c-.77-3.61-3.39-4.51-6.62-4.82-1.49-.14-3.23.8-4.47-.8l.46-.58c5.94-1.31,9.4-.25,11.72,3.63A2.44,2.44,0,0,1,163,78.07Z"/><path class="cls-1" d="M150.31,134.8c-1.9,2.7-3.56,3.91-7.21,5.08l6.18-5.37C149.54,134.89,149.93,134.83,150.31,134.8Z"/><path class="cls-43" d="M122.47,75.4c1.4-.5,2.79-1,4.47-.43l-6.34,2.86c.15-1.45,1.44-1.65,1.92-2.51Z"/><path class="cls-1" d="M157.34,153.47l6-1.78,1.18.3a13.06,13.06,0,0,1-6,2.16Z"/><path class="cls-44" d="M139.72,76.68c-.08,2-.15,4-.24,6.42C138,80.62,138.05,79.31,139.72,76.68Z"/><path class="cls-17" d="M134.17,75.38c.24.14,1.18.12.56.45a59.69,59.69,0,0,1-6.06,2.51,1.76,1.76,0,0,1,.93-1.48C130.65,74.89,132.65,75.88,134.17,75.38Z"/><path class="cls-15" d="M122.52,75.32c-1.84.2-3.12,1.94-5.3,1.94a7.79,7.79,0,0,1,4.51-2.93c1.29-.32.88.44.74,1.07Z"/><path class="cls-1" d="M110.41,88.77c-1.32-.74-.39-2.49-1.49-3.33l.36-2.81,1.56-1.8A11.28,11.28,0,0,0,110.41,88.77Z"/><path class="cls-45" d="M129,76.47c-1.44.42-2.71,1.35-4.44,1.48.57-1.32,1.74-1.65,2.72-2.2a7.31,7.31,0,0,1,3.19-.64C130.38,76.28,129.51,76.14,129,76.47Z"/><path class="cls-1" d="M129,76.47l1.27-1.11c-1.19-.35-2,.47-3,.39,2.19-2,4.58-.34,6.87-.37a14.41,14.41,0,0,0-4.57,1.48Z"/><path class="cls-1" d="M150.49,147.51c-1.4,1.14-3.15,1.08-5,1l3.73-1.31Z"/><path class="cls-1" d="M137.25,101.17l2.62,1.18c-1.12.16-2.2.34-3.11-.4Z"/><path class="cls-7" d="M61.68,68c8.88,1.64,16.78,5.88,25.58,1.91C83,77,70.27,73.83,61.68,68Z"/><path class="cls-46" d="M195.18,52.49c1.85-.4,3.36.65,5,1.17,1.09.66,2.22,1.27,3.28,2,1.87,1.23,3.37,2.9,3.38,5.17a65.85,65.85,0,0,1-.6,11.47c-.36,2.17-2.68,3.53-1.8,6.38.51,1.62-.91,3.95-2.11,5.62-2.23,3.1-2.25,7.18-5,10,.88.56,1.22-.61,1.79-.14l-2.38,4.47c-2,3-3.7,6.23-7.36,7.58-.39.14-.8.24-1.57.47,1.16-1.88,3.27-2.23,4.17-3.91-1-.78-2,.47-3-.28,1.57-1.46,3.34-2.66,4.63-4.44-1-.89-2.37-.18-3.36-1a36.46,36.46,0,0,0,7.19-5.09l-2.38-.53L199,87.17c-1-.72-2.28-.49-3-1.45l6.26-4.6-3.92-.87c1.34-1.33,2.72-2.35,3.58-4.2a9.61,9.61,0,0,1-6-.32c1.5-.63,2.88-.37,4.34-1.33a16.92,16.92,0,0,1-11.6-3.66c4.88-.23,9.46,2.44,13.9-.24-3.65-.62-7.48-.42-10.55-3.06,3.11.4,6.2,1.49,10.06-.17-4.31-1.6-9-.7-12-4.74a42.6,42.6,0,0,0,11.23,1.1c.85-.06,1.83.22,2.22-.8.46-1.2-.6-1.63-1.36-2.15A26.78,26.78,0,0,0,196,58c2.62-.68,5,.54,8.11.92-3-3.33-6.57-4.69-10.29-5.91Z"/><path class="cls-8" d="M189.21,53.16c-.22,1.94-1.93,2.43-2.3,4,.73.21,1.66-.26,2.38.61-2.47.86-2.62,2.42-1,4.4-.77.57-1.42-.3-2.08-.13.08,1.81,1,3.31,1.6,5-2.38-.88-3.23-2.29-3.43-5.6C184.13,57.79,185.68,55.12,189.21,53.16Z"/><path class="cls-13" d="M178.25,61.93c-1.7-5.32-2.48-10.83-8.25-13.52,3-.28,5.36,1.13,7.61,4.36C179.65,55.67,179.89,58.46,178.25,61.93Z"/><path class="cls-11" d="M167.43,60.85c2,.9,4.15.53,6.33.56-3.11,3.59-7.85,2.6-12.18-2.53,1.92-.6,3.22.65,4.67,1.29A1.23,1.23,0,0,1,167.43,60.85Z"/><path class="cls-10" d="M166.24,67.68c4.29.19,7.69-.93,11.32-1.72C176.08,69.44,170.72,70.39,166.24,67.68Z"/><path class="cls-47" d="M176.92,63.13c-2.68,3.24-7.55,4.11-11.56,2.35Z"/><path class="cls-48" d="M172.58,53.72a70.76,70.76,0,0,0-11.23.37A9.41,9.41,0,0,1,172.58,53.72Z"/><path class="cls-16" d="M165.2,70.86l11.59-1.31C173.35,71.86,169.64,72,165.2,70.86Z"/><path class="cls-20" d="M167.43,60.85a1.33,1.33,0,0,1-1.18-.68c.22-.86.35-1.72,1.62-1.55,1.72.23,3.49-.52,5.35.17a5.25,5.25,0,0,1-4.52,1.59C168.25,60.34,167.49,59.75,167.43,60.85Z"/><path class="cls-17" d="M173.26,56.2a14.58,14.58,0,0,1-9,0A13.22,13.22,0,0,1,173.26,56.2Z"/><path class="cls-17" d="M169.5,96c1.58-1.21,2.84-2.67,4.78-3.45C173.29,95.93,172.25,96.69,169.5,96Z"/><path class="cls-12" d="M206.47,155.58c1.92-.27,2.24-2.57,4.15-2.65.08,0,.21-.22.23-.36.11-.59-1.6-1-.43-1.47,1.45-.63,3.3-1.29,4.68-.88s.34,2.31,0,3.22c-1,2.45-5.47,3.91-8,2.87C207,156.25,206.89,156.07,206.47,155.58Z"/><path class="cls-11" d="M198,148.69a57.3,57.3,0,0,0,5.69,4.92c.64.43,1.66,1,.94,2-.62.84-1.62.45-2.36.05A8.07,8.07,0,0,1,198,148.69Z"/><path class="cls-15" d="M222.52,140c-2.4,2.34-5.1,2.22-8.55.88,2.75-.9,5.19-.72,7.25-2,1.17-.74,1,.63,1.25,1.23Z"/><path class="cls-22" d="M224.12,130.23c.45-.14,1.07-.55,1.32-.39.73.48.11,1.2.07,1.83-1.78,1.64-3.65,2-6,.3Z"/><path class="cls-40" d="M217.69,136.36c2.68.38,4.28-1.12,6.28-1.22C223.43,138.16,220.8,138.83,217.69,136.36Z"/><path class="cls-49" d="M226.65,127.71a5,5,0,0,1-3.19,1.83,4.8,4.8,0,0,1-2.86-1c1.71-.57,3.25-1.11,4.81-1.6C226.06,126.73,226.58,126.91,226.65,127.71Z"/><path class="cls-25" d="M220.36,70.64c3.82,2.28,5.34,6.31,3.83,10.1C223.36,77.14,222.55,73.79,220.36,70.64Z"/><path class="cls-40" d="M219.48,77c-3.36,1.37-5.77.6-8.52-1.08C214.12,74.54,216.44,75.89,219.48,77Z"/><path class="cls-50" d="M218.41,79.9c-2.67,1.44-5.13.72-7.52-.64Z"/><path class="cls-51" d="M226.45,77.92c.17.18.25.23.27.31a4.43,4.43,0,0,1-.39,4.14c-.46.71-.9.1-.61-1.19l.48-2.25C226.27,78.62,226.35,78.32,226.45,77.92Z"/><path class="cls-44" d="M224.55,88.19l-.78-1.58.89-2.5A4.49,4.49,0,0,1,224.55,88.19Z"/><path class="cls-9" d="M149.43,63.31C149,67,149,67,144.62,67.64c-.89-.19-1.87,0-3-.66l2.3-1.6c-.69-1-2.15-.06-3-1.17,2.39-1,5.22-.82,7-3.07l-.06.07C150.58,60.32,148.83,62.68,149.43,63.31Z"/><path class="cls-40" d="M142.8,59.61a5,5,0,0,1-3.13-.36l3.92-1-6.52-1.08c4.45-1.64,9.11-.32,12.64-3.32-.22,1.27-.18,2.44-.94,3.39a2.12,2.12,0,0,1-2.28,1.86C145.25,59.14,144.07,59.73,142.8,59.61Z"/><path class="cls-52" d="M149.77,46.57c.42,1.47,1.35,2.84.88,4.49l-1.32,1.53a7.19,7.19,0,0,0-5.07-6.42C146.21,45.9,148.1,44.83,149.77,46.57Z"/><path class="cls-25" d="M142.8,59.61c2-.68,4.38-.55,6-2.36,1.72,1.76-.4,2.68-.87,4l.06-.07a24.57,24.57,0,0,1-7.07.56c1.9-1.28,3.81-1.23,5.56-2.07C145.14,59.19,144,60.15,142.8,59.61Z"/><path class="cls-13" d="M137.46,54.09c.59-.38,1.36-.65,1.35-.9,0-1.46-.05-1.55,1.23-1.35A13.38,13.38,0,0,1,144.2,53c.36.19.85.34.8.87s-.54.61-.94.71A10.84,10.84,0,0,1,137.46,54.09Z"/><path class="cls-15" d="M136.11,50.27c2.63-1.45,4.95-.68,7.1,1.07Z"/><path class="cls-1" d="M141.37,144.64l-.32.92a4.06,4.06,0,0,1-2.82-.29Z"/><path class="cls-1" d="M150.65,74.29c1.26,0,2.53.07,3.79.13,5.9.31,7.06,1.27,8.32,6.86a16.29,16.29,0,0,1-2.5,8.9c-.47.19-.73.08-.71-.46a23.2,23.2,0,0,0,1.32-7.43c.17-1.15-1-2.1-.58-2.82-.06.29.29,1.12-.23,1.83-.23,4-1.23,7.72-4.16,10.71a6.55,6.55,0,0,1-3.75,2c-1.89.29-3.63.29-3.64-2.32-.94.09-.32,2-1.74,1.27-1.15-.57-1-1.47-.63-2.41.68-2,1.58-4,1.45-6.17.13-1.32-.83-2.34-1-3.58.21.89.86,1.73.3,2.7a13,13,0,0,1-1.94,6.33C140.4,81.7,142.5,76.28,150.65,74.29Z"/><path class="cls-1" d="M159.55,89.72l.71.46c-.61,1.35-1.27,2.63-3.07,2.95Z"/><path class="cls-1" d="M146.88,83.51,146.16,80c1.17,1.53,2,2.74,1.43,4.4Z"/><path class="cls-1" d="M160.06,81.3a3.55,3.55,0,0,1,.23-2.65c.47,1.18,1.08,2.31.58,3.64C160.58,82,160.63,81.38,160.06,81.3Z"/><rect class="cls-1" x="293.36" y="115.9" width="391.03" height="75.53"/><text class="cls-53" transform="translate(305.54 105.5) scale(1 0.85)">EL<tspan class="cls-54"><tspan x="0" y="85.88">MON</tspan><tspan class="cls-55" x="204.31" y="85.88">T</tspan><tspan class="cls-56" x="248.8" y="85.88">A</tspan><tspan x="304.25" y="85.88">O</tspan></tspan></text><text class="cls-57" transform="translate(486.46 226.85) scale(1 0.9)">T<tspan class="cls-58" x="17.7" y="0">A</tspan><tspan class="cls-59" x="41.18" y="0">P</tspan><tspan class="cls-60" x="61.11" y="0">A</tspan><tspan class="cls-61" x="84.13" y="0">S</tspan><tspan class="cls-58" x="105.39" y="0">, E</tspan><tspan class="cls-62" x="147.17" y="0">T</tspan><tspan class="cls-63" x="166.29" y="0">C</tspan><tspan class="cls-64" x="191.51" y="0">.</tspan></text></svg>