<svg id="Layer_1" data-name="Layer 1" xmlns="http://www.w3.org/2000/svg" viewBox="0 0 504.94 504.94"><defs><style>.cls-1{fill:#07af4f;}.cls-2{fill:#020202;}.cls-3{fill:#040404;}.cls-4{fill:#050505;}.cls-5{fill:#070707;}.cls-6{fill:#060606;}.cls-7{fill:#080808;}.cls-8{fill:#0c0c0c;}.cls-9{fill:#090909;}.cls-10{fill:#0b0b0b;}.cls-11{fill:#0d0d0d;}.cls-12{fill:#0e0e0e;}.cls-13{fill:#0a0a0a;}.cls-14{fill:#151515;}.cls-15{fill:#1e1e1e;}.cls-16{fill:#171717;}.cls-17{fill:#282828;}.cls-18{fill:#474747;}.cls-19{fill:#121212;}.cls-20{fill:#323232;}.cls-21{fill:#3b3b3b;}.cls-22{fill:#141414;}.cls-23{fill:#181818;}.cls-24{fill:#232323;}.cls-25{fill:#252525;}.cls-26{fill:#2e2e2e;}.cls-27{fill:#333;}.cls-28{fill:#535353;}.cls-29{fill:#656565;}.cls-30{fill:#3d3d3d;}.cls-31{fill:#444;}.cls-32{fill:#262626;}.cls-33{fill:#4f4f4f;}.cls-34{fill:#2d2d2d;}.cls-35{fill:#3f3f3f;}.cls-36{fill:#575757;}.cls-37{fill:#696969;}.cls-38{fill:#4c4c4c;}.cls-39{fill:#3c3c3c;}.cls-40{fill:#111;}.cls-41{fill:#131313;}.cls-42{fill:#292929;}.cls-43{fill:#2f2f2f;}.cls-44{fill:#313131;}.cls-45{fill:#1c1c1c;}.cls-46{fill:#030303;}.cls-47{fill:#242424;}.cls-48{fill:#161616;}.cls-49{fill:#0f0f0f;}.cls-50{fill:#383838;}.cls-51{fill:#343434;}.cls-52{fill:#272727;}</style></defs><circle class="cls-1" cx="273.07" cy="251.83" r="161.86"/><path class="cls-1" d="M223.93,441.92c.65-3.58,7.4-72.37,7.8-76,.53-4.92,4-38.81,3.45-43.64s-1.49-6.15.33-10.88c.88-2.31-.4-13.11,1.24-15.35.11-.15,3.93-.75,2.83-1.58,1.33-1.59,44.76,6.46,46.6,4.27-1.78.24,21.68,4.18,20.59,4.32-.75.51,13-.73,12.65-2.19,3-.86,17.94,9.5,21.28,6.75-3.17,11.39-7.81,27.31-7.1,37.82a263.89,263.89,0,0,0,3.61,27.75c.21,1.2,10.75,68,10.84,69.23C267.63,482,226.31,444.15,223.93,441.92Z"/><path class="cls-2" d="M210.17,107.79c7.27-7,20.43-10.52,30.56-5.78a73.85,73.85,0,0,1,12.5,7.2c1,.76,1.73,1.41,3.16.35,10.41-7.74,21-5.42,31.48-.16A57.54,57.54,0,0,1,299,116.57c2.11,1.77,3.73,2.05,6.52.74,9.88-4.64,19.72-4.67,28.84,2.16a21.4,21.4,0,0,1,9,16.47c.14,2.58,1.17,3.11,3.56,3.05,16.21-.43,28.44,10.75,29.83,27.12.12,1.51.37,3,.42,4.53.28,8.2.27,8.18,8,10.41,5,1.46,10,2.91,15,4.51,10.67,3.43,17.11,13.24,15.42,24.29A56.23,56.23,0,0,1,408,230.7c-6.34,10.35-15.22,13.17-26.54,9-2.42-.9-4.78-1.95-7.49-3.06-.71,12.29-3.74,23.64-10.1,33.91-6.61,10.68-12.06,22-17.41,33.28-7.74,16.34-9.81,33.67-7.53,51.55,2.84,22.29,7.62,44.27,10.91,66.49.77,5.16,1,10.41,1.66,15.6.37,2.88-.61,4.82-3.45,4.95-3.07.14-3.38-2.41-3.2-4.71,1.56-20.78-3.46-40.75-7.36-60.87a25.78,25.78,0,0,0-2-9.18c-2.14-5-1.87-10.52-2.53-15.82a115.12,115.12,0,0,1-.9-17.71c.18-5.9.4-11.8,2.28-17.75-2.66.65-4.6,2.36-7.06,2.65a7.93,7.93,0,0,1-4.24-.16,83.73,83.73,0,0,1-14,.37c-7.93-.59-15.53,1.44-24,3.05,3.84-4.21,8.33-5.06,12.81-5.94a65.67,65.67,0,0,1,11.81-.58c8.4.26,16.07-1.6,22.25-7.74a35.46,35.46,0,0,0,2.84-2.48c-9.37,11-22,9.89-34.46,9.51l-10-.86c7.46-2.12,15.24-1.84,22.5-4.49-.51-1.2-2-.46-2.88-1.69,2.09-1.36,5-.56,7.15-2.47A15.9,15.9,0,0,0,306.77,303c-17.41,1.6-34.39-2.53-51.58-3.66a7.13,7.13,0,0,1-4.42-.78c1.26.82,2.82.74,3.64,2,11.2,4.82,23.08,4.46,34.9,4.74,4.27.09,8.7-.21,12.63,2.25-12.1.93-23.83,5.55-36.17,3.11-1.85.77-3.57-.42-5.38-.36a1.68,1.68,0,0,1-1.37-.81l-11.24-6.41c-.09,2,2.37,3.73,2.93,6.2-.78,1.16-1.82-.46-2.86.66l3.92,6.23-3.48-.68c.74,2.91,3.49,4.5,4.6,7.45l-4.62-.75c1.18,3,4,4.27,5.26,6.66-1.25,1.94-3-.45-4.32.85,1.79,2.74,4.93,4.08,7.18,6.55-2.46.72-4.72-1.39-7.19.19l2.8,3.12c-1.14,1.08-2.43-.54-3.89.56l9.86,7.73c-3.32.29-6-1.6-9.85-1.83,3.85,4.13,8.32,5.83,12.43,9.2l-7.13-.76-.26.52,10.56,6.25c-3.75,1.49-7-1.09-10.19.42l8.25,5.16-.18.79-10.43-1.7,7,5.3c-3,1.34-5.23-1.84-8-.35,3,2.7,6,5.34,9.35,8.31-3.34.45-5.64-2.17-8.64-1.06.8,2.1,3.47,2.53,4.35,5.14-3.33-.74-5.28-3.87-9-3.83,1.2,3.51,4.77,4.72,6.26,8.2l-8.16-3.06c.18,2.56,3.69,3.54,2.53,5.91-.7,1.41-2.28-.92-3.82-.36.93,3,4.58,4.27,5,7.91l-5.18-2.21-.46.47a56.54,56.54,0,0,1,4.18,4.73c.84,1.15,3.4,2.22.73,4.19-.68.5-.08,1.1.65,1.42a9.68,9.68,0,0,1,3.79,3.2c-3.16.28-5.79-2.09-9-1.13,2.15,1.68,4.82,2.42,6.05,4.83-1.52,1.68-3.37-.51-4.88.85a100.39,100.39,0,0,1,11.9,8.33c-3.5,1.32-6.31-1.53-9.56-.57l9,6.6c-4.67.05-7.79-2.55-12-2.82,3.18,3.2,7.15,4.68,9.18,8.58l-10.62-3.6-.43.52,6.39,6c-2.37,1.59-4.44-1.66-6.48.25l7.11,6.21c-2.27.73-4.11-1.15-6.11.35l8.37,6c-6.05.32-11.75-.29-16.58-4.13a7.27,7.27,0,0,1-2.88-6.95c2.12-13.5.7-27.18,2.3-40.72,1.32-11.06,3.36-22,5.5-32.89a64.23,64.23,0,0,0,.9-13.08c-.1-6.09,1.32-12,1.4-18,.06-4.67,1.32-9.43,1.38-14.26.05-5-.69-10-.15-15a2.23,2.23,0,0,0-1.66-2.56c-1.73-.25-1,1.28-1,2-1.18,35.81-7.71,71.09-10.66,106.72-.79,9.47-1.26,19-1.33,28.44,0,1.79.17,3.27-2.23,3.54-2.15.23-3-.92-3.53-2.65-1.13-3.93-.34-7.91-.13-11.85,1.24-23.1,5.14-45.9,7.75-68.85,2.18-19.13,4.79-38.24,3.48-57.58-.45-6.69-2.47-12.18-8.24-16.68-9.45-7.38-16.73-17.09-25-25.71-2-2.08-3.81-4.44-6.1-6.15-12.17-9.1-15-21.73-14.15-35.94.43-7.41,1.08-14.83.54-22.27a35.76,35.76,0,0,0-2.9-12.37c-3.52-7.8-.83-14.75,3.66-21.26.93-1.34,2.08-2.52,3.12-3.77-11.61-5.4-23-7.05-34.23.57-.22.15-.52.2-.74.36-14.83,10.3-29.33,7.7-44.22-.37C76.12,143.23,46.4,129.06,17,114.32c-2.79-1.4-4.58-2.89-3.54-6.33,1.15-3.83,2.88-4.79,7.23-3.39,12.18,3.93,24.32,8,36.51,11.91C70,120.62,82.9,124.59,95.77,128.6c1.52.47,3,1.34,4.8.6-.56-1.4-1.92-1.43-2.95-1.89q-33.21-14.81-66.4-29.6c-2.88-1.29-5.59-3-8.36-4.49s-3.69-3.89-2.27-6.92S24.41,83,27.17,84q20.17,6.74,40.31,13.53C79.73,101.63,92,105.87,104.19,110c1.36.47,2.74,1.21,4.8.65-1.94-2-4.11-2.83-6.12-3.76Q68.79,91.1,34.67,75.37c-1-.46-2-.89-3-1.4-2.47-1.27-4.63-2.75-3.22-6.08s3.94-3,6.59-2.12C46,69.57,56.84,73.5,67.77,77.27q20.87,7.19,41.8,14.17c2,.67,4.07,1.7,6.74.86-1.66-2.21-4-2.9-6.09-3.9q-35.35-17-70.73-34c-4.47-2.15-5.17-4.07-3.11-7.61,1.52-2.62,3.53-2.46,6-1.69q36.46,11.32,73,22.53c9.2,2.82,18.51,5.29,27.72,8.11,11.38,3.49,20.12,10,24.09,21.8.61,1.81,1.6,3.5,2.32,5.28,4.37,10.83,11.37,18.67,23.32,21.29,3.72.82,7.26,2.41,11,3.69.78-4.57-.35-9.15,2-13.18,1-.36,1.31.35,1.68,1,3.55,0,3.87.34,2.82,4a95.45,95.45,0,0,0-3.8,17.67c-.38,3.77-.79,7.54-1,11.34.2-3.4.69-6.76.88-10.16.75-8.71,3.48-16.94,6-25.23.94-3.12,2.39-4.78,6.22-4.28s7.68.44,11.52.71c.66,0,1.47.11,1.67.91s-.51,1.23-1.06,1.58a18.42,18.42,0,0,1-9,2.59c-1.78.11-3.61-.09-5.16,1.51,7.19,3.6-.95,5.55-.79,8.7.85,1.55,4.37.22,4.14,2.7-.17,1.93-3,2-4.43,3.31.7,1,1.77.81,2.63,1.1,1.24.43,3.21.29,3.22,1.92s-2,1.5-3.22,2c.9.73,2.89.93,2.42,2.35-.72,2.14-3.08,1.9-4.9,2.26-.56-.16,0,.82-.1.28,0-.11.09-.06.31-.06,1.17,0,2.3.3,2.57,1.59s-.88,1.87-1.74,2.53-2,.92-2.69,1.94c1.08,1.36,3.83.18,4.12,2.57.12,1.06-.78,1.43-1.79,1.38,8.89-.48,18-.19,25.35-6.37,3.73-1.45,3.73-1.45,3.62,1.64.63-2.38.21-4.89.85-7.27,2-6.76.74-13.8,1.76-20.64,2.89-3.28.24-5.31-1.71-7.49-8.88-8.36-18.06-9.53-28.56-3.56A13.9,13.9,0,0,1,211.3,109C210.64,108.86,210.09,108.62,210.17,107.79Z"/><path class="cls-2" d="M303.74,331.9c-3.67-1.63-7.44-.63-11.17-.42-1.65.09-3.29.12-5.58.19a24.32,24.32,0,0,1,19.49-4.14,19.07,19.07,0,0,0,12.42-1.63c-10.62.57-21.18-3.39-31.86.17,6.72-3.08,13.33-5.59,20.9-3.95,5.49,1.19,10.9-.56,16.21-2.06,1.25-1.49,3.33-1,4.79-2,.65-.21,1.29-.46,1.93-.69.83-.3,1.74-.3,2.17.55.32.6-.05,1.34-.43,1.92a5.9,5.9,0,0,1-3.19,2.75c2.58-.24,2.84,1.3,3,3.18.31,4.82-1,9.51-1.1,14.31a24,24,0,0,0,.56,7.75c1.81,6.05.7,12.61,3.37,18.5a2.11,2.11,0,0,1-.4,2.32c-.3,12.45,3.42,24.31,5.47,36.41.93,5.54-.13,11.1.56,16.62a43.91,43.91,0,0,0,1.14,6c2.8,10.39-6.9,18.51-14.67,20.48,1-3.07,3.72-4.4,5.55-6.51.68-2-2.36-.22-1.94-1.93a11.7,11.7,0,0,0,3.79-3.62c-1.23-1.17-2.36.29-3.48-.11.39-1.59,1.91-2.53,1.91-4.17-1.58-.67-2.32,1.22-4.37,1.2l3.92-7.08-3.1.17,2.57-6.34-4.25,1.75,2.49-6c-1.33-.74-2.15.73-3.5.34.32-.6.92-1.19.87-1.71-.1-.92,4.16-2.53-.41-2.88-.72-.06.23-1,.49-1.41,1.2-1.84,2.59-3.57,3.71-5.45.26-.46,3.37-2.67-.75-2-.93.14,0-1,.18-1.49.6-1.52,1.33-3,2-4.48-1.63-.84-2.5,1.15-4.09.72-.07-2.83,2.49-4.77,2.71-7.39-.93-.88-1.79,1-2.66-.15.54-1.62,1.08-3.26,1.61-4.88-1.22-.59-1.8,1.12-3,.18,2.71-5.28-2.18-10.83.74-16.06-1.58-1-2,1.11-3.09.71-1-1.15,3.22-4.92-2.17-4,.2-1.89,1.89-3.44,1.66-5.72-2-.1-2.22,2.88-4.23,2.62-1,.53-2.24,1-2.34-.6s1.41-1.44,2.58-1.31a11.45,11.45,0,0,0,3.35-6c-1.21-.77-1.68,1.28-3.09.6.81-2.1,1.63-4.21,2.44-6.32-1.6-1-2.35,1.44-3.88.68l2.35-3.9-4.1-.47,3.32-4c-.68-1.2-1.87-.1-2.63-.89,2.18-3,6.18-4.9,5.53-9.84-4.59,1.37-9.4,1.27-14.1,2.09C307.81,333.09,305.71,333.26,303.74,331.9Z"/><path class="cls-2" d="M306.76,451.27c-5.3.82-10.61.52-16.85.37,6.11-2.65,11.79-3.48,17.28-5.74L301.3,445l8.6-4.18-8-.74c.42-1.91,2.4-1.43,3.49-3l-10.06-1.64-.37-1.06c6.26-.58,11-4,16.09-7.62-4.7.16-9.24.41-13.77.42a30.25,30.25,0,0,1-14.17-3.53c8.35.33,15.57,1.31,23.73-.5a28.65,28.65,0,0,1-4.46-2.14c-.93-.68,0-1.05.6-1.33,3.6-2.13,7.4-3.29,11.62-2.28,2.68-.19,5.52-.5,2.46,3.49l3.05,1c-.29,2.34-2.7,2.39-3.66,4,1.11,1.17,5.68.54,2.24,4.18-1.31,1.38,3.27.36,1.06,2.22a26.94,26.94,0,0,1-3.58,2c-.47.28-.56.64-.22,1.31,1.21,2.43,1.15,2.46-.72,4.3,5.09,1.8,5.09,1.8,1.79,5,.71,1,1.73.31,2.59.45l2.71.41c-1.26,1.82-2.57,3.05-4.61,3.31C314.43,451.76,310.65,451.79,306.76,451.27Z"/><path class="cls-3" d="M319.79,369c1.47,2,1.42,2.14-2.4,4.84l4-.59c.42,2.37-2.1,2.91-2.78,4.53,1.1,1.11,2.5,0,3.63.77-.16,2.22-2.94,2.19-3.68,4,1.37,1,4-.29,4.36,1.84.26,1.48-1.71,2.51-3,3.09-5.7,2.61-20,5.2-25.79,2.11,3.38-.69,6.07-1.12,8.71-1.81A66,66,0,0,0,311,385c-5.8.54-11.56,1.26-17.37.42.88-2.49,3.13-1.44,4.81-1.86,3-1.34.38-1.31-.4-1.38-3.66-.32-7.26-.81-11-2.91l13.51-.93a110.07,110.07,0,0,1,12-1.76c-3.9.06-6.85,1.4-9.84.51a35.69,35.69,0,0,1-14.41-1.95c4.92-2,9.44-1.93,13.9-2a20.64,20.64,0,0,0,7.24-1C312.28,369,315.91,368.58,319.79,369Z"/><path class="cls-4" d="M259,309.53l1,0c2.06.53,4.17,1,5.9,2.33,4.77,2.3,9.41,4.9,14.6,6.58l-4.23.62-.34.73,4.27,1.62c-4.14,1-7.8-1.35-11.9.17a47,47,0,0,1,11.22,6.09l-10.77-1.39c3.51,2.71,7.91,3.8,11.48,7.31-3.94,0-7.24-1.61-10.64-.6-2.66,1.18-4.12-.91-5.88-2.16-1.83-.42-3.05-1.78-4.35-3-2.25-2.05-1.81-3.17,1.65-3.08a32.92,32.92,0,0,1-2.91-3.31c-.51-.76-1.62-2,.48-2.37.65-.12,1.73-.6.87-1.18-3.19-2.13-2.93-5.61-3.84-8.78A4.31,4.31,0,0,1,259,309.53Z"/><path class="cls-3" d="M290.78,399.15l7.43-1c-4.08-1.57-8.32-2.56-12.1-5.17a83.8,83.8,0,0,0,36.75-4.54c.54,1.84-3.05,4.38,1.26,4.75,1.15.11.35,1.64-.23,2.35a10,10,0,0,1-5.17,3.2A59.9,59.9,0,0,1,291.83,400C291.49,399.9,291.2,399.48,290.78,399.15Z"/><path class="cls-3" d="M302.84,361c-4.56.3-9.1,1-14.34.61l10.3-6.17-10.44-.15c5.21-3,9.72-5.12,14.88-5.46,1.84-.24,3.75-1.36,5.41.46,2.25-.21,4.21.7,6.44,1.32-1.15,2.46-3.55,2.11-5.38,3.29,2.37,1.66,5.25.95,7.48,2.34-.32,1.46-1.55,1.72-2.63,2.16C311,362.43,306.93,361.77,302.84,361Z"/><path class="cls-5" d="M308.65,350.26c-1.76-.61-3.68.57-5.41-.46-5.05-2.1-10.07-.94-15.83.5,2.43-3.06,5.24-4.31,8.79-6.13l-8.86.05c7.87-6.81,20-7.6,25.73-2.75-1.27,1.37-3.13,1.51-4.88,2.4,1.73,1.57,4.42,1.35,5.79,3.23C312.68,349.13,309.64,347.93,308.65,350.26Z"/><path class="cls-6" d="M322.35,398.7c-.82,2.44-2.58,3.46-3.89,5.13l4.21.68c-5.27,5.91-29.26,9.49-37.39,5.44,7-2.18,14.43-.4,21.66-3.63-3.79-1.24-7.27.2-10.66-2.18C305.28,402.52,313.8,401.35,322.35,398.7Z"/><path class="cls-7" d="M271.51,351.33,280,355.9c-6.12,1.56-12.17.84-15.15-1.9-1-.91-3.18-1.72-.92-3.77,1.17-1.06-.64-1.36-1.1-2-.62-.86-2-1.53-1.56-2.68.58-1.43,2.12-.78,3.28-.77,5.69.08,11.07,2.28,16.27,6.74C277.66,351.65,274.79,350.68,271.51,351.33Z"/><path class="cls-7" d="M263.7,330.86c2.27-.13,3.7,2,5.88,2.16,3.28,1.67,7.1,2.4,10.07,5.91-3.53-.33-6.44-1.15-10-.69l8.74,5.07-.19.75c-3.06-.08-6.13,0-9.17-.28-4.69-.44-5.61-1.7-5.39-6.49,0-.27-.4-.61-.69-.82C259.81,334.13,259.49,332.19,263.7,330.86Z"/><path class="cls-5" d="M303.44,418.25a34,34,0,0,1-15.83-1.71c2.56-.38,5.13-.68,7.67-1.16,5.94-1.11,11.93-2,17.63-4.15a31.61,31.61,0,0,1,6.46-1.29c.91-.15,2.12-.2,2.53.81s-.75,1.62-1.44,2.2a12.62,12.62,0,0,1-5.4,2.87A21.5,21.5,0,0,1,303.44,418.25Z"/><path class="cls-5" d="M303.74,331.9c2.08,0,4.21-.54,6.21.51,3.6,1,7.21,2.07,12.13,1.65-3.18,3-6.24,3.23-9.24,3.23-8.37,0-16.75-1-25.37.6C290.64,334.87,291.62,334.52,303.74,331.9Z"/><path class="cls-8" d="M306.76,451.27l10.9-2.22c-.3.68-.52,1.34.63,1.31,1.46-.05,3-.47,4.58,1.1-7.81,7.53-17.17,5.23-26.24,4.5,3.5-1.09,7-2,10.47-3.3C309.38,451.84,307.16,451.68,306.76,451.27Z"/><path class="cls-2" d="M301.39,366.31c-3.75.05-7.49,0-11.23-1.36l14.56-3a23.25,23.25,0,0,1,9.23-1.56c4.05,1.38,2.65,5,3.22,7.83a2.68,2.68,0,0,1-1.53.9c-3.19,1.81-4.77-.94-6.83-2.39C306.31,367,303.78,367.76,301.39,366.31Z"/><path class="cls-5" d="M263.62,454.21c-3.76-1.65-7.41-3.46-10.45-7.7l5.81,1.86a16.24,16.24,0,0,1,8.24,2.42c5.79,1.66,11.75,1.43,18,1.57-1.32,1.56-3,1.95-4.48,2.56C274.94,456.9,269.17,458.15,263.62,454.21Z"/><path class="cls-9" d="M276.17,457.32c3.75.5,7.51.07,11.57-.18-6.84,6.78-22.39,5.41-29.88-2.44,1.62-.66,2.91.64,4.33.5A103,103,0,0,1,276.17,457.32Z"/><path class="cls-1" d="M300.36,315c6.43-.25,12.74-1.85,19.25-1.59,4.57.18,8.08-2.56,10.91-5.85,1.84-2.14,4.05-2.88,7.09-3.42-7.27,8.07-15.66,12.72-26.17,12.78-4.5,0-9-.41-13.52-.63C298.71,315.84,299.83,316,300.36,315Z"/><path class="cls-9" d="M279.28,378.17c-.62,1.73-2.58,1.21-3.95,2.43l6.87,2.88c-5.45,1.1-10,2.25-14.2-.39-1-.61-5.17-1.57-.6-4.28C271.19,376.56,274.37,375.57,279.28,378.17Z"/><path class="cls-10" d="M270.12,440c1.84.51,3.67,1.1,5.54,1.5s3.5.52,5.36.78c-6.74,5.2-21,1.73-24-5.85l5.82,1.89A11,11,0,0,1,270.12,440Z"/><path class="cls-11" d="M263.65,437.07c-2.54-1.52-5.06-3.05-7-6.8,8.12,3.2,15.52,5.39,23.67,5.75-3.41,2.79-3.61,2.84-10.42,2.9A6.79,6.79,0,0,1,263.65,437.07Z"/><path class="cls-8" d="M259.72,447.31c-1.38-1.44-3.21-2.55-3.6-5.21A118.16,118.16,0,0,0,275.3,447c-2.3,2.46-5,2.1-7.33,2.65C264.91,449.94,262,449.71,259.72,447.31Z"/><path class="cls-2" d="M302.89,371c-5.55,1-11,.16-17.21-.43,5.25-2.43,10.23-2.72,15.13-3.35,1.36-.09,2.68-.84,4.07-.17,1.39.32,2.29,1.26,1.82,2.58C306.08,371.42,304.31,371,302.89,371Z"/><path class="cls-11" d="M261.62,390.28c4.63,1.41,9.11,1.39,13.1,3.3,1.07.51,2.29.92,2.88,2.14C272.11,398.26,263.82,395.68,261.62,390.28Z"/><path class="cls-10" d="M260.29,412.52c-1.08-1.23-2.4-2.29-2.69-4.52l15.65,4.26c-2.29,2.39-4.93,2-7.35,2.34C263.55,415.21,261.58,414.78,260.29,412.52Z"/><path class="cls-12" d="M276.11,430.93c-8.31,3.26-14,1.13-16.27-5.44C264.8,427.94,270.08,429.07,276.11,430.93Z"/><path class="cls-12" d="M272.79,405.78c-6.6,4.82-12.13,3-13.87-4.63C263.21,403.82,267.55,404.82,272.79,405.78Z"/><path class="cls-13" d="M265.21,415.63l6.35,2.05c-5.44,3.39-10.93,2.31-13-2.14-.42-.91-1.54-2.57,1.08-2A13.2,13.2,0,0,1,265.21,415.63Z"/><path class="cls-12" d="M260,419.45l11,4C265.73,427.37,261.39,425.86,260,419.45Z"/><path class="cls-14" d="M266.78,402a4.32,4.32,0,0,1-4.46-1.32c-.84-1-2-2.36-1.24-3.62s2.12.08,3.18.33a13.63,13.63,0,0,1,3,1.16c.89.47,2.66.25,2.44,1.63C269.55,401.35,268,401.72,266.78,402Z"/><path class="cls-3" d="M302.89,371c1.09-.57,2.89,0,3.23-1.75.25-1.24-1.12-1.24-1.82-1.74,1.25-1.91,3.72-.7,5.18-2.06.72,0,1.72.13,1.73.76.08,3.75,2.56,2.33,4.46,2.19-2.21,2.46-5.09,2.78-8.15,2.53C306,370.84,304.45,371.77,302.89,371Z"/><path class="cls-15" d="M277.15,371.41a5.75,5.75,0,0,1-5,2.17c-2-.14-4.29-1.18-4-3.14.25-1.77,2.5-.42,3.74-.17C273.57,370.6,275.42,370.15,277.15,371.41Z"/><path class="cls-3" d="M317,367.94c-2.68-1.67,0-5.08-2.24-6.89.37-.74,1-.75,1.69-.64,1.43-.06,2.86-.6,4.27.08-.7.4-2.08,0-1.89,1.39.11.77,1,.48,1.65.52-2.8,1-.75,4.17-2.6,5.57A.58.58,0,0,1,317,367.94Z"/><path class="cls-1" d="M276.17,457.32a38.64,38.64,0,0,1-14-2.12l1.43-1a33.89,33.89,0,0,0,17.11.71C279.76,456.76,277.12,455.42,276.17,457.32Z"/><path class="cls-12" d="M273.31,387.38c-4.74,2.78-7.6,1.76-8.59-3.18Z"/><path class="cls-1" d="M303.44,418.25l11.62-2.43c-.29.51-.84.94-.51,1.64l-11.62,2.28Z"/><path class="cls-16" d="M276.52,364c-4.11,3.24-5.56,3.06-8.62-1.49Z"/><path class="cls-1" d="M317,367.94l.88,0,1.87,1c-3.68.26-6.88,2.19-10.38,3.06L307.52,371c2.62-1.18,5.8-.52,8.15-2.53Z"/><path class="cls-1" d="M316.49,360.41l-1.69.64c-3.46-.69-6.7.85-10.08.94l-1.88-1,11.72-1.6Z"/><path class="cls-1" d="M259.72,447.31a30,30,0,0,0,8.25,2.35l-.75,1.13a19.28,19.28,0,0,1-8.24-2.42Z"/><path class="cls-1" d="M302.68,377.05c3-.9,6.21-.05,9.25-.89-3.73,1.16-7.36,2.75-11.4,2.14Z"/><path class="cls-17" d="M210.17,107.79l1.05.68c-.84,2.91-1.86,5.71-4.4,7.64l-1-1.45A12.59,12.59,0,0,1,210.17,107.79Z"/><path class="cls-1" d="M263.65,437.07l6.25,1.85.22,1.05a17.68,17.68,0,0,1-7.29-1.68Z"/><path class="cls-1" d="M309.48,365.49c-1.36,1.59-3.42,1.45-5.18,2.06-1.16-.13-2.39.59-3.49-.29l.58-.95Z"/><path class="cls-1" d="M330.92,439.73c.16,1.14,3.95-1.38,1.94,1.93-2.36-2-3.58,2.51-5.95.71C327.74,441,329.41,440.45,330.92,439.73Z"/><path class="cls-1" d="M254.41,300.6c-2.2-.21-3.93-1.55-6.7-2.76,3.18.11,5.4.46,7.48,1.53Z"/><path class="cls-18" d="M298.45,383.52c-1.41,1.13-3.58.29-4.81,1.86l-3-.27A15.47,15.47,0,0,1,298.45,383.52Z"/><path class="cls-1" d="M265.21,415.63a13.12,13.12,0,0,1-5.58-2.12l.66-1,5.61,2.08Z"/><path class="cls-1" d="M327.19,318l1.83.4a7.87,7.87,0,0,1-4.87,1.65c-.36-.4-.71-.81-1.07-1.22Z"/><path class="cls-1" d="M265.89,311.89l-5.9-2.33c2.13-.66,3.95.25,5.78,1.14Z"/><path class="cls-1" d="M235.62,287.61c-5.78-3.09-10.23-7.76-14.63-12.45-5.8-6.19-11.46-12.5-18.56-19,9-.47,17.69.5,23.93-6.43.06-.49.39-1,.18-1.47-.64.39-1.51.31-2,1-3.08,1.83-6.09,3.82-9.75,4.27-.91.11-2.26.11-2.72-.43-.91-1.06.61-1.81,1.38-3.09-1.57.32-2.7.47-3.79.79-9.11,2.63-16.73-.61-21.11-9-4-7.63-5.19-15.85-5.36-24.36-.17-9,.07-18.06-1.35-27.06,3,3.76,3.36,8.27,3.5,12.72.21,7.29-.05,14.58.17,21.87a29.57,29.57,0,0,0,5.21,16.72c4.55,6.41,12,8.85,20.12,6-6.85-.53-12.71-1.52-16.39-7.29,6.23-.26,12.45-.14,18.41-2.63-5.95-.31-11.94-.28-17.69-2.42,4.67-.92,9.33-1.75,13.94-3.66-8.28-.6-16.36-1.69-21.85-8.91,5,1.71,9.58,5,16.13,2.75-3.64-1.66-6.57-3-9.49-5.56,4.36-.42,8.35,1.14,12.39-1-8.26-3.27-15.52-7.18-18.47-17.09,3.37,3.21,5.6,6.38,9.3,8.31-5.19-8.69-7.53-18.68-15.23-25.64a9.46,9.46,0,0,1-2.73-9.49c.69-.34,1.14,0,1.56.51,3.5,8,9.12,14.22,16.75,20.09-1.87-4.77-4.33-8.41-3.3-12.85a8,8,0,0,0,0-1.19c-.13.13,0,.53-.11.65-1.77,1.76-1.78,1.75-2.75-1.59-.09,1.14.75,3.23-1.11,3-3.73-.5-4.1-3.93-4.77-6.75,0,.22.14.56.18.92.16,1.19.94,2.87-.34,3.41-1.62.68-2.22-1-2.78-2.29-1-3.25-1.85-6.5-.28-9.82.23-.49.2-.88,0-.35,0,.08-.5.05-.77.11l-.43-.21c5-12.4,14.15-16,26.88-15,9.35.76,18.35-.38,27.49-1.08,6.14-.48,12.27-1.58,18.41-1.57,22.64,0,26,19.79,18.28,33-.73.37-1.12,0-1.43-.62-.44-2.95,1-5.63,1.22-8.52.44-6.82.3-8.27-2.59-15.1-.23-.5-.4.45,0,0,.1-.11.19,0,.29.24,3.68,9.42,2.44,18.32-2.68,26.86-.34.56-1.48,1.18-.19,2,.49.25.89.53.72,1.16-10,10.24-22.22,15.27-36.42,15.72-.34-1.08.47-1.42,1.17-1.84,9.2-1.87,18.14-4.47,25.55-9.38-4.63,1.64-10,2.22-15.16,0-2.3-1-.86.34-1,1-.22,1.75-1.64,1.66-2.84,1.48a16.43,16.43,0,0,1-8.21-3.25c.43,1.1,2.28,2.27,1,3.48-2,1.94-4-.16-6-.59-.3-.46-.32.6.11.25,0,0,.12.07.28.3a3.2,3.2,0,0,1,.53,1.1,1.66,1.66,0,0,1-.74,1.54c-3.71,1-6.08-1.64-8.83-3.27a36.71,36.71,0,0,1-4.18-3.27c-.43-.34-.5.45-.24,0,0-.05.15,0,.36.19a43.68,43.68,0,0,0,3.85,3c1.18.8,3,1.59,2,3.41-.86,1.46-2.5.74-3.7.17-3-1.4-6.07-2.49-8.72-4.49-.72-.21-.62-1.62-1.64-1.27-2.52.85-.14,2.23-.29,3.35.7,1,1.92,1.68,2,3.1-1.18.19-3.24-.17-1.29,2,4,3.69,9.22,5.09,14.75,7.67-8.24,2.24-14.8,0-21.07-4.09,5.24,7.85,12.67,9.91,21.73,8.76-1.85,2.88-4.86,2.94-7.44,4,1.37,2.12,3.89.85,5.9,2.17-2.46,2.56-5.71,3.57-8.67,5.13,5.68,1.39,10.44-1.34,17.4-10.34-.87,8.17-6.41,11.85-11.48,16,3.43,0,4-.09,6.78-2.11,1.85-1.32,3.61-2.77,5.93-4.56.36,8.59-5.61,11.49-11.74,15,10.49-.5,14.38-6.93,16.44-15.45.78,2.57.84,2.59.44,4.23-.18.75-1,1.64.05,2.09s1.8-.3,2.27-1.27c1.3-2.67,2.62-5.33,4.2-8.53,1.91,6.77-1.06,12.65-1.8,19.88,6.18-9.69,9.16-18.54,3.39-28.43,3,1,3,1,5.82,6.05.69-2.51.69-2.51.19-5.73,3.15,2.94,4.26,6.67,6.12,10.06,1.69-1.28.17-3.31,1.28-5,2.26,2.63,2.74,5.9,4.57,8.74l1.07-7.12,4.47,10.1c1.42-3.19.32-6.06.76-9.17,8,6.6,11.05,15.23,11.61,26.16,3.08-7.88,1-14.37-.8-20.87-.39-.75-1.07-1.57.49-1.78,3,4.61,3.72,9.95,5.22,16.17,2.05-6.36,1.25-11.55-.63-16.74,4.55,6.23,5.55,13.71,7.55,21.9,1.17-5.86-.55-10.62-.62-15.6,7.64,8.71,10.74,25.55,6.22,34.48-1-1.46,0-3.39-1.6-4.64-2,14.13-10.41,22.56-23.55,26.72a2.43,2.43,0,0,1-1.27.93c-.86.25-1.71.51-1.75.51a6.6,6.6,0,0,1,4.12-.19l4.27-.59c-9,5.41-18.64,6.56-28.75,4.65-.24-.76.22-1.15.77-1.49,3-1.07,6,.24,9.5-.33-2,.14-3.83.34-4.11-1.42-.23-1.41,1.6-1.64,2.76-1.93,2.94-.76,5.93-1.27,8.9-1.87,15.46-3.15,22.28-10.59,24.13-25.22-3.53,8.48-8.49,17.13-18.95,21.07a2.18,2.18,0,0,1-2.13-.87c-.16-1.33.77-2,1.69-2.6a26.6,26.6,0,0,0,12.47-19.77c-3,9.32-9.9,15.33-18.12,20.22-1.71,1-4.38,1.19-4.52,4,.48.68,1.65,1.12.78,2.26-2.14,1.45-4.64,1.57-7.08,1.91-1.07.15-4.37-2.1-6.87-3.84-.66-.46-2.21.22-3.37.07s-2.83-.14-3.11-1.49c-.32-1.53,1.38-1.78,2.45-2.21a190,190,0,0,0,17.74-8.67c8.1-4.27,10-11.79,11.52-19.75-2,10.61-13.09,21.45-24.12,23.54-.86-.05-1.68-.18-2.05-1.11.48-1.88,2.21-2.32,3.63-3.08a40,40,0,0,0,8.56-5.73,20,20,0,0,0,6.43-15.61c-.21,4-2.82,7.92-6.24,11.42a2.14,2.14,0,0,1-2.61.68,1.28,1.28,0,0,1-.28-1.84c4.35-7,3.47-14.84,3.8-22.49,0-.55,0,.14,0-.41-.28,1.84-.29,3.7-.41,5.55a24.58,24.58,0,0,1-1.48,6c-.55,1.67-.9,3.51-2.67,4.48a2.36,2.36,0,0,1-2.61-1.16c-1-1.76.23-3.62,0-5.43-.48,3.26-1.17,6.28-4.18,8.18a1.75,1.75,0,0,1-2-.83c-.52-2.48,1.55-4,2.27-6a30.32,30.32,0,0,0,1.29-6.44c-2.87,8.8-8.77,14.33-16.68,17.94a10.56,10.56,0,0,1-3.13,1c-.83.1-1.77.19-2.28-.55s.12-1.57.63-2.18c1.65-2,3.58-3.79,4.56-6.41-5.58,5.13-11.71,8.7-19.21,8.84.61.32,1.59.1,2.48.47a7.74,7.74,0,0,1,2.78,2.39,24.55,24.55,0,0,0,2.52,2.14c1,.92.22,2.05.44,2.93.36,1.5,1.07,3.33,2.38,4.15a19.8,19.8,0,0,1,6.63,6.52c2.15,4,5.7,5,8.87,7.09,2,1.3,1,2.49-.65,3.31A3.86,3.86,0,0,1,235.62,287.61Z"/><path class="cls-1" d="M116.8,76.24l9.88,4.9c9.12,4.51,12.35,12.21,11.84,21.93-.08,1.36-.17,2.72-.25,4.08a1.33,1.33,0,0,0-.09,1.16c.28.52-.11,1.1.24,1.58a4.28,4.28,0,0,1,1-1.25c1.07-2.69,2.08-5.39,3.23-8,.46-1,.63-2.79,2.2-2.52s1.39,1.92,1.59,3.09c.28,1.68.36,3.4.56,5.39,2.29-1.3,1.9-3.79,3.91-6.13,1.16,10.78-2.48,20.16-3.31,29.9,5.84-8.11,7.76-17.55,9.32-27.22,3.19,6.84,2.92,13.81.93,20.9s-5.66,13.3-8.84,20.52c4.3-1.31,6.59-3.94,8.63-6.86,1-1.44,1.63-3.38,3.81-3.3s2.12,2.43,3,3.9c1.81-1.24,1.95-3.17,2.8-4.67,1.79-3.21,3.86-3.32,5.78-.28a3.45,3.45,0,0,1,.36.75c1.13,3.19,2,7.05,5.46,1.34.93-1.54,2.61-1.31,3.93-.1s2.77,2.68,4.18,4,2.4,1.79,4.33.65c2.89-1.69,6.19-.4,9.31-.28a1.6,1.6,0,0,1,1.06.55c1.23,1.53-2.06,11.36-4,12a7.4,7.4,0,0,1-5.2-.07c-4.9-1.79-9.95-3.18-14.84-5-8.46-3.14-16.48-2-24.3,2-2.57,1.31-5.24,2.46-7.66,4-10.71,6.9-21.56,6.38-32.53.84q-26.73-13.5-54-25.8c-12.43-5.57-24.89-11.07-37.34-16.6-.88-.39-1.8-.7-2.65-1.15-1.32-.68-3.15-1.39-2.44-3.19s2.45-.53,3.57-.16c21.31,7,42.59,14,63.89,21,5,1.63,10,3,15,4.68,3.49,1.15,5.64.35,7-3.36s.61-6.17-3-7.71c-5.18-2.22-10.36-4.47-15.58-6.6-20-8.18-40-16.27-60-24.54-1.48-.61-4.71-.74-3.81-3.13.81-2.13,3.39-.47,5,.07q38.13,12.84,76.19,25.86c5,1.71,6.61,1,8.4-3.92,1.39-3.81-.12-6-3.57-7.47-12.3-5.17-24.56-10.43-36.88-15.55-7.36-3.05-14.8-5.91-22.2-8.86-5.48-.54-9.89-4-15-5.51-1.61-.93-3.61-1.27-4.59-3.13.74-3.23,2.79-1.16,4-.76,9.41,3.09,18.76,6.35,28.12,9.57C79.59,83.45,96,89.14,112.38,94.71c5.78,2,7.91.65,9.22-5.1.92-4-1.51-5.86-4.58-7.25-10.79-4.87-21.56-9.78-32.42-14.5C71,61.93,57.05,56.72,43,51.79c-1.7-.6-5.21-.71-4.54-3,.8-2.66,3.8-1,5.77-.42C61.83,53.94,79.37,59.63,97,65.1,110.1,69.19,123.31,73,136.47,77c2,.6,3.93,1.27,5.9,1.89,10.77,3.43,18.42,10.13,22.22,21a86,86,0,0,0,3.43,8c4.14,8.84,10.16,15.6,20,18.37,4.23,1.2,8.34,2.82,12.47,4.35,1.13.42,3.32.17,2.81,2.2-.59,2.31-2.31.59-3.36.3-4.37-1.18-8.66-2.66-13-3.9-12.86-3.64-20.63-12-23.76-25a60.59,60.59,0,0,0-2.3-7.06c-2-5.41-5.42-9.34-11.09-11.4-10.6-3.86-21.22-7.62-32.06-10.73-3.19.26-5.72-1.87-8.37-2.22C111.56,73.86,114.74,73.85,116.8,76.24Z"/><path class="cls-1" d="M322.46,194.91a48.4,48.4,0,0,1-5.6,9.59c-2.74,3.95-7.41,3.72-11.48,4.89,0,1.16,1.85.43,1.74,1.82-4.8.69-9.52.75-14-1.53-1.14-.58-2.53-1.53-2.09-2.74.66-1.83,2.06-.22,3.06,0,3.68.84,7.34,2,11.79-.78-5-.18-9.11-.4-12.86-2.67,2.28-1.52,4.77.13,7.2-1.08-3.11-1.71-5.56-3.89-6.61-7.51l6.28-1.28c-3.44-2.29-5.95-4.72-7.16-8.63,3.62.57,6.93-.41,10.49-1.72-2.67-2.81-5.63-5.24-7.86-9a20.32,20.32,0,0,0,8,.77c-3.18-3.42-6-6.67-7.06-11.25l5.75.73c-2-3.82-4.81-6.73-5.73-10.84a27.25,27.25,0,0,0,8.91.16c-1.86-2-4.16-3.54-5-6.09-.27-.84-3.49-2.81.71-3.11,1.2-.09-.31-1.49-.32-2.33,0-6.23-2.8-12.92,1.76-18.45s11-6.91,18-5.42c.52,1-.25,1.43-.72,2,3.75,2.11,7.94,3.38,11.26,6.22,1,.88,2.5,1.9,1.84,3.35s-2.42.78-3.7.52c-2.16-.45-4.33-.84-5.72-1.24a17.53,17.53,0,0,1,7.37,3.46c1.32,1.05,2.69,2.13,2.15,4.09s-2.25,2.19-4,2.2c-5.08,0-10.16,0-15.48-1.16,3.28,2.2,6.76,2.75,10.22,3.38a25.17,25.17,0,0,1,3.65.66c.92.31,1.91.66,1.94,1.84s-.94,1.6-1.85,1.92c-3.55,1.24-7.05.55-10.78-.28a46.7,46.7,0,0,0,10.89,2c1.28.07,3.23-.13,3.33,1.64s-1.76,2.24-3.24,2.61c-3.44.84-6.85.07-10.27-.24-1.64-.15-3.24-.59-5.21-.71,3.64,2,7.1,3.42,11.05,3.54,1.35,0,3.67-.54,3.74,1.38.06,1.74-2.24,1.51-3.65,1.84a3.52,3.52,0,0,1,.6,0c2.09.4,5.13-1.46,6.13.67,1.1,2.33-2.29,3.64-3.34,5.76.77,1.24,3.27.22,3.43,2.16.14,1.71-1.47,2.52-2.59,3.5-1.45,1.27-3.11,2.26-4.94,3.82,4.12,1.33,3,3.43,1.05,5.69-1,1.13-2.73,1.89-1.09,4.06,1,1.3-.62,2.52-1.7,3.3a38.49,38.49,0,0,1-7.63,4.8c1.36.34,3.57,0,3.75,1.59.36,3.07-2.83,4.06-4.55,6.12.91.82,3.53.91,1.84,3.15a12.62,12.62,0,0,1-3.79,3A24.86,24.86,0,0,0,319,196.3c.63-1,1.05-2.3,2.5-2.55C322.15,193.86,322.65,194.1,322.46,194.91Z"/><path class="cls-1" d="M284.81,204.93c-2.8,6.27-8.42,7-14.21,6.88-3.21-.08-6.4-1-10.39-2.64l9-1.83c-4.14-1.74-8.52-2-13.42-4.54,5.52-1.69,10.5-2.14,14.83-4.58-1.09-1.29-3.1-.42-4.37-1.69,1.37-2.66,6.2-3.52,6.1-4.9-.22-3.34,2.21-4.67,3.18-7,3-.93,6.08-1.38,8.08-2.93-1.46.24-3.13,2-5.36,2.12-.76,0-2,1-2.08-.78a5.55,5.55,0,0,1,4.48-3.62,8.07,8.07,0,0,0,5.08-3.12c-1.94-.3-3.32.63-4.81.88-.79.14-1.88,1.38-2.4-.06-.46-1.26.58-1.78,1.73-2.27a19,19,0,0,0,8.38-7c-3.14-.35-5.43,1.41-8,1.81-.9.14-1.87.87-2.35-.59-.54-1.62.56-1.83,1.7-2,3.38-.62,6.54-1.62,8.91-4.87-3.1-.42-5.06,1.31-7.24,2.2-2.68,1.1-4.69,1.51-5.18-2.23a6.5,6.5,0,0,0-.88-1.85c-1.11-2.92,1.28-2,2.4-2,3.31.17,6.37-.15,9-3-4.46.47-8.26,3.66-12.7,1.57-3.54-5.64-9.3-7.73-15.37-9.86l5.92-1.2-7.35-4.39c2.29-1.84,4.87-1.87,7.44-2.88-2.13-1.37-4.77-.22-6.1-1.48-2-1.91,1.56-2.93,1.51-4.74-1.25-1-3,1.35-4-.55-.87-1.69.2-3.24,1.06-4.61,1.38-2.2,3-4.28,4.71-6.79-6.11,2-9.13,6.72-8.34,12.67.57,4.36,1.53,8.68,1,13.12-.16,1.31,0,2.75-2.08,2.82-2.47.1-1.71-1.72-1.73-2.84-.11-6.06.81-12.05,1.43-18.06.06-.54.33-1,.41-1.59.41-3,4.2-4.77,2.92-8.34,4.08-2.69,5.84-8.17,11.19-9.33,10.8-2.34,19.58,1.43,27.14,8.93l.06-.11c-.18.19-.55.41-.52.56,3.37,18-1.62,35.43-3.45,53.06-.94,9.14-2.77,18.19-4.19,27.27A26.79,26.79,0,0,1,275.82,206c2.23-.72,4.24-2,6.45-2.66C283.58,202.91,285.18,202.48,284.81,204.93Z"/><path class="cls-1" d="M329.32,264.17l-3.66-3.41c-.36-.84,0-1.18.82-1.15,3.27,1.35,6.24,3.41,9.74,4.25a6.25,6.25,0,0,1,2.79.59c.49.25.4-.69.23-.18,0,.12-.48,0-.75-.15a3.57,3.57,0,0,1-1.51-1.34c-3.66-2.28-7.49-4.29-10.69-7.24a1.46,1.46,0,0,1-.36-2c5,2.72,10.12,5.18,16,5.43-8.54-4.66-17.12-9.16-24.11-16.06-.37-.8-.06-1.12.76-1.07,8.66,5,17.53,9.45,27.74,10.36-7.1-5.89-17.17-6-23.87-12.77,7.57,2.31,14.79,6,22.86,6.45,1.6.41,3.19-.92,4.47-.11a8,8,0,0,1-3-1c-6.46-2-12.88-4.15-18.53-8-.32-.8-.09-1.23.81-1.21a72.94,72.94,0,0,0,25.44,4.07c-6.86-2.38-14-4-20.35-7.62-.22-.7-.11-1.17.77-1.09a75.46,75.46,0,0,0,19.36,2.27c-.86-1.62-2.59-.89-3.51-1.82.92-3.29,3.79-1.47,5.69-2.19.9.33,1.8.64,2.68,1,3.74,1.56,3.94,2.94.66,6.27,2.54,1.64,5,1.93,7.58.39,1-.61,1.51-2.85,3.22-1.51,1.33,1,0,2.55.08,3.86a5.78,5.78,0,0,1-.33,1.6,1,1,0,0,1-1,.41c-2.52-1-4.39,1.13-6.88,1.22.75.57,1.46.54,2,.91a2,2,0,0,1,1.09,1.92c-1.12,1.47-3,1.72-4.56,2.73,2.6,1.51,4.38-1.1,6.58-1.14.62.12,1.16.31.95,1.13-1.32,4.58-2.58,9.19-5.85,12.89-2.11-1.1-4,.19-5.9.63a15.15,15.15,0,0,1-4.5.68c3.52,1.31,6.92-.73,10.49-1.46.43,2.41-2,3.6-2.43,5.62-2.91-.42-5.61.7-8.38,1,2.28,1.82,5.16-1.11,7.42,1L358.08,271c-2.63,1.31-5.52,1.28-8.35,1.73,2,1.49,4.54-.06,6.57,1.18-2.8,5.8-5.3,11.77-8.48,17.35-5.22,9.15-14.52,13.21-23.25,10.56,6-.81,11.93-1.49,16.74-5.45-.21-2,1.94-2.91,2.21-4.73-13.48-.74-17.75-2.55-21.73-9.39a15.45,15.45,0,0,0,2.33,4.8c2.29,3.44,2.28,3.45-1.54,5a28.76,28.76,0,0,0,12,2.33c2.33-.05,2.34.15,1.29,2.2-4.5,1.49-9.07,1-13.68.7s-9.15-1.31-14.62-2.19c1.33,1.45,2.08,2.27,3.26,3.54-6.26-.59-11.68,1.95-17.79,1.27l5.51-3.32c-5.67.06-11.19,1.55-17.1.81,7.56-3.6,26.62-8.25,33.8-8.28.4-1.26-2.13-2.35-.18-3.8,6.83-5.07,5.41-12,4-18.81-.33-1.43-1.93-2.85,0-4.3,2.29,3.59,4.06,7.52,7.08,10.61,2.08,2.14,4.35,3.91,7.54,3.93-4.57-3.67-8.54-7.69-10.89-13.33,2.27.05,3.63,1.66,5.46,2.09,4.2.75,7.41,3.8,11,4.65C336.32,268.21,331.71,268,329.32,264.17Z"/><path class="cls-1" d="M350.1,206c-.42.94-.85,1.87-1.27,2.8-3.24-.12-6.05,2-9.31,1.82a43.82,43.82,0,0,0-5.12-.43c-3.26-.32-5.75-2.37-9.74-4.25,5.48-.61,9.91.59,14.42-.55-3.84-1.44-7.85-2.16-11-5.44,3.06-.07,5.86,1.19,9,.16-2.37-2.31-5.44-3.43-7.6-6.45,3.58.36,6.6,1.72,10.05,1.36-2.62-1.92-5.22-3.6-7.41-6.42l10.65.57c-2.78-2.22-5.77-3.82-8.48-6.8a46.52,46.52,0,0,0,12-1.94c-3.89-2.15-7.23-4.16-10.08-7.68,3.1,0,5.39,2,8.52,1.6-2.87-2.6-6.59-3.75-7.8-8,3.54,1.66,6.73,2.71,10.42,2.06a14,14,0,0,1-8.09-7.36c2.3-.7,4.39.74,7.22.34l-5.14-3.79c3.4-2.42,7.29-2.58,11.25-3.94-3-2.17-6.27-1.4-9.22-2.22.84-1.52,2.28-1.92,3.79-2.39-1.22-.92-2.38-.18-3.57-.43.54-2.43,3.14-2.29,4.65-3.76-1.55-1.33-3.35.77-5.55-.69,7-2.25,13.1-2.78,19,.92a21.7,21.7,0,0,1,5.71,5.31c4.78,6.2,7.79,12.55,3.24,20.36-1.77,3-2.71,6.56-4,9.85-.71.3-1.08-.12-1.39-.67a4.49,4.49,0,0,1,.16-2.87c.35-1.15.72-2.29,1.07-3.54-.51.72-.49,1.86-1.68,1.81-1.46-.87-2.48-1-2.8,1.17a26.27,26.27,0,0,1-1,5.66c-.6,1.57-1.54,2.84-2.42,1.16C356,190.53,352.77,198.16,350.1,206Z"/><path class="cls-1" d="M349.22,211.22c1.28-1.8,2.69-2.55,4.72-.93a10.8,10.8,0,0,0,2.94,1.47c4,1.54,4.89.83,5.33-3.48.56-5.5,3.88-9.27,8.38-12.07,1.75-1.09,3.54-.1,5.11.63,2.24,1,4.32,2.44,6.5,3.6.93.5,1.92,1.46,3,.8s.43-2,.33-3c-.09-.88-1-2,.1-2.61s2.14.16,3,.87c3.13,2.71,3.46,6.44,3.35,10.21s-1.37,7.23-2.13,11.3c1-.86,2-1.78,3.11-2.56,2-1.45,4.15-3.43,6.67-2.22s1,3.9,1,6.19c7.76-7.78,5-22.35-5.09-26.16-8.09-3.07-16.5-5.27-24.72-8-1.1-.36-3.54.27-2.81-2.39.68-2.48,2.31-1.17,3.6-.79,9,2.66,17.95,5.23,26.85,8.08,10,3.2,14.69,12.67,11.5,22.66-1.88,5.85-4.41,11.28-9.75,14.9-3.92,2.67-8,3.36-12.48,1.52C374.81,224,361.91,218.89,349,213.72,347.82,212.79,348.66,212,349.22,211.22Z"/><path class="cls-1" d="M206.82,116.11a23.17,23.17,0,0,1,4.4-7.64c4.61-.56,7.79-4.36,12.22-5.36,9.3-2.11,17.22.16,23.64,7.32a1.64,1.64,0,0,1-.94.62,18.85,18.85,0,0,0-6.89-.55,8.76,8.76,0,0,1,6.2,6.14c.38,1.09.82,1.65,2,.88a1.31,1.31,0,0,1,1,.26c-.15,2.22,4.11,5-.88,6.66a3.55,3.55,0,0,0,.22,1.52c1.72,4.53.59,8.88-.81,13.22-1,.5-1.4-.25-1.83-.9-.75-1.36-.14-3.29-1.79-4.28-.49-2.3,1.84-4.21.87-6.57,0-1.14,1-3.39-1.7-2-4.34,2.17-9.06,1.39-13.14,2.13a35.51,35.51,0,0,1,4.68.46c.9.13,2.22,0,2.31,1.21s-1.15,1.35-2.08,1.55c-.65.14-1.31.44-1.74.23.75.29,1.71-.33,2.7-.25l1.21.05c1.6.1,4.18-1.21,4.43,1,.2,1.78-2.62,1.67-4.2,2.14,2,.17,4.09-.89,6.18-.19,1.7,1.47,0,2.2-.81,2.75a13.19,13.19,0,0,1-7,2.59c1.46.66,2.73,1.15,1.56,3.11-1,1.6.85,1.14,1.52,1.49,1.37.54,3.42-.67,4.1,1.6-8.35,7-18.32,6.55-29,6.3l5.85-2.48-8.63-1.13c2.31-2.47,5.33-3.29,7.83-5.1-1.48-2-3.51-.71-5.07-1.43,1.82-1.86,4.34-2.08,6.71-3-1.23-2.11-3.94-.59-5.65-2.53l6.21-1.7c-2.36-1.77-5.4-.85-7.87-2.69,2-2.25,4.89-2.4,7.19-3.91-2.07-1.52-4.44-.67-6.91-1,1.24-3.27,3.81-5.32,6.29-8.08l-5.7-.77c4.33-6.76,12.83-2,17.36-7a81.57,81.57,0,0,1-13.26-.48c-3.81-.51-3.49,1.47-4.07,3.06a123.52,123.52,0,0,0-6.5,25.47c-1.46.26-1.19-.64-1-1.49-.78-7.35,2.88-13.94,4.13-22L207,119.47C206,118.34,207.29,117.15,206.82,116.11Z"/><path class="cls-1" d="M303.44,267.06a32.56,32.56,0,0,1-9.36,9.49c7.09-10.36,7.33-21.67,5.3-33.42,2,3.49,2.9,7.34,4.18,11.51.85-3.31-.25-6.13-.17-9,2.47,3,2.5,6.89,4.79,9.92l-.42-5.8c5.25,5.48,6.83,11.56,7.14,18a43.93,43.93,0,0,1-.7,8.62c-.89,6-1.82,6.94-8.21,9.22,2-4.25,3.93-8.35,3.54-13,.62-2.11-1.17-3.86-.89-5.45,0-1-1-.45-.41-.55.22,0,.3,0,.35.2a3.4,3.4,0,0,1-.49,2.72C306.24,280,300,286.57,290.16,290.2c-9.54,3.53-19.14,6.56-29.57,5.18,2.83-.58,5.64-1.23,8.48-1.71,8.35-1.42,16.35-3.84,23.44-8.59,6-4,10.77-9,12.1-16.45a23.27,23.27,0,0,1,0-4.62A4.21,4.21,0,0,1,303.44,267.06Z"/><path class="cls-1" d="M322.46,194.91l-.92-.78c-.11-.09-.32-.22-.3-.26,1.28-3.22,1.16-6.85,2.39-10a144.6,144.6,0,0,1,7.73-17.08c1.08-2,2.28-4.07.86-6.61-.62-1.1.43-2.35,1.09-3.38a22.32,22.32,0,0,0,3.21-12.6,33.55,33.55,0,0,1,.08-6.18c1.06-6.16-1.53-10.35-6.77-13.27-1.18-.65-2.55-1.12-3.2-2.49-.31-.9.49-1.45.7-2.19-1.72-2.44,0-1.5,1-1a23.07,23.07,0,0,1,11.25,15c1.43,5.51,0,10.9-.94,16.27C335.88,166.22,331.67,181.48,322.46,194.91Z"/><path class="cls-1" d="M399.5,232.55c-4.59,5.41-10.21,5.17-16.08,2.76-11.45-4.7-22.86-9.5-34.29-14.25l-7.68-3.21c2.72-2.51,5.12-1.75,7.75-.65,11.8,4.94,23.69,9.67,35.47,14.65C389.57,233.93,394.37,234.75,399.5,232.55Z"/><path class="cls-13" d="M335.91,296.57c1.28-1.81-.25-1.3-1.08-1.27a24.66,24.66,0,0,1-16.19-4.53l6.81-.19c-2.32-3.25-5.18-5.93-4-10.45,5.55,10.29,14.37,11.5,24.83,9.36-1.26,3-3.27,4.86-5,6.9C339.47,295.28,337.72,296.77,335.91,296.57Z"/><path class="cls-5" d="M366.1,177.45c-.15.83-.29,1.66-.43,2.49a5.92,5.92,0,0,1-1,3.9c-3.57,6.14-6.79,12.51-11.29,18.07.85,2.91-1.9,2.94-3.27,4.08-.05-.75-1.47-1-.75-2.06,2.79-4.24,3-9.66,5.47-13.77,1.92-3.2,2.23-6.27,2.86-9.57.74-.28.78.4,1,.78a19.45,19.45,0,0,1,.67,1.85c1.81-3.47,1.23-7.32,2.62-10.64a4.34,4.34,0,0,1,2.91,2.34C365.7,175.55,366.68,176.11,366.1,177.45Z"/><path class="cls-1" d="M138.93,160.22c-9.19,4.2-18.05,2.14-26.57-1.87s-16.87-8.57-25.29-12.89c-.28-.71-.17-1.15.73-1,8.37,4.07,16.72,8.19,25.12,12.21s16.88,5.57,25.91,2.76c.24.15.33.32.28.51S139,160.2,138.93,160.22Z"/><path class="cls-1" d="M334.4,210.18c1.47-.6,2.89-1.71,4.52-.38.36,1.34,2.19.55,2.54,1.6.67,2,1.25.82,2.17.21,1.21-.8,2.2-3.29,4.15-.92l-.37.82c-.22,1.21-1.25,1.59-2.15,2.09-7.37,2.37-14.63,2.8-22-1.3,3.69-.8,7.11.79,10.43-.42C334.71,211.49,335.55,211.39,334.4,210.18Z"/><path class="cls-1" d="M88.42,72.52c10.47,4.51,21.14,8.64,31,14.31l-.75,1.57-31-14.85C87.39,72.83,87.42,72.32,88.42,72.52Z"/><path class="cls-1" d="M232.52,204.47,231,205.62a35,35,0,0,1-23.24-6.19c-1.07-.74-1.79-2.18-3.44-1.91-2.17-1.89-2.17-1.89-2.82-5l1.38,1.26.91.84c.63-1.2-1.29-1.79-.61-3.15,1.58.59,2.52,1.92,3.61,3,.92,2.92,3.84,3.5,6,4.85,4.79,3,10.17,4.06,15.81,4C229.92,203.34,231.64,202.53,232.52,204.47Z"/><path class="cls-19" d="M274.29,157a48.57,48.57,0,0,0,15.28-4c-1.78,5.21-6.65,7.52-12.14,6.38-1-.22-2.2-1-1.83,1C274.29,159.57,274.4,158.24,274.29,157Z"/><path class="cls-1" d="M87.8,144.44l-.73,1L63.7,134.11c-.31-.66-.3-1.09.62-.89Z"/><path class="cls-1" d="M353.37,201.91c3.72-7.53,9.17-14.1,12.3-22l.91.69C363.33,188.45,359.68,196,353.37,201.91Z"/><path class="cls-1" d="M96.49,100.52,74,90.54l.44-1.06,22.85,9.88C97.32,100,96.79,100.15,96.49,100.52Z"/><path class="cls-1" d="M356.51,229.08c-1.28,2.33-4.13.57-5.69,2.19a1.64,1.64,0,0,1-1.82-.34.79.79,0,0,1-.1-1.14l2.85-.58-9.34-3.31C347.65,224.67,352.15,226.56,356.51,229.08Z"/><path class="cls-20" d="M284.81,204.93c-.1-1.35-.3-1.92-1.9-1-2.55,1.46-5.16,3.26-9.43,1.58,5.55-.95,8-5.45,12.47-6.87C285.75,200.77,286,203,284.81,204.93Z"/><path class="cls-21" d="M359.46,268.31c-2.34-.42-4.54,1.35-6.91.45-1.31-.5-3-.29-3.82-2.21,3.09-.62,6.29-.2,9-1.92,1.72-1.08,1.68,1.2,2.65,1.6C360.77,267.24,360.19,267.8,359.46,268.31Z"/><path class="cls-1" d="M96.49,100.52l.82-1.16c4.89,2.19,10.47,3.2,14.21,7.35l-.56,1Z"/><path class="cls-22" d="M347.78,210.69c-.7-1.71-1.26-.37-1.77.12-1.57,1.52-3.14,3-5.7,3,2.4-2.13.39-2-1-2.44-.67-.19-3.36-.29-.38-1.54a11,11,0,0,0,5.81-1.49c1.68-1.1,2.81-.26,4.1.48A2.28,2.28,0,0,1,347.78,210.69Z"/><path class="cls-23" d="M356.3,273.93c-5.39,1.33-5.93,1.23-9.92-2.45,4.41.54,7.93-1.2,11.7-.46A3.9,3.9,0,0,1,356.3,273.93Z"/><path class="cls-1" d="M82.85,116.28l20,8.2-.67,1.66-19-8.63A.88.88,0,0,1,82.85,116.28Z"/><path class="cls-24" d="M35.84,71.4a131.08,131.08,0,0,1,14.83,6.25l-.76.91c-.17.62-.48.71-.93.26-4.63-1-8.32-4.15-12.73-5.66-.59-.26-1.3-.46-1.28-1.27C35,71.43,35.43,71.36,35.84,71.4Z"/><path class="cls-25" d="M329.32,264.17c4.18,2.44,8.51,4.59,12.89,6.7-5.27-.18-9.7-2.55-14-5.38Z"/><path class="cls-1" d="M245.59,137.53c.41.59.44,1.5,1.37,1.65-.39,3.06-.8,6.12-1.17,9.18-.08.71-.19,1.5-1,1.37-1.31-.19-.62-1.1-.5-1.83.2-1.26,1-2.44.5-4l-2.47,1.29c-1.32-1.14-3.09.46-4.41-.73.11-.26.23-.59.45-.66A11.08,11.08,0,0,0,245.59,137.53Z"/><path class="cls-1" d="M88.42,72.52l-.76,1-15.7-7c-.3-.63-.34-1.08.6-.82Z"/><path class="cls-1" d="M206,137.28l1,1.49c-.18,3.52-.34,7-.54,10.54-.06.88.28,2.15-1.19,2.13s-1.07-1.28-1-2.13C204.85,145.3,205.44,141.29,206,137.28Z"/><path class="cls-1" d="M64.32,133.22l-.62.89L48.55,127l.48-1.08Z"/><path class="cls-1" d="M348.9,229.79l.1,1.14a40,40,0,0,1-15.13-5.4C338.83,227.17,343.86,228.47,348.9,229.79Z"/><path class="cls-1" d="M235.62,287.61l1.66-1.22c3.41,1.54,7.49,1.53,10.27,4.5l-.73.92A23.1,23.1,0,0,1,235.62,287.61Z"/><path class="cls-1" d="M246.12,110.68l1-.25c1.92,1,2.51,3,3.46,4.74,1.34,2.43.17,3-2.11,2.61l-.89.1C246.61,115.57,245.56,113.28,246.12,110.68Z"/><path class="cls-1" d="M328.83,229c-4.18-1.44-7.37-4.39-10.43-7.6l10.85,7Q329.84,229.22,328.83,229Z"/><path class="cls-1" d="M368.61,247.87l-1-.66a9.55,9.55,0,0,0-2.23-2.3l-1.06-1.11a6.93,6.93,0,0,1,5.13-2.94l.92-.17A22,22,0,0,1,368.61,247.87Z"/><path class="cls-1" d="M55.68,81.45l11.9,4.89-.49,1.2L55.31,82.1A.46.46,0,0,1,55.68,81.45Z"/><path class="cls-26" d="M116.8,76.24,107,72.59c3.88-.6,7.21,1.06,10.63,2.38Z"/><path class="cls-1" d="M180.36,151.8,170,148.53c3.89-.15,7.46.95,11,2.28C181.09,151.33,180.63,151.5,180.36,151.8Z"/><path class="cls-27" d="M276.17,183.07c3.41,1.47,5.37-2.28,8.95-2.43-2.56,3.76-6.05,3.93-9.59,4A1.25,1.25,0,0,1,276.17,183.07Z"/><path class="cls-1" d="M271.07,183.23l1,.65a13.42,13.42,0,0,1-4.68,6l-1-.67A8,8,0,0,1,271.07,183.23Z"/><path class="cls-28" d="M35.84,71.4c-1.08.87.39,1.15.41,1.76-2.33-.63-5.79.15-5.18-4.15Z"/><path class="cls-1" d="M327.33,120.11l-.34,2c-2.95.57-5.47-.72-8-1.89l1.34-1.72C322.85,118.15,324.77,120.49,327.33,120.11Z"/><path class="cls-1" d="M294.05,117.86c2.71,1.06,4.73,2.53,3.7,5.79-1.33-1.9-3.21-3.49-3.64-5.9Z"/><path class="cls-1" d="M82.85,116.28l.25,1.23-8.72-3.85a.45.45,0,0,1,.35-.63A35.89,35.89,0,0,1,82.85,116.28Z"/><path class="cls-29" d="M138.93,160.22l-.1-.81c2-2,4.93-2,7.29-3.35A16.25,16.25,0,0,1,138.93,160.22Z"/><path class="cls-30" d="M32.53,119.16c2.64-.28,4.41,1.2,6.29,2.46C36.26,121.88,34.46,120.27,32.53,119.16Z"/><path class="cls-31" d="M303.44,267.06c.89-2.15.54-4.47.92-6.73a11,11,0,0,1,.25,8.3Z"/><path class="cls-32" d="M205,202.64a6.8,6.8,0,0,1-3.48-4.75l4.77,2.73C207.14,202.14,204.64,201.49,205,202.64Z"/><path class="cls-1" d="M184.61,152.21l5.52,1.95c-2,2.19-3.55.63-5.09.12A1.62,1.62,0,0,1,184.61,152.21Z"/><path class="cls-1" d="M72.56,65.69l-.6.82-6.61-2.86C68.12,63.25,70.37,64.38,72.56,65.69Z"/><path class="cls-1" d="M271.3,287.75a20.13,20.13,0,0,1-6.32,1.19,6.77,6.77,0,0,1,5.22-2.44Z"/><path class="cls-33" d="M337,262.78l5.69,2.45a8.24,8.24,0,0,1-6.45-1.37Z"/><path class="cls-1" d="M325.93,253.52l.36,2-6.65-4.86C322.88,250.72,324.29,252.37,325.93,253.52Z"/><path class="cls-34" d="M63.57,61.59c-3.36.76-5-.8-6.59-2.41Z"/><path class="cls-1" d="M184.61,152.21l.43,2.07c-1.92-.15-2.94-2-4.68-2.48l.67-1Z"/><path class="cls-1" d="M180.22,175.69l-1.07-.77a8.84,8.84,0,0,1,1.85-6.38h.16c1.65,1.48-.17,3.07.14,4.6C181.35,174.16,181.61,175.27,180.22,175.69Z"/><path class="cls-35" d="M346.83,244.71l5.05.72c-2.19,1.38-4.36,1.16-6.55.43Z"/><path class="cls-36" d="M308.09,269.48l.18-3.83c1.32,2.26,2.07,4.49,1.26,6.91C308.76,271.67,309.59,270,308.09,269.48Z"/><path class="cls-37" d="M49,78.82l.93-.25,5.77,2.88a1.57,1.57,0,0,1-.37.65C53.09,81.22,50.61,80.84,49,78.82Z"/><path class="cls-1" d="M277.61,224.21l-.49,1.78c-1.56-1.66-1.77-3.89-3-6.4C276.08,221.13,277.13,222.46,277.61,224.21Z"/><path class="cls-22" d="M345.26,213.6a4.63,4.63,0,0,1,2.15-2.09l1.81-.29c-.21.82-.91,1.61-.19,2.5C347.73,214.93,346.54,213,345.26,213.6Z"/><path class="cls-1" d="M372.72,169.41a8,8,0,0,1,.34,5.38C373.46,173.05,370.43,171.67,372.72,169.41Z"/><path class="cls-38" d="M139.41,108.64a8.44,8.44,0,0,1-2.21,4.57c-.48-2.4.42-4.21,1.07-6.06C138.64,107.65,138.55,108.5,139.41,108.64Z"/><path class="cls-1" d="M335,230.82l-.77,1.09a13.88,13.88,0,0,1-5.37-2.95.48.48,0,0,0,.42-.6Z"/><path class="cls-1" d="M329.11,235.46l-.81,1.21c-1.72-.45-2.93-1.57-4.81-3.46C326.08,233.94,327.71,234.37,329.11,235.46Z"/><path class="cls-1" d="M74.38,113.66a15.79,15.79,0,0,1-6.08-3A12.76,12.76,0,0,1,74.73,113,1.32,1.32,0,0,1,74.38,113.66Z"/><path class="cls-1" d="M318.6,241.82l-.76,1.07-5.1-3.86C315.55,238.72,317,240.54,318.6,241.82Z"/><path class="cls-1" d="M326.48,259.61c-.28.38-.55.77-.82,1.15a10.82,10.82,0,0,1-4-4Z"/><path class="cls-1" d="M319.06,262.19c-.89,1.44.47,2.86,0,4.3-1.2-2-1.58-4.19-2.22-7.31C318.18,260.41,318.85,261.09,319.06,262.19Z"/><path class="cls-39" d="M224.53,249.22l3.36-3.41c.56,1.9,0,3.14-1.53,3.9C225.89,249,225.16,249.31,224.53,249.22Z"/><path class="cls-2" d="M247.55,290.89c-3.43-1.49-7.47-1.56-10.27-4.5l2.88-.58c-3.61-1.8-6.56-3.2-9.44-4.74-.68-.36-3.14-.72-.28-2,1.17-.53-.27-1.31-.81-1.45-3.88-1-4.36-6.11-8.39-6.87,1-3.07-2.08-3.11-3.41-4.62.45-1.39,2.19-.35,3-1.63-3.77-2-6.27-5.86-11-6.51,9.39-.62,17-4.34,23.55-11.68-.42,5.54-3.78,8.49-7.2,11.65,9.46-.84,16.79-7.72,22.54-20.85,1.49,4.11.51,8.41-3.34,14.69-1.2,3.67-4.74,5-7.07,7,3.08-1.58,5.48-4.62,8.72-6.56,2.34-2.4,3.1-5.7,4.84-8.9,1,2.39-.43,4.24-.29,6.17.44,3.58-1.62,6.2-3.54,8.81-3.81,5.15-8.52,9.06-15,10.32a13.93,13.93,0,0,1-3.88.48c.5-.25,1.8.17,3-.28,9.1-1.36,14.37-7.67,19-14.77.74-1.14,1.27-2.42,2.55-3.12,3.13-5.14,3.39-11.1,4.68-17.42,1.5,9.5,2,18.19-3.81,26,4.4-1.45,6.11-4.36,9.07-15.12,2.55,6.86.37,14.46-5.68,20.05-3.69,3.41-8.19,5.44-12.6,7.63-1.28,1.37-3.13,1.57-4.06,1.9,1.33-1.11,3.9-.47,6-1.41,11.87-4.86,22.06-11.31,23.8-26.24,2.17,8.4-2.11,19-9.05,23.12-3.53,2.1-7.17,4.05-10.87,5.86s-7.45,3.33-11.37,5.06c2.64,1.27,5.41.43,8.15.67l-2.22,2c5,.4,9.68,2.62,14.44.17,2.71-2.47,6.36-2.37,9.57-3.46,10.86-4.95,16-14.43,19.76-25.24,2,7.24-3.13,20.09-9.87,25.15-7.81,5.87-17.17,6.95-26.85,8.52,2.44,1.68,5.08.45,7.38,1.66C255.92,291.65,251.72,291.11,247.55,290.89Z"/><path class="cls-5" d="M267.36,161.23c3.21,8.26.31,21.55-6,27.69a5.61,5.61,0,0,1-3.69,1.48,49.17,49.17,0,0,1-16.36-1.19c-8.37-2.05-11-5.73-10.52-14.94.81,1.78,1.39,3.29,2.17,4.69s1.86,2.91,3.46,5.35c-.34-4.65-2.3-7.52-3.21-10.7a28.88,28.88,0,0,1-1.46-9.73c.17-3,1.17-5.75,3.66-7.53.86-.61,1.95-3.27,3.63-.58.15.24,1.26-.08,1.9-.2,2.44-.43,4.87-.89,7.3-1.34.27.7-.12,1.13-.62,1.52a11.39,11.39,0,0,1-2.27.89c-9.5,3.4-12.33,11.31-7.11,20.39,2.23-2,1.49-5.19,3.07-7.34,1-.26,1.45.38,1.85,1.11,1,3.28-.61,6.15-1.37,9.17-.38,1.53-1.84,3.91,1.87,2.93.4-.1.7.36,1,.6,4.05,2.93,6.79,2.79,10.29-.56a19.7,19.7,0,0,0,5.83-10.64c.42-2.09.12-4.45,1.88-6.15,1-.07,1.45.63,1.83,1.4,1.1,4.33-.57,8.24-1.85,12.2a23.21,23.21,0,0,1-2.2,3.43,24.63,24.63,0,0,0,2-3,36.54,36.54,0,0,0,3.55-14.07C266.68,164.55,264.93,162.35,267.36,161.23Z"/><path class="cls-4" d="M232.52,204.47c-4.61-.37-9.29,0-13.81-1.4A27,27,0,0,1,206,195.14c-.05-.06,0-.31.12-.37a4,4,0,0,1,.66-.31,32.49,32.49,0,0,0,12.7,5.74c-2.95-3.06-6-4.54-7.5-8.41,4.58,3.31,8.4,6.5,13.3,7.74a6.41,6.41,0,0,1,2.05.12c-.3,0-.78-.68-1.25-1.36l-5.31-4.45c4.47.73,7.15,3.31,11,3.17-1.11-1.9-2.85-3.14-3.6-6,4.36,3,8.5,5,13.94,5.13l-4.45-4.6c4.63,1.62,8,3.26,11.9,3.14s7.53-1.16,11.31-2C252.74,199.91,242.84,202.69,232.52,204.47Z"/><path class="cls-7" d="M180.22,175.69l.36-2.65c2.56,1,1.08,3.8,2.4,5.35l2,2.71c-.3-3-1.36-5.42.37-8.17.69,4.11,1.19,8,4.91,10.44.6-2-.78-4.2.91-6l1.56,6.09c.85-1.86.68-3.5,2.39-5.11-1.1,6.95.88,12.7,4.79,19C189.6,192.5,183.94,185,180.22,175.69Z"/><path class="cls-6" d="M258.26,282.18c-.8-.32-2.85-.09-.88-1.72a21.83,21.83,0,0,1,3.76-2.48c10.16-5.41,18-12.85,21.36-24.3.47,11.67-4.83,20-14.66,25.66A11.6,11.6,0,0,1,258.26,282.18Z"/><path class="cls-40" d="M271.07,183.23l-4.73,6-2.83,1.38c7.15-10.89,10-21.69,3.63-33.71C273.56,161.48,274.9,171.44,271.07,183.23Z"/><path class="cls-8" d="M273.52,260.62c-.92,10-7.94,15.48-20.46,16.28,4.13-2.31,7.87-4.15,11.34-6.4S270.52,264.7,273.52,260.62Z"/><path class="cls-41" d="M224.2,168.84c.46,8.06,3.12,14.35,8.29,19.74C223.48,187.68,220.3,180.43,224.2,168.84Z"/><path class="cls-1" d="M232.65,268c9.73-2.66,15.52-9.35,18.89-18.51a3.07,3.07,0,0,0,2.09,1.44c-4.6,9.16-10.46,16.85-21.49,18.56C231.72,268.81,232.09,268.38,232.65,268Z"/><path class="cls-42" d="M267.36,161.23c-1.2,1.63.85,3.51-.39,5.14a2.69,2.69,0,0,1-1.64-2.21c-1.23-5.78-5.44-7.23-10.61-7.72-2.39-.23-5.19,1.29-7.18-1.28l.73-.93c9.54-2.11,15.09-.4,18.81,5.81A4.07,4.07,0,0,1,267.36,161.23Z"/><path class="cls-1" d="M247,252.23c-3,4.34-5.71,6.27-11.56,8.16l9.91-8.62C245.76,252.38,246.38,252.27,247,252.23Z"/><path class="cls-43" d="M202.32,156.93c2.25-.8,4.48-1.66,7.18-.69l-10.17,4.6c.23-2.34,2.3-2.65,3.08-4Z"/><path class="cls-1" d="M258.26,282.18l9.58-2.84,1.88.47a20.71,20.71,0,0,1-9.57,3.46Z"/><path class="cls-44" d="M230,159c-.12,3.24-.24,6.48-.39,10.31C227.31,165.31,227.32,163.21,230,159Z"/><path class="cls-17" d="M221.1,156.9c.38.22,1.9.19.9.73a97.29,97.29,0,0,1-9.72,4,2.81,2.81,0,0,1,1.49-2.38C215.45,156.12,218.66,157.71,221.1,156.9Z"/><path class="cls-15" d="M202.41,156.8c-2.95.33-5,3.11-8.51,3.12a12.46,12.46,0,0,1,7.24-4.7c2.06-.52,1.41.71,1.18,1.71Z"/><path class="cls-1" d="M183,178.39c-2.12-1.19-.63-4-2.4-5.35.19-1.5.39-3,.58-4.51l2.52-2.88C182.09,169.88,181.46,174.06,183,178.39Z"/><path class="cls-45" d="M212.84,158.65c-2.31.67-4.35,2.17-7.13,2.38.92-2.13,2.8-2.65,4.37-3.54a11.54,11.54,0,0,1,5.11-1C215,158.35,213.62,158.12,212.84,158.65Z"/><path class="cls-1" d="M212.84,158.65l2-1.78c-1.91-.56-3.25.75-4.79.62,3.51-3.21,7.34-.53,11-.59a23.33,23.33,0,0,0-7.33,2.37Z"/><path class="cls-1" d="M247.27,272.62c-2.24,1.84-5,1.74-8,1.62l6-2.11Z"/><path class="cls-1" d="M226.05,198.29l4.19,1.88c-1.79.26-3.52.55-5-.64Z"/><path class="cls-7" d="M104.8,145.13c14.24,2.62,26.92,9.43,41,3.07C139,159.43,118.58,154.41,104.8,145.13Z"/><path class="cls-46" d="M319,120.17c3-.64,5.4,1,8,1.89,1.77,1,3.57,2,5.28,3.16,3,2,5.4,4.65,5.42,8.29,0,6.13.07,12.28-1,18.4-.58,3.49-4.31,5.67-2.89,10.24.81,2.6-1.46,6.34-3.39,9-3.57,5-3.61,11.52-8,16,1.4.9,2-1,2.87-.23-1.28,2.41-2.55,4.79-3.81,7.18-3.22,4.75-5.94,10-11.82,12.16-.63.23-1.28.38-2.52.75,1.87-3,5.25-3.58,6.7-6.27-1.55-1.25-3.17.75-4.87-.46,2.52-2.33,5.37-4.26,7.43-7.12-1.55-1.43-3.8-.29-5.4-1.69,4-2.39,8-4.7,11.55-8.15l-3.82-.86,6.29-6.68c-1.58-1.15-3.66-.78-4.87-2.32l10-7.38L324,164.72c2.15-2.14,4.36-3.77,5.75-6.73a15.51,15.51,0,0,1-9.69-.53c2.41-1,4.63-.58,7-2.13a27.21,27.21,0,0,1-18.62-5.88c7.84-.36,15.19,3.93,22.31-.37-5.85-1-12-.69-16.93-4.91,5,.63,10,2.39,16.15-.28-6.91-2.57-14.49-1.13-19.24-7.61,6.2,1.28,12.06,2.15,18,1.77,1.36-.09,2.93.36,3.56-1.28.74-1.93-1-2.62-2.18-3.46-2.93-2-6.33-3.05-9.71-4.33,4.2-1.08,8,.88,13,1.49-4.89-5.36-10.55-7.54-16.51-9.49Z"/><path class="cls-8" d="M309.4,121.26c-.35,3.11-3.09,3.88-3.69,6.48,1.17.34,2.67-.41,3.83,1-4,1.37-4.21,3.87-1.66,7.05-1.24.92-2.29-.48-3.35-.21.14,2.91,1.57,5.31,2.59,8-3.83-1.41-5.2-3.67-5.52-9C301.25,128.68,303.73,124.4,309.4,121.26Z"/><path class="cls-13" d="M291.81,135.32c-2.72-8.52-4-17.37-13.22-21.69,4.81-.44,8.58,1.82,12.21,7C294.06,125.29,294.45,129.76,291.81,135.32Z"/><path class="cls-11" d="M274.46,133.59c3.22,1.44,6.65.85,10.15.9-5,5.76-12.59,4.18-19.53-4.06,3.07-1,5.16,1,7.49,2.07A2,2,0,0,1,274.46,133.59Z"/><path class="cls-10" d="M272.55,144.55c6.89.31,12.34-1.49,18.15-2.75C288.34,147.38,279.74,148.9,272.55,144.55Z"/><path class="cls-47" d="M289.68,137.26c-4.3,5.19-12.11,6.58-18.54,3.76Z"/><path class="cls-48" d="M282.72,122.15c-6.61-.49-12.17.17-18,.6C270.48,118.61,276.79,118.31,282.72,122.15Z"/><path class="cls-16" d="M270.89,149.65l18.58-2.11C284,151.25,278,151.42,270.89,149.65Z"/><path class="cls-20" d="M274.46,133.59a2.11,2.11,0,0,1-1.89-1.09c.34-1.37.55-2.77,2.6-2.49,2.75.38,5.6-.84,8.58.28a8.43,8.43,0,0,1-7.25,2.54C275.78,132.77,274.56,131.83,274.46,133.59Z"/><path class="cls-17" d="M283.81,126.13a23.25,23.25,0,0,1-14.52,0C274.45,124.54,278.54,124.34,283.81,126.13Z"/><path class="cls-17" d="M277.78,190.05c2.54-1.94,4.56-4.29,7.67-5.54C283.86,189.87,282.19,191.09,277.78,190.05Z"/><path class="cls-12" d="M337.09,285.57c3.08-.43,3.6-4.12,6.66-4.24.14,0,.33-.37.37-.58.17-.95-2.57-1.54-.7-2.36,2.33-1,5.31-2.07,7.51-1.42s.56,3.71,0,5.16c-1.55,3.95-8.78,6.28-12.8,4.61C337.9,286.65,337.77,286.35,337.09,285.57Z"/><path class="cls-11" d="M323.45,274.52c3.06,2.73,5.8,5.62,9.13,7.89,1,.7,2.67,1.65,1.51,3.25-1,1.35-2.59.71-3.78.07C325.84,283.35,323.85,279.41,323.45,274.52Z"/><path class="cls-15" d="M362.85,260.61c-3.86,3.75-8.18,3.55-13.72,1.41,4.4-1.45,8.32-1.16,11.63-3.24,1.87-1.19,1.6,1,2,2Z"/><path class="cls-22" d="M365.41,244.91c.72-.24,1.71-.89,2.12-.63,1.18.76.18,1.92.11,2.93-2.85,2.63-5.86,3.13-9.68.48Z"/><path class="cls-40" d="M355.1,254.74c4.3.6,6.87-1.8,10.07-2C364.31,257.62,360.08,258.71,355.1,254.74Z"/><path class="cls-49" d="M369.48,240.86a8.07,8.07,0,0,1-5.13,2.94c-1.5-.31-3.14-.23-4.59-1.63,2.74-.91,5.22-1.78,7.72-2.56C368.52,239.29,369.35,239.58,369.48,240.86Z"/><path class="cls-25" d="M359.39,149.3c6.12,3.65,8.56,10.12,6.14,16.2C364.2,159.73,362.89,154.36,359.39,149.3Z"/><path class="cls-40" d="M358,159.57c-5.4,2.19-9.25,1-13.67-1.73C349.37,155.56,353.1,157.72,358,159.57Z"/><path class="cls-50" d="M356.25,164.15c-4.29,2.32-8.23,1.15-12.07-1Z"/><path class="cls-51" d="M369.15,161c.27.29.39.37.43.49a7.14,7.14,0,0,1-.62,6.65c-.74,1.14-1.45.16-1-1.91.26-1.21.51-2.41.78-3.61C368.86,162.1,369,161.61,369.15,161Z"/><path class="cls-44" d="M366.1,177.45l-1.26-2.53,1.44-4A7.18,7.18,0,0,1,366.1,177.45Z"/><path class="cls-9" d="M245.59,137.53c-.69,5.85-.69,5.85-7.73,7-1.43-.31-3,.06-4.75-1.07l3.69-2.55c-1.1-1.68-3.45-.11-4.73-1.89,3.83-1.55,8.38-1.32,11.15-4.92l-.09.12C247.43,132.74,244.61,136.53,245.59,137.53Z"/><path class="cls-40" d="M235,131.61c-1.49.41-2.88.16-5-.59l6.29-1.59-10.46-1.72c7.15-2.64,14.62-.53,20.28-5.33-.35,2-.28,3.92-1.51,5.44a3.37,3.37,0,0,1-3.65,3C238.87,130.85,237,131.8,235,131.61Z"/><path class="cls-52" d="M246.12,110.68c.68,2.36,2.18,4.56,1.42,7.2l-2.12,2.46c-.67-5.37-3.4-8.61-8.14-10.3C240.41,109.6,243.44,107.9,246.12,110.68Z"/><path class="cls-25" d="M235,131.61c3.25-1.1,7-.89,9.57-3.79,2.75,2.82-.64,4.3-1.39,6.35l.09-.12a39.66,39.66,0,0,1-11.35.91c3.06-2.06,6.13-2,8.94-3.33C238.7,130.92,236.79,132.46,235,131.61Z"/><path class="cls-13" d="M226.38,122.74c1-.61,2.18-1,2.17-1.44-.06-2.35-.09-2.48,2-2.16a21.09,21.09,0,0,1,6.68,1.88c.58.3,1.36.54,1.28,1.39s-.87,1-1.51,1.14A17.42,17.42,0,0,1,226.38,122.74Z"/><path class="cls-15" d="M224.21,116.62c4.23-2.33,7.94-1.09,11.39,1.72Z"/><path class="cls-1" d="M232.65,268l-.51,1.49c-1.57.61-3,0-4.53-.46Z"/><path class="cls-1" d="M247.54,155.16c2,.07,4.06.1,6.08.21,9.46.49,11.32,2,13.35,11a26.14,26.14,0,0,1-4,14.28c-.75.31-1.17.13-1.14-.74,1.13-3.9,2.3-7.79,2.13-11.92.27-1.84-1.57-3.37-.93-4.53-.1.47.46,1.8-.38,2.94-.36,6.45-2,12.39-6.67,17.19a10.51,10.51,0,0,1-6,3.22c-3,.47-5.83.47-5.83-3.73-1.51.15-.53,3.17-2.8,2-1.84-.91-1.52-2.35-1-3.86,1.08-3.23,2.54-6.37,2.34-9.9.2-2.12-1.34-3.76-1.64-5.75.35,1.43,1.39,2.79.49,4.33a20.93,20.93,0,0,1-3.11,10.16C231.1,167,234.46,158.34,247.54,155.16Z"/><path class="cls-1" d="M261.81,179.91l1.14.74c-1,2.16-2,4.22-4.93,4.73Z"/><path class="cls-1" d="M241.49,169.94l-1.15-5.65c1.88,2.46,3.22,4.41,2.3,7.07Z"/><path class="cls-1" d="M262.63,166.4c-.65-1.46-.07-2.83.38-4.25.75,1.89,1.72,3.71.93,5.84C263.47,167.48,263.55,166.53,262.63,166.4Z"/></svg>