<?xml version="1.0" standalone="no"?>
<!DOCTYPE svg PUBLIC "-//W3C//DTD SVG 20010904//EN"
 "http://www.w3.org/TR/2001/REC-SVG-20010904/DTD/svg10.dtd">
<svg version="1.0" xmlns="http://www.w3.org/2000/svg"
 width="500.000000pt" height="500.000000pt" viewBox="0 0 500.000000 500.000000"
 preserveAspectRatio="xMidYMid meet">

<g transform="translate(0.000000,500.000000) scale(0.100000,-0.100000)"
fill="#000000" stroke="none">
<path d="M520 4310 c-6 -12 -8 -29 -5 -39 4 -13 124 -74 373 -191 202 -95 371
-176 376 -181 5 -5 7 -11 4 -14 -3 -3 -183 53 -399 126 l-393 131 -18 -22
c-16 -19 -17 -26 -6 -42 8 -12 163 -88 370 -182 197 -88 363 -167 370 -175 11
-12 10 -13 -2 -9 -198 69 -757 248 -773 248 -58 0 -64 -59 -9 -95 20 -13 188
-90 372 -170 298 -130 408 -183 330 -160 -284 87 -494 152 -613 191 -165 53
-182 53 -182 -7 l0 -34 455 -227 c250 -125 486 -237 523 -248 94 -31 184 -25
258 15 138 74 150 78 207 78 55 0 123 -14 150 -31 10 -7 6 -20 -18 -59 -43
-70 -48 -116 -19 -194 21 -58 23 -82 23 -259 1 -267 0 -263 174 -444 74 -78
176 -181 228 -231 76 -74 94 -97 101 -130 11 -57 8 -331 -5 -450 -7 -55 -23
-197 -37 -315 -47 -410 -58 -591 -38 -611 6 -6 19 -9 29 -7 17 3 19 14 21 93
3 127 19 308 53 615 35 313 50 484 50 563 0 31 5 57 10 57 25 0 1 -456 -35
-690 -30 -186 -33 -217 -41 -430 -9 -218 -10 -211 20 -236 27 -24 131 -52 143
-40 5 4 -8 21 -27 38 -19 16 -27 27 -17 24 35 -11 37 5 4 35 l-32 29 28 -6
c33 -7 34 2 5 33 -23 25 -13 30 27 11 40 -18 43 1 5 34 -23 19 -28 27 -15 23
11 -3 34 -9 50 -12 32 -6 30 -2 -20 36 l-30 23 44 -7 c53 -9 49 1 -17 47 -35
24 -42 34 -30 36 24 5 23 16 -4 36 -22 16 -22 16 17 10 l40 -5 -23 19 c-12 11
-20 26 -17 34 3 8 -6 25 -20 38 -30 28 -33 45 -5 30 28 -15 27 10 -1 36 l-20
18 22 8 c21 8 21 9 4 28 -20 22 -10 25 29 10 33 -12 33 -3 -1 32 -30 31 -13
39 25 12 27 -19 45 -9 19 10 -27 21 -20 27 21 20 l37 -6 -45 41 -45 41 40 -6
40 -6 -30 26 -30 26 45 -6 c44 -5 45 -5 24 13 -12 10 -30 24 -40 31 -17 11
-13 12 24 8 53 -5 53 6 1 36 l-42 23 29 5 c28 5 28 5 -24 39 -29 18 -52 34
-52 36 0 2 19 1 43 -2 l42 -5 -44 33 c-37 28 -41 34 -26 39 13 5 15 9 7 14
-22 13 -13 28 13 22 14 -4 25 -2 25 4 0 5 -11 17 -25 26 -28 18 -33 34 -10 34
21 0 19 13 -5 35 -24 21 -26 37 -5 29 20 -8 19 6 -2 36 -12 17 -14 25 -4 28 9
3 8 10 -5 29 -12 19 -13 27 -4 33 9 6 9 13 1 29 -12 21 -12 21 24 4 27 -13 35
-23 35 -43 0 -14 7 -36 16 -49 14 -19 14 -25 3 -31 -11 -7 -10 -12 4 -28 13
-14 14 -21 4 -31 -9 -10 -7 -16 12 -32 18 -15 21 -22 12 -33 -9 -11 -8 -17 4
-29 8 -9 15 -24 15 -35 0 -29 23 -43 84 -49 64 -7 74 7 26 32 -40 21 -38 29 5
22 46 -7 45 7 -2 33 l-38 21 43 -6 c23 -3 42 -3 42 0 0 3 -21 19 -47 35 l-48
30 43 -6 c23 -4 42 -4 42 0 0 3 -18 15 -40 26 -51 26 -51 34 0 26 25 -4 40 -2
40 4 0 5 -6 10 -12 11 -7 0 -4 4 7 8 18 7 15 10 -20 26 -22 10 -65 29 -95 42
-30 13 -41 21 -25 16 49 -13 164 -8 264 11 119 24 103 35 -61 41 -68 3 -143 8
-168 11 -59 7 -152 34 -165 46 -7 7 -2 8 15 3 30 -9 46 -11 220 -30 74 -8 187
-15 250 -15 107 0 169 -11 130 -24 -53 -16 -55 -17 -41 -26 13 -8 -17 -16
-132 -36 -55 -9 -56 -24 -1 -24 46 0 205 16 252 26 12 2 39 19 60 38 57 50 84
52 29 2 -66 -62 -126 -81 -251 -78 -78 1 -108 -2 -141 -17 -44 -20 -74 -48
-39 -38 45 14 158 26 269 30 l120 3 -70 -17 c-45 -11 -90 -15 -126 -12 -58 6
-154 -11 -165 -29 -4 -6 2 -8 15 -3 31 9 252 -6 226 -16 -11 -4 -54 -5 -96 -2
-63 5 -83 2 -122 -15 -26 -12 -47 -24 -47 -28 0 -3 30 -3 66 1 71 7 84 -7 17
-20 -41 -7 -73 -22 -73 -33 0 -12 288 2 301 15 10 10 3 14 -32 20 -43 7 -43 7
-14 14 56 13 75 10 75 -9 0 -11 -9 -27 -20 -37 -12 -10 -18 -25 -15 -33 3 -8
0 -21 -6 -28 -9 -11 -8 -15 4 -20 9 -3 13 -12 10 -20 -3 -8 1 -14 11 -14 13 0
14 -5 5 -27 -7 -18 -6 -28 1 -33 6 -4 8 -14 5 -22 -5 -11 -31 -19 -88 -27
-106 -15 -190 -32 -200 -41 -5 -4 7 -11 25 -15 l33 -7 -42 -9 c-24 -4 -51 -13
-60 -18 -15 -9 -12 -11 17 -11 19 -1 43 -3 52 -5 26 -5 156 13 195 27 19 7 33
19 33 29 0 9 11 24 25 33 25 17 26 17 19 -9 -4 -15 -2 -25 5 -25 6 0 11 -6 11
-14 0 -8 4 -16 10 -18 5 -1 11 -36 12 -75 2 -45 7 -73 14 -73 7 0 9 -10 6 -25
-2 -15 0 -25 7 -25 8 0 9 -5 1 -19 -15 -29 -13 -51 5 -45 13 5 14 2 6 -19 -7
-18 -7 -27 1 -29 7 -3 1 -20 -15 -44 -15 -21 -23 -40 -17 -42 6 -2 6 -10 0
-23 -8 -15 -7 -19 4 -19 12 0 14 -5 6 -25 -8 -20 -6 -25 5 -25 11 0 14 -7 9
-25 -4 -16 -2 -25 5 -25 8 0 6 -11 -5 -31 -16 -31 -15 -32 5 -26 18 4 19 2 10
-14 -8 -15 -6 -19 7 -19 16 0 16 -1 0 -19 -13 -15 -14 -20 -4 -24 9 -3 5 -12
-14 -30 -59 -56 -15 -57 50 -1 58 49 68 82 54 166 -7 37 -12 96 -12 131 -1 34
-7 94 -15 132 -22 101 -45 237 -45 259 0 50 17 -10 52 -182 29 -140 40 -224
46 -337 6 -133 9 -150 25 -153 34 -7 48 17 42 67 -13 102 -29 197 -70 431 -61
340 -70 434 -56 555 18 149 68 276 211 535 70 126 110 242 110 317 0 18 4 33
8 33 4 0 35 -9 67 -21 137 -48 236 14 294 184 46 134 37 205 -38 278 -42 40
-59 49 -162 78 -62 19 -120 38 -126 44 -8 5 -13 32 -13 61 0 103 -50 212 -117
258 -44 30 -74 40 -138 47 l-60 6 -12 48 c-34 137 -165 212 -303 172 -30 -9
-64 -18 -75 -21 -13 -4 -43 10 -85 38 -119 80 -235 99 -324 54 l-47 -24 -86
45 c-74 40 -93 46 -147 46 -73 0 -144 -28 -194 -76 -33 -32 -62 -106 -62 -160
0 -23 -3 -28 -17 -23 -9 4 -40 14 -67 22 -122 36 -188 91 -233 193 -43 100
-64 135 -101 174 -50 52 -105 79 -242 116 -63 18 -287 84 -497 147 -210 63
-390 114 -402 114 -11 0 -25 -9 -31 -20z m305 -84 c132 -41 350 -107 484 -146
349 -102 352 -104 440 -284 78 -159 112 -192 249 -237 97 -31 121 -43 110 -55
-7 -6 -194 48 -228 66 -39 21 -101 83 -119 119 -10 20 -29 68 -41 106 -42 130
-50 135 -308 219 -180 58 -249 73 -150 32 107 -45 173 -86 198 -123 22 -32 25
-47 25 -129 0 -51 2 -90 5 -88 2 3 14 31 26 62 24 64 47 75 52 25 4 -38 16
-43 28 -10 15 43 16 -66 1 -152 -8 -44 -11 -81 -7 -81 13 0 51 100 63 161 12
66 21 74 31 28 16 -80 -2 -166 -56 -273 -16 -32 -27 -60 -24 -63 9 -10 54 25
72 57 20 34 41 38 59 13 11 -15 14 -14 29 15 21 40 41 41 61 2 17 -34 27 -37
45 -15 18 21 30 18 69 -15 26 -22 38 -27 52 -20 25 14 86 12 96 -2 19 -32 -15
-118 -47 -118 -11 0 -64 14 -117 32 -150 49 -185 46 -330 -27 -111 -56 -122
-60 -188 -60 -68 0 -76 3 -279 99 -115 55 -338 156 -495 225 -253 112 -325
151 -279 151 8 0 185 -54 393 -120 208 -66 388 -120 401 -120 26 0 44 26 44
65 0 32 20 23 -432 202 -196 78 -348 143 -348 151 0 6 6 12 13 12 6 0 183 -56
391 -125 209 -69 387 -125 397 -125 37 0 65 75 37 98 -7 5 -114 51 -238 101
-124 51 -263 108 -310 128 -47 19 -115 47 -152 60 -42 16 -68 31 -68 40 0 11
5 13 18 8 79 -33 763 -255 784 -255 45 0 66 71 31 102 -37 33 -550 245 -718
298 -22 7 -44 16 -49 20 -13 12 4 31 22 26 10 -3 125 -39 257 -80z m199 -157
c220 -94 296 -131 280 -136 -6 -2 -101 37 -210 87 -249 113 -281 129 -270 129
5 1 95 -36 200 -80z m-234 -120 c52 -27 23 -22 -35 7 -27 13 -39 21 -25 18 14
-4 41 -15 60 -25z m157 -65 c32 -14 103 -44 158 -66 92 -36 141 -65 131 -75
-2 -2 -30 9 -62 25 -33 16 -108 51 -169 77 -99 43 -141 65 -122 65 3 0 32 -12
64 -26z m1498 -103 c38 -17 115 -91 115 -110 0 -6 -5 -13 -10 -16 -6 -3 -7
-17 -4 -31 4 -16 2 -24 -6 -24 -9 0 -11 -11 -6 -37 5 -35 -5 -109 -25 -188
l-7 -30 -1 28 c-1 26 -14 36 -25 18 -15 -24 -103 -52 -179 -58 -76 -6 -81 -5
-68 10 12 15 11 17 -12 17 -38 0 -41 16 -7 30 41 17 46 28 18 39 l-23 9 28 7
c33 9 35 22 5 28 l-23 4 22 8 c26 8 21 25 -7 25 -33 0 -32 20 2 34 33 14 29
21 -16 28 -17 3 -17 6 8 34 31 38 32 44 6 44 -11 0 -20 4 -20 8 0 14 41 30 89
35 80 10 72 27 -11 27 l-76 0 -16 -47 c-31 -96 -47 -177 -53 -259 -3 -46 -10
-84 -15 -84 -19 0 6 205 39 315 5 17 4 18 -11 6 -14 -12 -16 -11 -16 3 0 37
32 77 83 102 95 49 156 56 222 25z m428 -57 c54 -28 127 -87 127 -104 -1 -12
-3 -12 -14 3 -7 9 -15 17 -17 17 -2 0 -3 -47 -1 -105 3 -100 -5 -177 -54 -525
l-16 -115 -54 -34 c-30 -18 -54 -36 -54 -38 0 -7 49 2 73 12 27 12 21 -20 -9
-44 -28 -22 -97 -28 -164 -15 -36 8 -23 24 19 24 35 0 15 15 -42 30 -26 7 -44
16 -40 20 4 4 35 16 68 25 55 16 58 18 35 27 l-25 9 27 20 c15 11 35 35 44 54
11 25 24 35 49 39 18 4 39 14 46 23 12 15 12 16 -6 9 -40 -16 -55 -18 -55 -7
0 6 16 17 35 25 43 18 46 30 5 21 -41 -9 -38 -1 15 35 67 46 59 58 -24 38 -8
-2 -15 2 -18 8 -2 6 11 14 28 18 33 6 59 22 59 37 0 4 -20 0 -45 -9 -40 -15
-47 -15 -55 -2 -18 28 -11 40 24 40 33 0 99 41 86 53 -3 3 -32 -2 -65 -11
l-60 -15 -47 35 c-25 19 -58 38 -73 42 -25 6 -26 8 -10 19 15 12 14 14 -9 27
-33 17 -33 26 2 38 l27 10 -28 7 c-24 6 -28 11 -23 31 5 17 2 24 -9 24 -21 0
-19 27 6 62 25 35 17 50 -12 21 -28 -28 -36 -75 -25 -149 10 -69 5 -94 -20
-94 -27 0 -11 182 21 251 28 60 86 126 118 133 37 8 127 -3 160 -20z m-1838
-94 c89 -36 133 -60 111 -60 -4 0 -58 22 -120 49 -61 27 -128 56 -148 65 -21
8 -38 17 -38 20 0 3 21 -3 48 -14 26 -10 92 -37 147 -60z m2238 16 c35 -1 93
-55 114 -104 20 -48 18 -117 -7 -245 -28 -144 -60 -230 -133 -360 -61 -109
-90 -137 -137 -137 -11 0 -20 -7 -20 -15 0 -18 -61 -21 -109 -4 -54 19 -38 36
32 32 57 -2 59 -2 27 8 -19 6 -44 15 -55 19 -18 8 -17 9 8 9 33 1 33 3 2 37
-31 34 -31 40 1 48 l25 7 -32 37 -33 37 47 9 c26 4 47 11 47 15 0 4 -13 20
-30 36 -38 36 -38 45 2 45 29 0 30 1 16 18 -9 9 -23 32 -32 50 l-17 32 26 0
26 0 -26 43 c-32 55 -31 58 6 52 47 -8 52 3 19 43 -16 20 -25 39 -20 42 5 3 8
44 7 92 -2 83 -1 88 28 118 37 39 76 51 140 43 28 -3 63 -6 78 -7z m-2300
-236 c173 -82 336 -155 361 -161 25 -6 73 -9 106 -7 68 5 60 -7 -11 -17 -82
-11 -79 -12 -744 310 -27 13 -45 24 -39 24 6 1 153 -66 327 -149z m2622 0 c44
-21 101 -90 115 -139 10 -36 2 -71 -45 -185 -37 -90 -93 -187 -116 -201 -7 -5
-10 -4 -7 1 3 5 23 38 45 74 48 79 73 141 73 178 -1 24 -2 25 -11 9 -8 -14
-14 -15 -24 -7 -11 9 -15 3 -22 -32 -5 -24 -13 -43 -18 -43 -5 0 -18 -22 -28
-50 -10 -27 -27 -75 -38 -105 -11 -30 -20 -65 -20 -77 1 -17 -5 -23 -22 -24
-12 0 -38 -6 -57 -14 -28 -10 -32 -14 -17 -20 9 -4 17 -13 17 -21 0 -18 -96
-19 -137 -2 -27 12 -26 12 27 18 l55 5 -50 25 -50 25 60 3 60 4 -45 23 -45 24
40 1 40 1 -35 30 -35 31 45 -7 45 -7 -29 31 -30 31 44 0 44 0 -34 29 -35 29
48 7 c26 4 47 11 47 15 0 5 -16 18 -35 30 -44 27 -45 41 -2 33 l32 -6 -32 27
c-40 33 -43 49 -7 36 49 -19 57 -11 23 22 l-34 33 28 3 c27 3 28 5 13 21 -18
19 -15 21 59 46 16 5 17 8 5 15 -8 6 -26 10 -39 10 -20 0 -21 2 -11 15 10 12
10 15 -1 15 -10 1 -9 4 4 14 9 7 17 16 17 20 0 3 -8 6 -17 7 -29 2 28 17 66
18 19 1 53 -8 76 -19z m-1670 -83 c33 -12 52 -23 43 -25 -9 -2 -37 6 -62 17
-25 12 -51 21 -58 21 -7 0 -20 5 -28 10 -21 15 30 3 105 -23z m786 -13 c75
-44 103 -130 74 -231 -32 -110 -182 -225 -329 -252 -113 -21 -224 -5 -288 40
-29 21 -43 24 -32 8 4 -8 0 -8 -15 0 -33 18 -25 -5 12 -33 17 -13 55 -35 82
-48 l50 -23 -46 -3 c-25 -2 -66 4 -90 12 -24 8 -45 13 -47 11 -2 -2 15 -16 37
-31 26 -17 62 -29 98 -34 l58 -7 -35 -16 c-34 -15 -34 -17 10 -30 10 -3 3 -12
-23 -27 -21 -12 -36 -25 -33 -27 12 -13 61 11 102 49 24 22 44 35 44 29 0 -23
-30 -69 -61 -95 -17 -15 -29 -29 -26 -32 7 -7 60 21 76 40 21 25 34 19 27 -11
-4 -16 -25 -45 -48 -65 -34 -32 -37 -38 -20 -38 30 0 78 44 96 90 18 44 32 54
22 15 -10 -40 11 -29 36 18 l23 42 3 -38 c2 -21 -1 -58 -6 -83 -5 -24 -8 -44
-5 -44 2 0 16 25 30 56 20 44 24 66 20 107 -2 29 -8 61 -12 72 -7 18 -5 17 18
-4 23 -21 27 -22 27 -7 0 24 17 11 40 -32 16 -31 26 -31 21 1 -3 21 18 2 34
-30 l19 -38 4 30 4 30 24 -45 23 -45 1 44 0 44 21 -19 c34 -31 68 -96 83 -159
12 -54 14 -57 21 -32 10 36 -2 111 -26 167 -19 45 -19 45 1 22 19 -23 50 -110
50 -139 0 -8 5 -11 11 -7 7 4 10 29 7 67 l-5 61 18 -40 c9 -22 20 -56 24 -75
14 -67 26 -66 20 1 l-5 65 25 -40 c47 -75 69 -204 45 -260 -5 -11 -9 -14 -9
-7 -2 28 -18 8 -34 -41 -22 -71 -72 -126 -143 -161 -48 -24 -55 -30 -39 -36
16 -5 10 -10 -30 -26 -37 -14 -75 -19 -145 -19 -139 0 -178 22 -347 195 l-133
135 73 11 c74 10 123 30 147 59 20 24 3 31 -23 8 -46 -42 -117 -60 -117 -29 0
11 -8 12 -41 5 -55 -13 -107 3 -146 43 -61 65 -81 133 -88 313 -3 72 -8 147
-10 168 -3 20 -3 37 0 37 15 0 25 -63 30 -202 4 -84 11 -169 16 -189 11 -44
45 -96 80 -122 31 -22 119 -36 119 -18 0 6 -10 11 -23 11 -26 0 -89 32 -94 47
-2 6 23 13 59 17 82 9 111 25 48 27 -25 1 -58 5 -75 8 l-30 7 40 12 c22 7 46
12 53 12 6 0 12 5 12 10 0 6 -15 10 -32 10 -36 0 -131 40 -143 61 -6 9 -2 10
16 5 61 -18 86 -22 102 -17 15 6 11 10 -19 24 -42 21 -38 33 11 29 51 -5 50
13 -3 41 -44 23 -112 95 -112 120 0 6 15 -3 33 -21 18 -18 36 -32 39 -32 13 0
-74 163 -106 198 -43 48 -56 74 -56 112 0 49 57 148 104 179 37 24 48 26 220
33 100 4 210 12 246 17 103 15 221 8 261 -15z m1006 -166 c-3 -8 -6 -5 -6 6
-1 11 2 17 5 13 3 -3 4 -12 1 -19z m106 -127 c73 -22 143 -44 157 -49 56 -22
100 -89 100 -151 0 -97 -95 -221 -170 -221 -24 0 -389 138 -407 154 -8 7 -9
16 -4 25 8 12 16 12 56 1 51 -14 64 -7 65 35 0 30 33 78 67 97 30 17 32 17 86
-12 58 -31 67 -30 67 7 0 30 14 29 39 -3 23 -29 28 -86 12 -142 -5 -17 -8 -32
-6 -32 2 0 20 10 41 22 36 21 37 21 51 3 7 -11 11 -25 9 -32 -10 -25 4 -12 20
19 11 22 15 48 12 86 -7 84 -42 110 -212 164 -83 26 -136 47 -136 55 0 19 7
17 153 -26z m-359 -256 c-4 -8 -13 -15 -22 -15 -13 0 -12 3 4 15 24 18 25 18
18 0z m209 -115 c149 -60 209 -80 245 -80 43 -1 46 -2 28 -15 -38 -29 -92 -18
-280 59 -99 41 -194 80 -209 85 -30 11 -28 31 2 31 9 0 106 -36 214 -80z
m-303 -60 c47 -12 177 -25 169 -16 -4 4 -35 14 -69 22 -34 8 -70 19 -79 25
-16 11 -12 10 77 -11 39 -10 42 2 5 17 l-28 11 29 1 c16 1 55 -11 87 -25 56
-25 72 -45 49 -59 -6 -4 -8 -11 -5 -16 9 -14 48 -11 72 6 31 22 34 2 13 -81
-26 -100 -47 -147 -64 -141 -8 3 -40 -2 -72 -12 l-59 -18 38 -8 c24 -5 48 -3
63 4 33 15 36 14 23 -6 -8 -13 -26 -19 -62 -21 -28 -1 -53 -5 -56 -8 -12 -11
26 -24 57 -20 22 3 32 1 30 -6 -2 -6 -26 -13 -54 -16 -27 -2 -51 -6 -54 -8 -8
-9 25 -24 53 -24 15 0 27 -3 27 -6 0 -15 -72 -158 -95 -188 -35 -45 -102 -78
-152 -74 -37 3 -37 4 20 17 42 9 71 23 98 48 51 46 50 60 -1 55 -65 -6 -108 7
-151 45 -22 20 -42 34 -44 31 -3 -2 4 -21 14 -41 l19 -37 -24 0 c-13 0 -24 -4
-24 -9 0 -14 77 -41 116 -41 23 0 33 -4 28 -11 -7 -12 -178 -7 -223 7 -20 6
-23 4 -18 -8 4 -12 -4 -17 -36 -22 -23 -4 -58 -9 -77 -13 -33 -6 -34 -5 -20
11 13 17 10 18 -48 14 -34 -1 -62 0 -62 4 0 11 252 78 295 78 3 0 3 5 0 10 -4
6 5 24 18 40 33 38 40 76 27 131 -24 92 -22 95 18 33 37 -57 74 -94 95 -94 5
0 -7 18 -26 39 -34 38 -63 81 -53 81 2 0 38 -16 80 -36 87 -41 116 -40 35 2
-55 28 -119 74 -119 86 0 4 15 -1 33 -12 44 -26 137 -61 137 -52 0 4 -17 15
-38 24 -39 18 -154 99 -148 105 1 2 33 -13 70 -32 95 -49 130 -46 44 4 -64 38
-190 132 -184 138 2 2 41 -17 87 -41 83 -44 195 -83 206 -72 3 3 -21 17 -53
31 -118 52 -146 66 -141 71 3 3 40 -6 84 -19 95 -30 151 -39 158 -26 4 5 -2 9
-13 9 -46 0 -233 82 -219 97 3 2 14 0 24 -5 28 -15 178 -44 205 -40 17 3 10 8
-32 22 -76 26 -216 95 -237 118 -9 11 9 3 42 -17 33 -19 75 -40 95 -45z m-316
-186 l15 -39 1 35 2 35 15 -35 c13 -29 17 -32 22 -17 6 16 9 16 18 5 68 -86
58 -308 -15 -308 -10 0 -12 6 -7 18 15 36 25 108 19 132 -6 22 -8 20 -15 -19
-10 -54 -46 -110 -93 -146 -48 -36 -196 -85 -276 -91 -74 -5 -58 4 55 30 169
40 287 148 283 261 -1 33 -2 35 -5 11 -5 -32 -45 -91 -69 -100 -12 -5 -12 -2
0 22 23 46 39 142 32 201 -7 62 -3 63 18 5z m296 -674 c0 -5 -5 -10 -11 -10
-5 0 -7 5 -4 10 3 6 8 10 11 10 2 0 4 -4 4 -10z m-250 -430 c-36 -11 -50 -11
-50 0 0 6 17 10 38 9 33 -1 34 -2 12 -9z"/>
<path d="M1215 3360 c86 -57 245 -80 307 -43 41 24 51 47 13 33 -42 -16 -153
-11 -243 10 -104 25 -115 25 -77 0z"/>
<path d="M2452 3731 c-10 -6 -7 -12 12 -25 14 -9 29 -28 32 -42 9 -35 29 -23
27 17 -2 46 -38 71 -71 50z"/>
<path d="M2322 3671 c-9 -5 -1 -10 25 -14 59 -10 71 -8 43 8 -29 16 -49 18
-68 6z"/>
<path d="M2343 3633 c4 -3 2 -12 -4 -19 -8 -10 -2 -14 24 -19 64 -12 104 15
51 35 -28 11 -81 14 -71 3z"/>
<path d="M2481 3595 c-13 -7 -52 -16 -87 -20 -65 -7 -89 -25 -33 -25 27 0 30
-2 19 -15 -11 -13 -7 -15 26 -16 22 -1 30 -3 19 -6 -42 -10 -40 -25 3 -21 53
5 55 -8 2 -22 -40 -11 -55 -30 -23 -30 13 0 14 -3 5 -12 -20 -20 -14 -28 21
-28 48 0 77 24 77 66 0 19 -5 34 -11 34 -5 0 -7 5 -3 11 7 11 17 100 12 98 -2
-1 -14 -7 -27 -14z"/>
<path d="M2859 3664 c29 -26 46 -53 61 -100 24 -71 40 -75 40 -11 0 50 -36
109 -80 132 -52 27 -62 17 -21 -21z"/>
<path d="M2720 3628 l-25 -11 24 -5 c14 -2 50 -1 80 3 43 6 51 9 36 16 -29 11
-86 10 -115 -3z"/>
<path d="M2750 3580 c-11 -7 3 -10 48 -10 35 0 62 4 62 10 0 13 -90 13 -110 0z"/>
<path d="M2700 3531 c0 -14 60 -57 89 -64 13 -3 40 1 60 10 l36 17 -50 6 c-27
4 -41 8 -30 9 11 1 31 8 45 16 24 14 23 14 -27 15 -28 0 -55 -5 -58 -10 -4 -7
-12 -7 -25 0 -24 13 -40 13 -40 1z"/>
<path d="M2820 3453 c-61 -15 -63 -16 -37 -25 36 -13 89 -3 119 22 22 18 22
19 3 19 -11 -1 -49 -8 -85 -16z"/>
<path d="M2885 3420 c-11 -5 -36 -9 -55 -9 -47 -2 -70 -16 -38 -24 41 -12 93
-7 116 9 39 27 23 44 -23 24z"/>
<path d="M2830 3367 c-64 -8 -71 -11 -50 -19 31 -12 101 -2 126 17 11 8 15 14
9 13 -5 0 -44 -5 -85 -11z"/>
<path d="M2843 2995 c-28 -26 -28 -26 -4 -23 13 2 30 13 39 26 20 30 0 28 -35
-3z"/>
<path d="M3190 3632 c0 -5 18 -15 40 -22 21 -7 54 -26 72 -41 l33 -28 -35 9
c-19 6 -46 10 -60 10 -20 -1 -13 -7 33 -31 83 -42 71 -54 -49 -52 -98 2 -99 1
-76 -17 13 -11 50 -24 82 -31 78 -15 68 -34 -14 -26 -55 6 -59 5 -42 -8 11 -8
41 -18 68 -21 26 -4 48 -11 48 -17 0 -6 -31 -8 -90 -3 -49 4 -90 4 -90 2 0
-10 79 -46 99 -46 11 0 23 -4 26 -10 3 -5 0 -10 -7 -10 -9 0 -9 -3 2 -10 8 -5
28 -10 44 -10 l29 0 -21 -23 c-27 -29 -27 -33 0 -41 21 -5 20 -8 -20 -37 -48
-35 -51 -44 -20 -52 22 -6 22 -7 -7 -37 -24 -25 -27 -33 -16 -40 11 -6 3 -16
-32 -41 -52 -36 -58 -49 -25 -49 21 0 20 -2 -10 -33 -34 -35 -41 -53 -17 -43
25 9 17 -11 -12 -33 -25 -18 -26 -20 -8 -21 11 0 34 13 51 28 38 34 110 155
95 160 -6 2 -7 9 -1 20 41 77 89 194 88 218 -1 16 6 44 16 61 12 23 16 59 16
131 0 116 -11 137 -91 177 -48 25 -99 33 -99 17z"/>
<path d="M3066 3589 c-33 -39 -36 -114 -7 -150 22 -28 38 -20 22 9 -15 27 -14
43 2 40 7 -2 11 6 9 20 -2 13 1 29 8 36 8 10 6 15 -6 20 -15 6 -16 8 0 24 9
10 16 22 16 25 0 16 -20 5 -44 -24z"/>
<path d="M3616 3303 c13 -32 24 -65 24 -73 1 -10 5 -7 12 7 8 18 6 32 -13 70
-35 68 -52 66 -23 -4z"/>
<path d="M3450 3282 c0 -15 69 -31 98 -22 l27 7 -28 12 c-33 13 -97 15 -97 3z"/>
<path d="M3677 3237 c-4 -10 -7 -28 -7 -40 1 -20 2 -20 11 -4 6 10 9 28 7 40
-3 20 -4 20 -11 4z"/>
<path d="M3470 3220 c20 -13 70 -13 70 0 0 6 -19 10 -42 10 -32 0 -39 -3 -28
-10z"/>
<path d="M2515 3309 c-27 -5 -58 -7 -67 -5 -11 2 -28 -8 -43 -26 -31 -37 -33
-90 -5 -168 26 -74 24 -85 -5 -30 -21 40 -24 42 -25 19 0 -44 21 -89 49 -103
41 -22 150 -38 198 -31 36 5 48 13 67 43 37 57 49 108 43 180 -4 55 -9 69 -35
95 -34 34 -91 42 -177 26z m167 -37 c20 -19 23 -33 23 -96 0 -63 -4 -78 -28
-115 -16 -24 -31 -41 -34 -38 -2 3 2 16 11 29 21 32 38 120 25 133 -6 5 -9 2
-9 -10 0 -80 -71 -175 -129 -175 -18 0 -34 6 -37 14 -3 8 -13 12 -26 8 -19 -5
-20 -2 -14 24 3 16 9 47 12 69 l5 40 -15 -38 c-20 -54 -24 -55 -41 -14 -50
120 18 201 162 195 60 -3 77 -7 95 -26z"/>
<path d="M2050 3278 c-35 -21 -28 -38 9 -19 14 8 20 8 23 0 3 -8 17 -4 43 9
37 20 38 21 13 22 -14 0 -32 2 -40 5 -7 3 -29 -5 -48 -17z"/>
<path d="M2154 3266 c-29 -21 -10 -30 25 -11 17 8 31 18 31 20 0 11 -37 4 -56
-9z"/>
<path d="M2228 3268 c-16 -5 -28 -14 -28 -20 0 -11 32 -3 70 18 22 11 22 13 5
13 -11 0 -32 -5 -47 -11z"/>
<path d="M2723 3265 c34 -86 29 -162 -14 -246 -11 -23 -18 -43 -16 -46 8 -8
49 40 64 76 20 48 20 148 0 188 -19 36 -45 58 -34 28z"/>
<path d="M2347 3228 c-3 -12 -2 -29 3 -37 7 -12 9 -6 10 22 0 42 -5 48 -13 15z"/>
<path d="M2296 3129 c-12 -68 14 -124 67 -142 22 -8 22 -2 -5 41 -12 20 -30
59 -39 86 l-16 51 -7 -36z"/>
<path d="M1890 3110 c0 -18 38 -86 67 -120 28 -34 100 -90 114 -90 4 0 -1 20
-12 44 -11 25 -20 63 -22 85 -1 23 -5 41 -9 41 -5 0 -8 -6 -8 -12 0 -8 -7 -5
-15 6 -15 19 -15 19 -15 -2 0 -12 -4 -22 -8 -22 -10 0 -32 45 -32 65 0 27 -19
16 -22 -12 l-4 -28 -12 28 c-12 27 -22 35 -22 17z"/>
<path d="M2350 2955 c0 -4 5 -16 11 -27 10 -19 9 -20 -12 -14 -86 22 -86 23
-25 -18 21 -14 34 -26 27 -26 -16 0 -112 49 -133 68 -28 24 -21 1 10 -31 l27
-29 -25 7 c-14 4 -40 16 -57 27 -18 11 -33 15 -33 9 0 -17 62 -58 113 -75 67
-22 139 -20 229 8 78 24 168 70 168 86 0 4 -17 4 -37 -2 -36 -10 -100 -6 -153
8 -22 7 -24 6 -11 -9 12 -15 11 -17 -3 -17 -9 0 -35 9 -56 20 -22 11 -40 18
-40 15z"/>
<path d="M2626 2503 c-15 -104 -92 -225 -165 -262 -46 -23 -91 -34 -91 -22 0
4 13 11 30 14 43 9 105 53 132 95 33 51 51 97 45 119 -3 14 -7 10 -20 -17 -21
-49 -54 -88 -87 -105 -44 -23 -43 -18 6 27 62 57 89 112 74 153 -6 17 -11 12
-33 -31 -27 -53 -92 -119 -133 -134 -36 -14 -36 -14 -9 26 38 55 32 71 -12 36
-49 -38 -93 -60 -139 -70 l-37 -7 47 -30 c30 -19 42 -31 34 -36 -13 -8 -5 -20
65 -92 20 -21 35 -42 32 -46 -2 -4 18 -18 46 -31 32 -16 45 -26 37 -31 -17
-10 47 -37 106 -45 53 -8 107 3 86 16 -8 5 -18 6 -24 3 -5 -3 -6 -2 -3 4 4 6
26 13 50 16 74 10 157 47 197 87 44 44 83 137 78 189 l-4 36 -13 -30 c-48
-115 -107 -182 -196 -225 -60 -29 -155 -38 -177 -17 -8 8 -28 17 -44 19 -25 3
-17 9 61 46 112 54 150 82 175 133 25 48 37 124 21 133 -7 5 -11 -1 -11 -15 0
-38 -52 -119 -99 -153 -58 -42 -150 -88 -165 -83 -6 3 -2 8 9 12 126 44 205
128 205 218 0 50 -15 54 -29 8 -6 -22 -20 -50 -31 -63 l-20 -23 15 44 c16 45
18 118 6 161 -7 21 -9 17 -15 -27z"/>
<path d="M2836 2305 c-31 -59 -97 -125 -157 -155 -42 -22 -69 -50 -48 -50 32
0 114 32 145 55 44 34 82 101 90 158 4 26 5 47 3 47 -2 0 -17 -25 -33 -55z"/>
<path d="M2736 2254 c-21 -24 -61 -57 -90 -74 -42 -25 -47 -30 -26 -30 34 0
100 32 127 62 19 20 44 90 32 87 -2 0 -21 -21 -43 -45z"/>
<path d="M3625 2496 c-27 -12 -28 -14 -11 -21 22 -9 68 5 74 23 5 16 -25 15
-63 -2z"/>
<path d="M3628 2453 c-47 -19 -49 -33 -5 -33 34 0 57 15 57 37 0 16 -5 15 -52
-4z"/>
<path d="M3600 2375 l-45 -12 26 -13 c30 -14 69 0 69 25 0 8 -1 14 -2 14 -2
-1 -23 -7 -48 -14z"/>
<path d="M3260 2150 c0 -23 59 -90 79 -90 27 0 21 31 -10 57 -63 54 -69 57
-69 33z"/>
<path d="M3462 2150 c-13 -6 -21 -14 -18 -19 4 -5 -7 -21 -24 -34 -16 -14 -30
-28 -30 -31 0 -3 18 -6 41 -6 32 0 47 6 71 30 47 48 22 85 -40 60z"/>
<path d="M2973 1551 c-48 -22 -56 -41 -17 -41 l25 0 -28 -25 -28 -25 65 5 c36
3 58 2 50 -1 -8 -4 -35 -16 -60 -27 l-45 -21 40 -6 40 -6 -40 -24 -40 -25 45
-3 c60 -4 213 21 217 35 2 6 -11 14 -29 19 -32 7 -32 7 -10 17 29 13 28 25 -5
33 -26 7 -26 7 -5 15 28 11 28 26 0 35 -21 6 -21 7 -3 20 52 39 -97 60 -172
25z"/>
<path d="M2676 1502 c-3 -6 1 -17 10 -26 8 -9 12 -21 9 -26 -18 -30 64 -66
123 -55 l37 7 -28 14 c-36 19 -35 35 3 28 42 -9 38 1 -13 31 -48 28 -130 44
-141 27z"/>
<path d="M2746 1326 c8 -21 32 -28 56 -15 24 13 23 15 -24 23 -31 6 -37 4 -32
-8z"/>
<path d="M3165 1264 c-22 -8 -80 -19 -128 -23 -48 -5 -91 -11 -94 -15 -15 -15
15 -21 100 -20 54 1 84 -2 72 -7 -11 -4 -57 -8 -102 -8 -46 -1 -83 -5 -83 -10
0 -11 25 -21 55 -21 13 0 27 -4 30 -10 4 -6 -6 -10 -21 -10 -54 0 -10 -19 51
-22 l60 -3 -58 -14 c-37 -9 -53 -17 -45 -23 30 -19 172 -1 231 28 29 15 37 44
12 44 -8 0 -15 5 -15 10 0 6 5 10 10 10 6 0 10 7 10 15 0 8 -5 15 -10 15 -7 0
-7 6 0 20 8 14 8 20 0 20 -7 0 -9 8 -5 20 8 24 -11 25 -70 4z"/>
<path d="M2740 1261 c0 -16 39 -33 61 -26 11 4 18 12 16 18 -4 15 -77 22 -77
8z"/>
<path d="M2750 1192 c-19 -9 -34 -21 -34 -27 3 -28 109 -47 143 -26 12 8 9 11
-14 17 -26 6 -27 8 -11 20 17 12 16 13 -3 23 -27 15 -40 14 -81 -7z"/>
<path d="M2710 1122 c0 -15 24 -32 46 -32 36 0 37 17 2 29 -37 13 -48 14 -48
3z"/>
<path d="M3230 1091 c-26 -15 -179 -41 -249 -42 l-66 -1 45 -21 c38 -18 41
-22 22 -25 -12 -2 -20 -8 -17 -13 4 -5 48 -9 98 -10 93 -1 90 -5 -17 -24 -29
-5 -36 -9 -25 -16 8 -5 28 -9 44 -10 30 -1 30 -1 5 -9 -14 -5 -55 -11 -92 -15
-38 -4 -68 -10 -68 -14 0 -14 102 -21 168 -11 77 11 157 36 172 56 10 11 9 14
-4 14 -9 0 -16 2 -16 5 0 8 23 48 39 68 11 13 12 20 3 29 -7 7 -12 20 -12 30
0 20 -7 22 -30 9z"/>
<path d="M2695 1050 c31 -34 135 -49 135 -20 0 12 -88 40 -123 40 -29 0 -30 0
-12 -20z"/>
<path d="M2674 1008 c-4 -6 3 -19 16 -30 27 -22 31 -22 56 -4 18 14 17 15 -18
30 -45 19 -45 19 -54 4z"/>
<path d="M2662 953 c2 -9 15 -25 29 -36 22 -15 33 -17 55 -10 16 5 28 13 27
18 -1 5 -27 16 -58 26 -50 15 -56 15 -53 2z"/>
<path d="M2640 902 c0 -21 44 -45 89 -50 76 -7 72 14 -7 37 -78 24 -82 24 -82
13z"/>
<path d="M3175 884 c-39 -11 -212 -50 -244 -55 -3 -1 5 -5 19 -9 87 -28 330
29 304 71 -7 12 -19 11 -79 -7z"/>
<path d="M2650 847 c0 -8 6 -20 14 -27 8 -6 12 -18 9 -26 -7 -18 24 -54 47
-54 18 0 61 29 43 30 -6 0 -24 5 -40 12 l-28 11 33 6 c48 9 44 24 -10 38 -26
6 -52 14 -58 18 -5 3 -10 0 -10 -8z"/>
<path d="M3125 810 c-50 -12 -65 -19 -53 -25 37 -15 3 -25 -90 -26 -92 0 -95
-1 -62 -14 19 -7 75 -14 124 -14 73 -1 86 -3 77 -14 -10 -13 -59 -37 -106 -52
-16 -5 -17 -8 -5 -15 8 -6 31 -10 50 -10 26 0 31 -3 22 -12 -19 -19 -14 -28
16 -28 l27 0 -30 -20 c-16 -11 -24 -20 -17 -20 32 0 6 -18 -48 -34 -78 -21
-69 -38 16 -31 69 5 81 -9 19 -21 -59 -11 -39 -24 38 -24 49 0 85 6 115 20 45
21 55 40 20 40 l-21 0 23 25 23 25 -22 0 c-18 0 -22 4 -17 17 4 9 1 20 -5 24
-20 12 -20 58 1 69 21 11 21 57 1 69 -9 6 -8 11 3 20 12 10 12 16 -1 41 -8 17
-18 29 -21 29 -4 -1 -38 -9 -77 -19z"/>
<path d="M2670 731 c0 -26 45 -51 92 -51 26 0 48 4 48 9 0 4 -26 16 -57 25
-32 10 -64 20 -70 23 -7 2 -13 0 -13 -6z"/>
<path d="M2640 691 c0 -13 44 -49 73 -60 42 -16 122 -14 137 4 11 13 7 15 -23
15 -20 0 -70 11 -112 24 -41 13 -75 21 -75 17z"/>
<path d="M2640 633 c0 -28 88 -73 142 -73 39 0 78 10 78 19 0 4 -28 12 -62 19
-56 11 -107 25 -145 39 -7 3 -13 1 -13 -4z"/>
<path d="M2639 561 c13 -24 62 -41 117 -41 50 0 67 17 27 26 -15 3 -50 12 -77
20 -68 19 -79 19 -67 -5z"/>
<path d="M2637 511 c18 -16 49 -35 70 -40 52 -15 153 -13 182 3 21 12 14 14
-69 20 -51 4 -111 14 -134 22 -78 29 -84 28 -49 -5z"/>
<path d="M2675 446 c57 -49 185 -58 236 -18 20 17 19 18 -49 14 -62 -4 -93 0
-192 24 -25 5 -25 5 5 -20z"/>
</g>
</svg>
